<?xml version="1.0" encoding="UTF-8"?>
<svg width="386px" height="386px" viewBox="0 0 386 386" version="1.1" xmlns="http://www.w3.org/2000/svg" xmlns:xlink="http://www.w3.org/1999/xlink">
    <title>401k</title>
    <g id="401k" stroke="none" stroke-width="1" fill="none" fill-rule="evenodd">
        <g id="sand_clock" transform="translate(73.000000, 34.000000)" fill-rule="nonzero">
            <g id="Group">
                <g fill="#E4002B" id="Shape">
                    <path d="M179.749986,23.8985294 L3.68665263,23.8985294 C1.77034633,23.8985294 0.220076056,22.3455564 0.220076056,20.4259091 L0.220076056,4.09812327 C0.220076056,2.17847605 1.77034633,0.625503025 3.68665263,0.625503025 L179.749986,0.625503025 C181.666292,0.625503025 183.216563,2.17847605 183.216563,4.09812327 L183.216563,20.4259091 C183.216563,22.3455564 181.666292,23.8985294 179.749986,23.8985294 Z M7.15322921,16.9532889 L176.261878,16.9532889 L176.261878,7.57074351 L7.15322921,7.57074351 L7.15322921,16.9532889 Z"></path>
                </g>
                <path d="M167.627734,293.33935 L164.914761,293.33935 C162.998454,293.33935 161.448184,291.786377 161.448184,289.86673 C161.448184,287.947082 162.998454,286.394109 164.914761,286.394109 L167.627734,286.394109 C169.54404,286.394109 171.09431,287.947082 171.09431,289.86673 C171.09431,291.786377 169.54404,293.33935 167.627734,293.33935 Z" id="Path" fill="#000000"></path>
                <g transform="translate(0.000000, 268.657471)" id="Path">
                    <polygon fill="#FFFFFF" points="88.929986 4.40695313 4.39719317 4.40695313 4.39719317 20.734739 88.9945806 20.734739"></polygon>
                    <path d="M88.9945806,24.2073592 L4.39719317,24.2073592 C2.48088687,24.2073592 0.930616596,22.6543862 0.930616596,20.734739 L0.930616596,4.40695313 C0.930616596,2.48730592 2.48088687,0.934332889 4.39719317,0.934332889 L88.929986,0.934332889 C90.8462923,0.934332889 92.3965625,2.48730592 92.3965625,4.40695313 C92.3965625,6.32660035 90.8462923,7.87957338 88.929986,7.87957338 L7.86376975,7.87957338 L7.86376975,17.2621188 L88.9945806,17.2621188 C90.9108869,17.2621188 92.4611571,18.8150918 92.4611571,20.734739 C92.4611571,22.6543862 90.9108869,24.2073592 88.9945806,24.2073592 Z" fill="#E4002B"></path>
                </g>
                <g transform="translate(11.717914, 16.299354)" fill="#E4002B" id="Path">
                    <path d="M77.2120721,260.23769 L12.0361261,260.23769 C10.7657658,260.23769 9.58153153,259.54748 8.97864865,258.40432 C-1.87324324,238.280377 -2.39,216.323064 7.47144144,193.179452 C15.674955,173.918273 29.3905405,157.331658 39.4242342,145.209841 C42.7616216,141.176425 45.6468468,137.682236 47.8,134.748842 C61.3863964,116.177873 55.6159459,105.069802 48.3813514,99.0304625 C24.3736937,78.9712276 14.0816216,54.2746426 9.66765766,37.0840939 C4.88765766,18.4484176 5.77045045,4.66578197 5.81351351,4.08341709 C5.9427027,2.27161522 7.44990991,0.84805661 9.28009009,0.84805661 L150.57,0.84805661 C152.40018,0.84805661 153.907387,2.27161522 154.036577,4.08341709 C154.07964,4.66578197 154.962432,18.4484176 150.182432,37.0840939 C145.768468,54.2746426 135.476396,78.9712276 111.468739,99.0304625 C104.234144,105.069802 98.4636937,116.177873 112.05009,134.748842 C114.375495,137.919495 117.282252,141.499961 120.641171,145.641222 C128.327928,155.110044 137.887928,166.886756 146.543604,181.359602 C147.534054,182.998851 146.995766,185.134189 145.359369,186.126367 C143.722973,187.118544 141.591351,186.579317 140.600901,184.940068 C132.203604,170.898603 122.815856,159.337582 115.27982,150.041313 C111.856306,145.835344 108.906486,142.190171 106.494955,138.890104 C88.1716216,113.869983 100.789099,98.9657553 107.076306,93.7244713 C129.576757,74.9162424 139.287477,51.7510614 143.464595,35.6389663 C146.694324,23.1504748 147.211081,12.8404594 147.254144,7.83643524 L12.639009,7.83643524 C12.6605405,12.8404594 13.1772973,23.1504748 16.4285586,35.6389663 C20.6056757,51.7726305 30.2948649,74.9378115 52.8168468,93.7244713 C59.1040541,98.9657553 71.7215315,113.869983 53.3981982,138.890104 C51.1373874,141.974481 48.1875676,145.554946 44.7855856,149.674638 C25.4718018,173.012372 -6.67477477,211.879836 14.1677477,253.29245 L77.2336036,253.29245 C79.1499099,253.29245 80.7001802,254.845423 80.7001802,256.76507 C80.6786486,258.684717 79.1283784,260.23769 77.2120721,260.23769 Z"></path>
                </g>
                <g transform="translate(21.531532, 181.180187)" fill="#E4002B" id="Path">
                    <path d="M67.3984544,86.4919701 L12.0193553,86.4919701 C10.8351211,86.4919701 9.73701299,85.8880361 9.09106705,84.8958589 C8.57431029,84.0978033 -3.5048789,64.9444693 2.11485083,45.6832899 C7.47620218,27.3711496 21.9453914,23.5318552 35.9408869,19.8435443 C47.5033193,16.7807363 59.4533193,13.6316521 67.3123283,2.20004512 C67.9582743,1.25100605 69.0348508,0.690210235 70.176022,0.690210235 C71.3171932,0.690210235 72.3937697,1.25100605 73.0397157,2.20004512 C80.8987247,13.6100831 92.741067,16.7807363 104.195842,19.8435443 C112.507013,22.0651584 121.119626,24.3514798 127.729806,29.8300236 C129.215481,31.0594606 129.409265,33.2379366 128.203499,34.7262024 C126.976202,36.2144683 124.801517,36.4085899 123.315842,35.200722 C117.868364,30.6927864 110.35386,28.6868629 102.408725,26.573094 C91.5137697,23.6612696 79.3053914,20.4043401 70.1975535,9.85706492 C61.0681842,20.4043401 48.7306166,23.6612696 37.7495355,26.573094 C24.5076436,30.0672834 13.0528688,33.1085222 8.81115714,47.6460753 C4.93548146,60.9541914 11.5241301,74.9093796 14.0433193,79.5467296 L67.4415175,79.5467296 C69.3578238,79.5467296 70.9080941,81.0997026 70.9080941,83.0193498 C70.9080941,84.938997 69.3147607,86.4919701 67.3984544,86.4919701 Z"></path>
                </g>
                <g transform="translate(35.402599, 51.765768)" fill="#E4002B" id="Shape">
                    <path d="M56.304955,89.2312419 C54.3886486,89.2312419 52.8383784,87.6782689 52.8383784,85.7586217 C52.8383784,73.8956333 46.6157658,66.9503928 25.2134234,49.2421864 C2.90675676,30.7790627 0.753603604,4.98245513 0.667477477,3.90400164 C0.55981982,2.45887396 1.35648649,1.12159163 2.64837838,0.496088606 C3.94027027,-0.107845349 5.49054054,0.129414419 6.52405405,1.1431607 C6.61018018,1.20786791 18.6893694,11.7120049 53.591982,3.06280792 C61.3433333,1.1431607 70.4296396,2.13533791 79.236036,3.08437699 C90.1740541,4.27067583 100.509189,5.39226746 106.344234,0.884331863 C107.420811,0.0431381397 108.906486,-0.0647072095 110.112252,0.582364886 C111.318018,1.22943698 112.028559,2.52358117 111.920901,3.90400164 C111.834775,4.98245513 109.681622,30.8006317 87.374955,49.2421864 C65.9726126,66.9503928 59.75,73.8956333 59.75,85.7586217 C59.7930631,87.6782689 58.2212613,89.2312419 56.304955,89.2312419 Z M8.87099099,10.20217 C10.938018,18.5062619 16.2778378,32.8281243 29.6489189,43.8930571 C43.4721622,55.3246641 51.9986486,63.0248221 56.304955,71.1779305 C60.6112613,63.0248221 69.1592793,55.3246641 82.9825225,43.8930571 C96.5904505,32.6340027 101.887207,17.9886042 103.868108,9.74921957 C96.4827928,11.9276956 87.374955,10.9570875 78.503964,9.98647934 C70.321982,9.10214747 61.8385586,8.19624654 55.2714414,9.81392678 C31.0915315,15.8101282 16.5577477,13.2002707 8.87099099,10.20217 Z"></path>
                </g>
                <g transform="translate(80.618815, 146.669675)">
                    <path d="M10.1628829,7.65701979 C10.1628829,9.46882166 8.69873874,10.9139493 6.91162162,10.9139493 C5.1245045,10.9139493 3.66036036,9.44725259 3.66036036,7.65701979 C3.66036036,5.866787 5.1245045,4.40009025 6.91162162,4.40009025 C8.69873874,4.40009025 10.1628829,5.84521793 10.1628829,7.65701979 Z" id="Path" fill="#FFFFFF"></path>
                    <path d="M6.91162162,14.3865696 C3.2081982,14.3865696 0.172252252,11.3668998 0.172252252,7.63545072 C0.172252252,3.90400164 3.18666667,0.884331863 6.91162162,0.884331863 C10.615045,0.884331863 13.650991,3.90400164 13.650991,7.63545072 C13.650991,11.3668998 10.615045,14.3865696 6.91162162,14.3865696 Z M6.91162162,7.44132909 C6.80396396,7.44132909 6.69630631,7.52760537 6.69630631,7.65701979 C6.69630631,7.78643421 6.78243243,7.87271049 6.91162162,7.87271049 C7.01927928,7.87271049 7.12693694,7.78643421 7.12693694,7.65701979 C7.12693694,7.52760537 7.01927928,7.44132909 6.91162162,7.44132909 Z" id="Shape" fill="#E4002B"></path>
                </g>
                <g transform="translate(97.844040, 159.611117)">
                    <ellipse id="Oval" fill="#FFFFFF" cx="5.51207207" cy="5.90992514" rx="1.87324324" ry="1.87650908"></ellipse>
                    <path d="M5.51207207,11.2590545 C2.56225225,11.2590545 0.172252252,8.8648877 0.172252252,5.90992514 C0.172252252,2.95496257 2.56225225,0.560795816 5.51207207,0.560795816 C8.46189189,0.560795816 10.8518919,2.95496257 10.8518919,5.90992514 C10.8518919,8.8648877 8.46189189,11.2590545 5.51207207,11.2590545 Z M5.51207207,4.2922449 C4.62927928,4.2922449 3.89720721,5.0040242 3.89720721,5.90992514 C3.89720721,6.794257 4.60774775,7.52760537 5.51207207,7.52760537 C6.39486486,7.52760537 7.12693694,6.81582607 7.12693694,5.90992514 C7.12693694,5.02559327 6.39486486,4.2922449 5.51207207,4.2922449 Z" id="Shape" fill="#E4002B"></path>
                </g>
                <g transform="translate(75.360360, 169.439750)">
                    <path d="M7.49773371,5.42069942 C7.49773371,6.45601477 6.65800398,7.29720849 5.62449047,7.29720849 C4.59097696,7.29720849 3.75124723,6.45601477 3.75124723,5.42069942 C3.75124723,4.38538406 4.59097696,3.54419034 5.62449047,3.54419034 C6.67953552,3.54419034 7.49773371,4.38538406 7.49773371,5.42069942 Z" id="Path" fill="#FFFFFF"></path>
                    <path d="M5.646022,10.7482597 C2.69620218,10.7482597 0.306202182,8.35409291 0.306202182,5.39913035 C0.306202182,2.44416778 2.69620218,0.0500010255 5.646022,0.0500010255 C8.59584182,0.0500010255 10.9858418,2.44416778 10.9858418,5.39913035 C10.9858418,8.35409291 8.59584182,10.7482597 5.646022,10.7482597 Z M5.646022,3.80301918 C4.76322921,3.80301918 4.03115714,4.51479848 4.03115714,5.42069942 C4.03115714,6.32660035 4.74169768,7.03837965 5.646022,7.03837965 C6.52881479,7.03837965 7.26088687,6.32660035 7.26088687,5.42069942 C7.26088687,4.51479848 6.52881479,3.80301918 5.646022,3.80301918 Z" id="Shape" fill="#E4002B"></path>
                </g>
            </g>
            <g id="Group" transform="translate(97.844040, 198.435443)">
                <g transform="translate(61.288288, 0.000000)">
                    <g transform="translate(0.000000, 31.397703)">
                        <path d="M73.3053153,7.92271152 C72.3148649,9.28156292 70.8076577,10.532569 68.8698198,11.6972987 C62.518018,15.4503169 51.58,17.9307599 39.1347748,17.9307599 C26.6895495,17.9307599 15.7515315,15.4503169 9.39972973,11.6972987 C7.46189189,10.554138 5.95468468,9.28156292 4.96423423,7.92271152 C4.08144144,6.71484361 3.62927928,5.46383756 3.62927928,4.14812429 L3.62927928,22.266143 C3.62927928,29.8800246 19.5195495,36.0487786 39.1347748,36.0487786 C58.75,36.0487786 74.6402703,29.8800246 74.6402703,22.266143 L74.6402703,4.14812429 C74.6402703,5.46383756 74.1665766,6.71484361 73.3053153,7.92271152 Z" id="Path" fill="#FFFFFF"></path>
                        <path d="M39.1347748,39.5213988 C19.7563964,39.5213988 0.141171171,33.5899046 0.141171171,22.266143 L0.141171171,4.14812429 C0.141171171,2.22847708 1.69144144,0.675504051 3.60774775,0.675504051 C5.52405405,0.675504051 7.07432432,2.22847708 7.07432432,4.14812429 C7.07432432,4.68735104 7.28963964,5.24814686 7.7418018,5.87364988 C8.43081081,6.80111989 9.61504505,7.7932971 11.1437838,8.69919803 C17.1295495,12.2580946 27.8522523,14.4581397 39.1132432,14.4581397 C50.3742342,14.4581397 61.0754054,12.2580946 67.0827027,8.69919803 C68.632973,7.7932971 69.7956757,6.80111989 70.4846847,5.87364988 C70.9368468,5.26971593 71.1521622,4.68735104 71.1521622,4.14812429 C71.1521622,2.22847708 72.7024324,0.675504051 74.6187387,0.675504051 C76.535045,0.675504051 78.085333,2.22847708 78.085333,4.14812429 L78.085333,22.266143 C78.1068468,33.6114737 58.4916216,39.5213988 39.1347748,39.5213988 Z M7.07432432,14.3502943 L7.07432432,22.266143 C7.07432432,26.4721116 19.5626126,32.5761583 39.1132432,32.5761583 C58.6638739,32.5761583 71.1521622,26.4721116 71.1521622,22.266143 L71.1521622,14.3502943 C70.9799099,14.4581397 70.7861261,14.565985 70.6138739,14.6738304 C63.5084685,18.879799 51.7307207,21.4033802 39.1132432,21.4033802 C26.4957658,21.4033802 14.718018,18.879799 7.61261261,14.6738304 C7.44036036,14.565985 7.26810811,14.4581397 7.07432432,14.3502943 Z" id="Shape" fill="#E4002B"></path>
                    </g>
                    <g transform="translate(0.000000, 13.941442)">
                        <path d="M73.3053153,7.41193724 C72.3148649,8.77078864 70.8076577,10.0217947 68.8698198,11.1865245 C62.518018,14.9395426 51.58,17.4199856 39.1347748,17.4199856 C26.6895495,17.4199856 15.7515315,14.9395426 9.39972973,11.1865245 C7.46189189,10.0433638 5.95468468,8.77078864 4.96423423,7.41193724 C4.08144144,6.20406933 3.62927928,4.95306328 3.62927928,3.63735002 L3.62927928,21.7553687 C3.62927928,29.3692503 19.5195495,35.5380043 39.1347748,35.5380043 C58.75,35.5380043 74.6402703,29.3692503 74.6402703,21.7553687 L74.6402703,3.63735002 C74.6402703,4.95306328 74.1665766,6.2256384 73.3053153,7.41193724 Z" id="Path" fill="#FFFFFF"></path>
                        <path d="M39.1347748,39.0321936 C19.7563964,39.0321936 0.141171171,33.1006994 0.141171171,21.7769377 L0.141171171,3.65891909 C0.141171171,1.73927187 1.69144144,0.186298841 3.60774775,0.186298841 C5.52405405,0.186298841 7.07432432,1.73927187 7.07432432,3.65891909 C7.07432432,4.19814583 7.28963964,4.75894165 7.7418018,5.38444467 C8.43081081,6.31191468 9.61504505,7.30409189 11.1437838,8.20999282 C17.1295495,11.7688893 27.8522523,13.9689345 39.1132432,13.9689345 C50.3742342,13.9689345 61.0754054,11.7688893 67.0827027,8.20999282 C68.632973,7.30409189 69.7956757,6.31191468 70.4846847,5.38444467 C70.9368468,4.78051072 71.1521622,4.19814583 71.1521622,3.65891909 C71.1521622,1.73927187 72.7024324,0.186298841 74.6187387,0.186298841 C76.535045,0.186298841 78.085333,1.73927187 78.085333,3.65891909 L78.085333,21.7769377 C78.1068468,33.1006994 58.4916216,39.0321936 39.1347748,39.0321936 Z M7.07432432,13.83952 L7.07432432,21.7553687 C7.07432432,25.9613373 19.5626126,32.0653841 39.1132432,32.0653841 C58.6638739,32.0653841 71.1521622,25.9613373 71.1521622,21.7553687 L71.1521622,13.83952 C70.9799099,13.9473654 70.7861261,14.0552107 70.6138739,14.1630561 C63.5084685,18.3690247 51.7307207,20.8926059 39.1132432,20.8926059 C26.4957658,20.8926059 14.718018,18.3690247 7.61261261,14.1630561 C7.44036036,14.0552107 7.26810811,13.9473654 7.07432432,13.83952 Z" id="Shape" fill="#E4002B"></path>
                    </g>
                    <g transform="translate(0.000000, 49.608861)">
                        <path d="M73.3053153,7.87271049 C72.3148649,9.23156189 70.8076577,10.4825679 68.8698198,11.6472977 C62.518018,15.4003159 51.58,17.8807589 39.1347748,17.8807589 C26.6895495,17.8807589 15.7515315,15.4003159 9.39972973,11.6472977 C7.46189189,10.504137 5.95468468,9.23156189 4.96423423,7.87271049 C4.08144144,6.66484258 3.62927928,5.41383653 3.62927928,4.09812327 L3.62927928,22.2161419 C3.62927928,29.8300236 19.5195495,35.9987776 39.1347748,35.9987776 C58.75,35.9987776 74.6402703,29.8300236 74.6402703,22.2161419 L74.6402703,4.09812327 C74.6402703,5.39226746 74.1665766,6.66484258 73.3053153,7.87271049 Z" id="Path" fill="#FFFFFF"></path>
                        <path d="M39.1347748,39.4713978 C19.7563964,39.4713978 0.141171171,33.5399036 0.141171171,22.2161419 L0.141171171,4.09812327 C0.141171171,2.17847605 1.69144144,0.625503025 3.60774775,0.625503025 C5.52405405,0.625503025 7.07432432,2.17847605 7.07432432,4.09812327 C7.07432432,4.63735002 7.28963964,5.19814583 7.7418018,5.82364886 C8.43081081,6.75111886 9.61504505,7.74329607 11.1437838,8.64919701 C17.1295495,12.2080935 27.8522523,14.4081387 39.1132432,14.4081387 C50.3742342,14.4081387 61.0754054,12.2080935 67.0827027,8.64919701 C68.632973,7.74329607 69.7956757,6.75111886 70.4846847,5.82364886 C70.9368468,5.2197149 71.1521622,4.63735002 71.1521622,4.11969234 C71.1521622,2.20004512 72.7024324,0.647072095 74.6187387,0.647072095 C76.535045,0.647072095 78.085333,2.20004512 78.085333,4.11969234 L78.085333,22.237711 C78.1068468,33.5399036 58.4916216,39.4713978 39.1347748,39.4713978 Z M7.07432432,14.3002933 L7.07432432,22.2161419 C7.07432432,26.4221106 19.5626126,32.5261573 39.1132432,32.5261573 C58.6638739,32.5261573 71.1521622,26.4221106 71.1521622,22.2161419 L71.1521622,14.3002933 C70.9799099,14.4081387 70.7861261,14.515984 70.6138739,14.6238294 C63.5084685,18.829798 51.7307207,21.3533791 39.1132432,21.3533791 C26.4957658,21.3533791 14.718018,18.829798 7.61261261,14.6238294 C7.44036036,14.515984 7.26810811,14.4081387 7.07432432,14.3002933 Z" id="Shape" fill="#E4002B"></path>
                    </g>
                    <g transform="translate(0.000000, 68.065122)">
                        <path d="M73.3053153,7.53446826 C72.3148649,8.89331966 70.8076577,10.1443257 68.8698198,11.3090555 C62.518018,15.0620736 51.58,17.5425167 39.1347748,17.5425167 C26.6895495,17.5425167 15.7515315,15.0620736 9.39972973,11.3090555 C7.46189189,10.1658948 5.95468468,8.89331966 4.96423423,7.53446826 C4.08144144,6.32660035 3.62927928,5.0755943 3.62927928,3.75988104 L3.62927928,21.8778997 C3.62927928,29.4917814 19.5195495,35.6605353 39.1347748,35.6605353 C58.75,35.6605353 74.6402703,29.4917814 74.6402703,21.8778997 L74.6402703,3.75988104 C74.6402703,5.0755943 74.1665766,6.32660035 73.3053153,7.53446826 Z" id="Path" fill="#FFFFFF"></path>
                        <path d="M39.1347748,39.1331556 C19.7563964,39.1331556 0.141171171,33.2016614 0.141171171,21.8778997 L0.141171171,3.75988104 C0.141171171,1.84023382 1.69144144,0.287260794 3.60774775,0.287260794 C5.52405405,0.287260794 7.07432432,1.84023382 7.07432432,3.75988104 C7.07432432,4.29910778 7.28963964,4.8599036 7.7418018,5.48540662 C8.43081081,6.41287663 9.61504505,7.40505384 11.1437838,8.31095477 C17.1295495,11.8698513 27.8522523,14.0698964 39.1132432,14.0698964 C50.3742342,14.0698964 61.0754054,11.8698513 67.0827027,8.31095477 C68.632973,7.40505384 69.7956757,6.41287663 70.4846847,5.48540662 C70.9368468,4.88147267 71.1521622,4.29910778 71.1521622,3.75988104 C71.1521622,1.84023382 72.7024324,0.287260794 74.6187387,0.287260794 C76.535045,0.287260794 78.085333,1.84023382 78.085333,3.75988104 L78.085333,21.8778997 C78.1068468,33.2016614 58.4916216,39.1331556 39.1347748,39.1331556 Z M7.07432432,13.9620511 L7.07432432,21.8994688 C7.07432432,26.1054374 19.5626126,32.2094842 39.1132432,32.2094842 C58.6638739,32.2094842 71.1521622,26.1054374 71.1521622,21.8994688 L71.1521622,13.9620511 C70.9799099,14.0698964 70.7861261,14.1777418 70.6138739,14.2855871 C63.5084685,18.4915557 51.7307207,21.0151369 39.1132432,21.0151369 C26.4957658,21.0151369 14.718018,18.4915557 7.61261261,14.2855871 C7.44036036,14.1777418 7.26810811,14.0698964 7.07432432,13.9620511 Z" id="Shape" fill="#E4002B"></path>
                    </g>
                    <g>
                        <ellipse id="Oval" fill="#FFFFFF" cx="39.1347748" cy="17.4062394" rx="35.5054955" ry="13.7826356"></ellipse>
                        <path d="M39.1347748,34.6614952 C19.7563964,34.6614952 0.141171171,28.730001 0.141171171,17.4062394 C0.141171171,6.08247769 19.7563964,0.150983489 39.1347748,0.150983489 C58.5131532,0.150983489 78.1283784,6.08247769 78.1283784,17.4062394 C78.1068468,28.730001 58.4916216,34.6614952 39.1347748,34.6614952 Z M39.1347748,7.09622398 C19.5841441,7.09622398 7.09585586,13.2002707 7.09585586,17.4062394 C7.09585586,21.612208 19.5841441,27.7162547 39.1347748,27.7162547 C58.6854054,27.7162547 71.1736937,21.612208 71.1736937,17.4062394 C71.1736937,13.2002707 58.6854054,7.09622398 39.1347748,7.09622398 Z" id="Shape" fill="#E4002B"></path>
                    </g>
                </g>
                <g transform="translate(0.000000, 45.295047)">
                    <g transform="translate(0.000000, 32.353605)">
                        <path d="M73.3363964,7.54917444 C72.3459459,8.90802584 70.8387387,10.1590319 68.9009009,11.3237617 C62.5490991,15.0767798 51.6110811,17.5572228 39.1658559,17.5572228 C26.7206306,17.5572228 15.7826126,15.0767798 9.43081081,11.3237617 C7.49297297,10.180601 5.98576577,8.90802584 4.99531532,7.54917444 C4.11252252,6.34130653 3.66036036,5.09030048 3.66036036,3.77458722 L3.66036036,21.8926059 C3.66036036,29.5064875 19.5506306,35.6752415 39.1658559,35.6752415 C58.7810811,35.6752415 74.6713514,29.5064875 74.6713514,21.8926059 L74.6713514,3.77458722 C74.6713514,5.06873141 74.2191892,6.34130653 73.3363964,7.54917444 Z" id="Path" fill="#FFFFFF"></path>
                        <path d="M39.1658559,39.1478618 C19.7874775,39.1478618 0.172252252,33.2163676 0.172252252,21.8926059 L0.172252252,3.77458722 C0.172252252,1.85494001 1.72252252,0.301966978 3.63882883,0.301966978 C5.55513514,0.301966978 7.10540541,1.85494001 7.10540541,3.77458722 C7.10540541,4.31381397 7.32072072,4.87460978 7.77288288,5.50011281 C8.46189189,6.42758281 9.64612613,7.41976002 11.1748649,8.32566096 C17.1606306,11.8845575 27.8833333,14.0846026 39.1443243,14.0846026 C50.4053153,14.0846026 61.1064865,11.8845575 67.1137838,8.32566096 C68.6640541,7.41976002 69.8267568,6.42758281 70.5157658,5.50011281 C70.9679279,4.89617885 71.1832432,4.31381397 71.1832432,3.77458722 C71.1832432,1.85494001 72.7335135,0.301966978 74.6498198,0.301966978 C76.5661261,0.301966978 78.1164672,1.85494001 78.1164672,3.77458722 L78.1164672,21.8926059 C78.1594595,33.2163676 58.5442342,39.1478618 39.1658559,39.1478618 Z M7.12693694,13.9767573 L7.12693694,21.8926059 C7.12693694,26.0985745 19.6152252,32.2026213 39.1658559,32.2026213 C58.7164865,32.2026213 71.2047748,26.0985745 71.2047748,21.8926059 L71.2047748,13.9551882 C71.0325225,14.0630335 70.8387387,14.1708789 70.6664865,14.2787242 C63.5610811,18.4846929 51.7833333,21.008274 39.1658559,21.008274 C26.5483784,21.008274 14.7706306,18.4846929 7.66522523,14.2787242 C7.49297297,14.192448 7.29918919,14.0846026 7.12693694,13.9767573 Z" id="Shape" fill="#E4002B"></path>
                    </g>
                    <g transform="translate(0.000000, 14.142447)">
                        <path d="M73.3363964,7.7932971 C72.3459459,9.1521485 70.8387387,10.4031545 68.9009009,11.5678843 C62.5490991,15.3209025 51.6110811,17.8013455 39.1658559,17.8013455 C26.7206306,17.8013455 15.7826126,15.3209025 9.43081081,11.5678843 C7.49297297,10.4247236 5.98576577,9.1521485 4.99531532,7.7932971 C4.11252252,6.58542919 3.66036036,5.33442314 3.66036036,4.01870988 L3.66036036,22.1367285 C3.66036036,29.7506102 19.5506306,35.9193642 39.1658559,35.9193642 C58.7810811,35.9193642 74.6713514,29.7506102 74.6713514,22.1367285 L74.6713514,4.01870988 C74.6713514,5.33442314 74.2191892,6.58542919 73.3363964,7.7932971 Z" id="Path" fill="#FFFFFF"></path>
                        <path d="M39.1658559,39.3919844 C19.7874775,39.3919844 0.172252252,33.4604902 0.172252252,22.1367285 L0.172252252,4.01870988 C0.172252252,2.09906266 1.72252252,0.546089632 3.63882883,0.546089632 C5.55513514,0.546089632 7.10540541,2.09906266 7.10540541,4.01870988 C7.10540541,4.55793662 7.32072072,5.11873244 7.77288288,5.74423546 C8.46189189,6.67170547 9.64612613,7.66388268 11.1748649,8.56978361 C17.1606306,12.1286801 27.8833333,14.3287253 39.1443243,14.3287253 C50.4053153,14.3287253 61.1064865,12.1286801 67.1137838,8.56978361 C68.6640541,7.66388268 69.8267568,6.67170547 70.5157658,5.74423546 C70.9679279,5.14030151 71.1832432,4.55793662 71.1832432,4.04027895 C71.1832432,2.12063173 72.7335135,0.567658702 74.6498198,0.567658702 C76.5661261,0.567658702 78.1164672,2.12063173 78.1164672,4.04027895 L78.1164672,22.1582976 C78.1594595,33.4820593 58.5442342,39.3919844 39.1658559,39.3919844 Z M7.12693694,14.2208799 L7.12693694,22.1367285 C7.12693694,26.3426972 19.6152252,32.4467439 39.1658559,32.4467439 C58.7164865,32.4467439 71.2047748,26.3426972 71.2047748,22.1367285 L71.2047748,14.2208799 C71.0325225,14.3287253 70.8387387,14.4365706 70.6664865,14.544416 C63.5610811,18.7503846 51.7833333,21.2739657 39.1658559,21.2739657 C26.5483784,21.2739657 14.7706306,18.7503846 7.66522523,14.544416 C7.49297297,14.4365706 7.29918919,14.3287253 7.12693694,14.2208799 Z" id="Shape" fill="#E4002B"></path>
                    </g>
                    <g>
                        <ellipse id="Oval" fill="#FFFFFF" cx="39.1658559" cy="17.9670352" rx="35.5054955" ry="13.7826356"></ellipse>
                        <path d="M39.1658559,35.222291 C19.7874775,35.222291 0.172252252,29.2907968 0.172252252,17.9670352 C0.172252252,6.64327351 19.7874775,0.711779305 39.1658559,0.711779305 C58.5442342,0.711779305 78.1379456,6.64327351 78.1379456,17.9670352 C78.1594595,29.3123659 58.5442342,35.222291 39.1658559,35.222291 Z M39.1658559,7.67858886 C19.6152252,7.67858886 7.12693694,13.7826356 7.12693694,17.9886042 C7.12693694,22.1945729 19.6152252,28.2986196 39.1658559,28.2986196 C58.7164865,28.2986196 71.2047748,22.1945729 71.2047748,17.9886042 C71.2047748,13.7826356 58.738018,7.67858886 39.1658559,7.67858886 Z" id="Shape" fill="#E4002B"></path>
                    </g>
                </g>
            </g>
        </g>
    </g>
</svg>