<?xml version="1.0" encoding="UTF-8"?>
<svg width="386px" height="386px" viewBox="0 0 386 386" version="1.1" xmlns="http://www.w3.org/2000/svg" xmlns:xlink="http://www.w3.org/1999/xlink">
    <title>community outreach</title>
    <g id="community-outreach" stroke="none" stroke-width="1" fill="none" fill-rule="evenodd">
        <g id="Group" transform="translate(40.000000, 51.000000)" fill="#E4002B" fill-rule="nonzero">
            <path d="M200.72425,159.597565 C199.973068,159.597565 199.201583,159.415198 198.491005,159.050465 L154.92243,136.193867 L111.353855,159.050465 C109.74998,159.901509 107.780664,159.759668 106.318904,158.685732 C104.836841,157.611796 104.105961,155.808395 104.410495,154.025256 L112.734407,105.596826 L77.4897442,71.3119285 C76.1904018,70.0353632 75.7234506,68.1509096 76.2716107,66.4082966 C76.840073,64.6859466 78.3221354,63.4296442 80.1290335,63.166226 L128.834071,56.0944594 L150.618359,12.0428245 C151.430448,10.4217892 153.09523,9.3883792 154.902128,9.3883792 C156.729328,9.3883792 158.394111,10.4217892 159.185898,12.0428245 L180.970185,56.0944594 L229.675223,63.166226 C231.482121,63.4296442 232.984485,64.6859466 233.532645,66.4082966 C234.101108,68.1306467 233.634157,70.0353632 232.314512,71.3119285 L197.110454,105.596826 L205.434366,154.025256 C205.738899,155.808395 205.008019,157.632059 203.525957,158.685732 C202.693566,159.293621 201.698757,159.597565 200.72425,159.597565 Z M154.92243,126.021871 C155.693915,126.021871 156.445097,126.204237 157.155675,126.56897 L194.369653,146.102446 L187.263875,104.745782 C186.999946,103.205798 187.507501,101.625289 188.644426,100.510827 L218.752626,71.2106138 L177.133064,65.1722572 C175.569793,64.9493648 174.229846,63.9767436 173.539571,62.5583377 L154.92243,24.9300553 L136.30529,62.5583377 C135.615014,63.9767436 134.254765,64.9493648 132.711796,65.1722572 L91.0922349,71.2106138 L121.200435,100.510827 C122.337359,101.605026 122.844915,103.185535 122.580986,104.745782 L115.475207,146.102446 L152.689186,126.56897 C153.379461,126.204237 154.150946,126.021871 154.92243,126.021871 Z" id="Shape"></path>
            <g transform="translate(0.000000, 170.868502)" id="Path">
                <path d="M121.737633,112.895983 C118.676618,112.895983 115.635875,112.61344 112.595131,112.048355 C112.514045,112.028173 112.412686,112.007992 112.3316,111.98781 L3.7770564,85.1462554 C1.22283185,84.5206252 -0.338083156,81.9373778 0.290337171,79.3944937 C0.918757498,76.8516095 3.5135253,75.2976248 6.06774985,75.923255 L114.480392,102.724447 C119.305038,103.612438 124.1905,103.612438 128.994874,102.704265 C152.591044,98.3046718 208.966429,87.8707741 222.751133,85.9737019 C224.737752,85.6911592 226.643285,85.0655289 228.386644,84.1169928 L292.343616,43.4913914 C292.465246,43.4106649 292.586876,43.3501201 292.728777,43.2693936 C296.377669,41.3925029 297.979128,36.9727281 296.296583,33.4409446 C295.424903,31.6044172 293.88426,30.2522486 291.958455,29.5862551 C290.032651,28.9404433 287.985217,29.1018963 286.181043,30.0302508 L222.994392,63.0877446 C222.933578,63.1079262 222.872763,63.1482895 222.832219,63.1684711 C221.21049,63.9353726 219.487402,64.1573705 218.83871,64.2179153 C218.08866,64.2986418 217.075078,64.3793683 215.960139,64.2784602 L143.590443,57.2350748 C136.333202,56.4883548 131.06258,50.0302364 131.832902,42.825398 C132.582952,35.6407412 139.069871,30.39352 146.306841,31.1402399 L171.220666,33.7234873 L193.782983,36.0040104 C196.458837,36.2663714 199.073877,35.4591066 201.121311,33.7436689 C203.168745,32.0080496 204.405314,29.5862551 204.567487,26.9020997 C204.912104,21.7154233 200.796965,17.053469 195.404713,16.5085653 L134.610114,10.3733528 C133.495175,10.252263 132.359964,10.3531711 131.245025,10.6155322 C131.042308,10.6760771 130.839592,10.6962587 130.636876,10.7164403 C121.251114,11.7860662 92.3235076,29.0413514 76.7954441,38.3047151 C71.8694396,41.2512316 67.6123987,43.7739341 64.6527416,45.4490086 C63.4567158,46.115002 62.0174306,46.2360918 60.7200467,45.7920961 L3.35135231,25.610476 C0.857942628,24.7426663 -0.439441273,22.0181476 0.432238535,19.5358083 C1.30391834,17.053469 4.04058751,15.7618453 6.53399719,16.629655 L61.834986,36.0847368 C64.5311119,34.5307521 67.9975595,32.4722268 71.8897112,30.1513405 C96.0129431,15.7618453 118.554988,2.74470034 129.238134,1.31180531 C131.346383,0.827446426 133.474903,0.686175085 135.583152,0.908172907 L196.377751,7.04338543 C206.837909,8.09282968 214.784385,17.2754669 214.115421,27.5277299 C213.770804,32.8153144 211.338209,37.5983583 207.304156,41.0090522 C203.249831,44.419746 198.12111,46.0140939 192.830217,45.4691902 L170.2679,43.1886671 L145.333803,40.6054197 C143.347184,40.4036035 141.563281,41.8364986 141.360565,43.8142974 C141.157849,45.7920961 142.597134,47.5680787 144.583753,47.7698949 L216.953449,54.8132803 C217.21698,54.833462 217.642684,54.7930987 217.804857,54.7729171 C217.885943,54.7729171 217.96703,54.7527355 218.027845,54.7527355 L218.027845,54.7527355 C218.210289,54.7325539 218.554907,54.6518274 218.71708,54.6114641 L281.802372,21.6145152 C285.958055,19.4752634 290.661071,19.1321759 295.060014,20.6054342 C299.458956,22.0786924 302.986219,25.2068436 304.972838,29.3844389 C308.804174,37.4369054 305.398542,47.3662625 297.370979,51.6245844 L233.474822,92.2098225 C233.393735,92.2501857 233.312649,92.3107306 233.231562,92.3510938 C230.393535,93.9252602 227.33252,94.9545228 224.109332,95.3985185 C210.507072,97.2552275 154.334404,107.668944 130.799049,112.048355 C127.798849,112.61344 124.758105,112.895983 121.737633,112.895983 Z"></path>
                <path d="M223.703899,38.2441702 C221.940268,38.2441702 220.237452,37.2552708 219.406315,35.5801963 C218.250833,33.2189468 219.244142,30.3733383 221.615922,29.222986 L253.726174,13.6427752 C259.564401,10.8173484 266.639198,12.2098802 270.936782,17.0332874 C272.680141,18.9909046 272.497697,21.997966 270.531349,23.7537669 C268.565002,25.4893863 265.54453,25.3077517 263.780899,23.3501345 C262.30107,21.6952417 259.888747,21.2310644 257.902128,22.1796005 L225.791876,37.7598113 C225.122913,38.0827172 224.413406,38.2441702 223.703899,38.2441702 Z"></path>
                <path d="M206.73655,21.8768762 C204.952648,21.8768762 203.249831,20.8879769 202.438966,19.1927208 C201.283484,16.8314712 202.297065,13.9858628 204.668845,12.8355104 L223.561998,3.75378135 C229.379954,0.928354527 236.45475,2.32088632 240.752335,7.16447515 C242.495694,9.12209231 242.31325,12.1291537 240.346902,13.8849547 C238.380555,15.620574 235.360083,15.4389394 233.596451,13.4813223 C232.136895,11.8264294 229.7043,11.3622521 227.717681,12.3107883 L208.804256,21.3925174 C208.135292,21.7154233 207.425786,21.8768762 206.73655,21.8768762 Z"></path>
            </g>
            <g transform="translate(249.730887, 107.966361)" id="Path">
                <path d="M21.6978739,14.2134349 C19.044324,14.2134349 16.8806602,12.0518508 16.8806602,9.40085149 L16.8806602,5.30199867 C16.8806602,2.65099933 19.023912,0.489415262 21.6978739,0.489415262 C24.3514239,0.489415262 26.5150877,2.65099933 26.5150877,5.30199867 L26.5150877,9.42124379 C26.5150877,12.0722431 24.3514239,14.2134349 21.6978739,14.2134349 Z"></path>
                <path d="M21.6978739,42.4975586 C19.044324,42.4975586 16.8806602,40.3359745 16.8806602,37.6849752 L16.8806602,33.56573 C16.8806602,30.9147307 19.023912,28.7531466 21.6978739,28.7531466 C24.3514239,28.7531466 26.5150877,30.9147307 26.5150877,33.56573 L26.5150877,37.6849752 C26.5150877,40.3359745 24.3514239,42.4975586 21.6978739,42.4975586 Z"></path>
                <path d="M9.61401564,26.285678 L5.49080723,26.285678 C2.83725727,26.285678 0.673593452,24.1240939 0.673593452,21.4730946 C0.673593452,18.8220953 2.81684535,16.6605112 5.49080723,16.6605112 L9.61401564,16.6605112 C12.2675656,16.6605112 14.4312294,18.8220953 14.4312294,21.4730946 C14.4312294,24.1444862 12.2675656,26.285678 9.61401564,26.285678 Z"></path>
                <path d="M37.9049406,26.285678 L33.7817322,26.285678 C31.1281823,26.285678 28.9645184,24.1240939 28.9645184,21.4730946 C28.9645184,18.8220953 31.1077703,16.6605112 33.7817322,16.6605112 L37.9049406,16.6605112 C40.5584906,16.6605112 42.7221544,18.8220953 42.7221544,21.4730946 C42.7221544,24.1444862 40.5789025,26.285678 37.9049406,26.285678 Z"></path>
            </g>
            <g transform="translate(17.837920, 0.000000)" id="Path">
                <path d="M21.5207463,13.9742082 C18.8671963,13.9742082 16.7035325,11.8126241 16.7035325,9.16162479 L16.7035325,5.04237967 C16.7035325,2.39138034 18.8671963,0.229796263 21.5207463,0.229796263 C24.1742963,0.229796263 26.3379601,2.39138034 26.3379601,5.04237967 L26.3379601,9.16162479 C26.3175481,11.8330164 24.1742963,13.9742082 21.5207463,13.9742082 Z"></path>
                <path d="M21.5207463,42.2379396 C18.8671963,42.2379396 16.7035325,40.0763555 16.7035325,37.4253562 L16.7035325,33.306111 C16.7035325,30.6551117 18.8671963,28.4935276 21.5207463,28.4935276 C24.1742963,28.4935276 26.3379601,30.6551117 26.3379601,33.306111 L26.3379601,37.4253562 C26.3175481,40.0967478 24.1742963,42.2379396 21.5207463,42.2379396 Z"></path>
                <path d="M9.436888,26.0464513 L5.31367959,26.0464513 C2.66012963,26.0464513 0.496465814,23.8848672 0.496465814,21.2338679 C0.496465814,18.5828686 2.66012963,16.4212845 5.31367959,16.4212845 L9.436888,16.4212845 C12.090438,16.4212845 14.2541018,18.5828686 14.2541018,21.2338679 C14.2336899,23.9052596 12.090438,26.0464513 9.436888,26.0464513 Z"></path>
                <path d="M37.727813,26.0464513 L33.6046046,26.0464513 C30.9510546,26.0464513 28.7873908,23.8848672 28.7873908,21.2338679 C28.7873908,18.5828686 30.9510546,16.4212845 33.6046046,16.4212845 L37.727813,16.4212845 C40.381363,16.4212845 42.5450268,18.5828686 42.5450268,21.2338679 C42.5246148,23.9052596 40.381363,26.0464513 37.727813,26.0464513 Z"></path>
            </g>
            <circle id="Oval" cx="280.243119" cy="57.7385321" r="6.10244648"></circle>
            <ellipse id="Oval" transform="translate(101.946074, 17.687861) rotate(-22.631324) translate(-101.946074, -17.687861) " cx="101.946074" cy="17.6878608" rx="5.87748304" ry="5.87135711"></ellipse>
            <ellipse id="Oval" transform="translate(47.943588, 96.402919) rotate(-22.631324) translate(-47.943588, -96.402919) " cx="47.9435884" cy="96.4029189" rx="5.87748304" ry="5.87135711"></ellipse>
            <circle id="Oval" cx="225.79052" cy="115.946483" r="6.10244648"></circle>
        </g>
    </g>
</svg>