<?xml version="1.0" encoding="UTF-8"?>
<svg width="386px" height="386px" viewBox="0 0 386 386" version="1.1" xmlns="http://www.w3.org/2000/svg" xmlns:xlink="http://www.w3.org/1999/xlink">
    <title>Competitive Salary</title>
    <g id="Competitive-Salary" stroke="none" stroke-width="1" fill="none" fill-rule="evenodd">
        <g id="Group" transform="translate(54.000000, 49.000000)" fill="#E4002B" fill-rule="nonzero">
            <g transform="translate(0.000000, 28.000000)">
                <g transform="translate(31.522446, 0.000000)">
                    <path d="M26.0115485,52.4312445 C11.9052537,52.4312445 0.425829538,40.8884466 0.425829538,26.7042762 C0.425829538,12.5201057 11.9052537,0.977307832 26.0115485,0.977307832 C40.1178432,0.977307832 51.5972674,12.5201057 51.5972674,26.7042762 C51.5972674,40.8884466 40.1178432,52.4312445 26.0115485,52.4312445 Z M26.0115485,9.85231949 C16.7649642,9.85231949 9.25211451,17.4066449 9.25211451,26.7042762 C9.25211451,36.0019074 16.7649642,43.5562328 26.0115485,43.5562328 C35.2581327,43.5562328 42.7709824,36.0019074 42.7709824,26.7042762 C42.7709824,17.4066449 35.2581327,9.85231949 26.0115485,9.85231949 Z" id="Shape"></path>
                    <path d="M48.1035296,258.854507 C48.0772609,258.854507 48.0247235,258.854507 47.9984548,258.854507 C45.5554652,258.801679 43.6378497,256.767823 43.6903871,254.33776 L48.0509922,68.5436169 C48.0772609,67.275758 48.6289037,66.0871404 49.6008458,65.2947287 C50.5465192,64.4759032 51.807417,64.106111 53.0420462,64.2645934 L55.1172739,64.5551444 C73.8993982,67.1172757 88.6624105,65.0041777 107.759759,57.0800601 C110.018868,56.1555797 112.566932,57.2121288 113.512606,59.4837091 C114.43201,61.7552895 113.381262,64.3174208 111.122154,65.2683149 C91.6570429,73.3509148 75.6856701,75.833805 56.7459336,73.6678795 L52.5166721,254.54907 C52.437866,256.952719 50.4677131,258.854507 48.1035296,258.854507 Z" id="Path"></path>
                    <path d="M68.9608816,53.0123464 C60.8963891,53.0123464 52.7793591,52.193521 44.767404,50.5294563 L38.2790338,49.1823563 C35.8885817,48.6804955 34.3649967,46.3560877 34.8378334,43.9524387 C35.3369388,41.5487897 37.6485849,40.0167937 40.0390371,40.4922407 L46.5274073,41.8393407 C68.120283,46.2768465 90.3436077,44.2429897 110.78066,35.8962525 L119.002765,32.5417094 C125.491135,29.9003369 132.820104,32.5945369 136.051155,38.8545897 C137.180709,41.0205152 136.340111,43.6883015 134.186077,44.8240916 C132.032043,45.9598818 129.378904,45.1146426 128.249349,42.9487172 C127.119795,40.7827917 124.571731,39.8318976 122.312622,40.756378 L114.090517,44.1109211 C99.6427293,50.0275955 84.3543429,53.0123464 68.9608816,53.0123464 Z" id="Path"></path>
                </g>
                <path d="M28.8485686,146.965967 C27.5351334,146.965967 26.1954294,146.754657 24.8819941,146.358451 C21.3619876,145.275489 18.4986988,142.87184 16.8175016,139.596538 C16.7649642,139.490883 16.7124268,139.385228 16.6598894,139.279573 L3.36792453,107.451034 C-0.0995445673,100.609879 -0.125813273,92.4216244 3.28911841,85.5276422 L18.6300423,54.5443425 C20.9154196,49.9483543 24.7243819,46.2504328 29.3739427,44.1373348 L40.5118738,39.0658995 C42.718445,38.062178 45.3453155,39.0394858 46.3435264,41.2846525 C47.3417372,43.5034054 46.3697951,46.1447779 44.1369551,47.1484995 L32.9990241,52.2199347 C30.1882726,53.4877935 27.8766265,55.7329601 26.5106539,58.5064013 L11.16973,89.4897009 C8.98942746,93.900793 9.01569616,99.1835381 11.2748048,103.568216 C11.3273422,103.673871 11.3798796,103.779526 11.432417,103.885181 L24.7243819,135.687306 C25.3285621,136.770269 26.3005042,137.562681 27.4563273,137.906059 C28.6909564,138.275851 29.978123,138.143783 31.1076773,137.536267 C33.3667859,136.294822 34.2073845,133.44214 32.9990241,131.144146 C32.920218,131.012077 32.8676805,130.853595 32.7888744,130.695112 L20.8103448,100.530638 C20.3375081,99.3156067 20.3900455,97.9685067 21.0204945,96.8063028 L33.5243982,73.1924325 C34.6539525,71.026507 37.3333604,70.2076815 39.4873943,71.3698855 C41.6414281,72.5056756 42.455758,75.1998756 41.2999349,77.3658011 L29.7679733,99.1571243 L40.9059044,127.2085 C44.1894925,133.706277 41.7465029,141.762463 35.3632075,145.275489 C33.3142485,146.384865 31.0814086,146.965967 28.8485686,146.965967 Z" id="Path"></path>
                <path d="M34.8641021,258.854507 C32.5261874,258.854507 30.5823032,257.005546 30.4772284,254.628311 L26.1166233,154.78443 C26.0115485,152.354367 27.9028953,150.267683 30.3196161,150.162028 C32.736337,150.056373 34.8115647,151.958161 34.9166396,154.388224 L39.2772446,254.232105 C39.3823195,256.662168 37.4909727,258.748852 35.0742518,258.854507 C34.9954457,258.854507 34.9166396,258.854507 34.8641021,258.854507 Z" id="Path"></path>
                <path d="M57.3501139,258.854507 C57.3501139,258.854507 57.3501139,258.854507 57.3501139,258.854507 C54.9071243,258.854507 52.9369714,256.873477 52.9369714,254.417001 L52.9632401,148.577204 C52.9632401,146.120728 54.933393,144.139698 57.3763826,144.139698 C57.3763826,144.139698 57.3763826,144.139698 57.3763826,144.139698 C59.8193722,144.139698 61.789525,146.120728 61.789525,148.577204 L61.7632563,254.417001 C61.7632563,256.873477 59.7931034,258.854507 57.3501139,258.854507 Z" id="Path"></path>
            </g>
            <path d="M180.056176,284.973568 C177.230106,284.973568 174.351212,283.889849 172.159027,282.013165 C169.702723,279.898591 168.276482,276.991052 168.25007,274.004217 L168.170835,252.990641 C154.11972,251.219685 140.596843,246.435462 131.352689,239.906716 C127.470144,237.15777 125.991079,232.056361 127.70785,227.219274 L134.178759,208.875347 C135.314469,205.650622 137.823597,203.165998 141.072257,202.082279 C144.268093,200.99856 147.860107,201.474339 150.686177,203.324591 C160.062391,209.509719 172.05338,213.05163 183.64819,213.05163 C183.753838,213.05163 183.833074,213.05163 183.938721,213.05163 C190.436041,213.025198 196.141005,211.359971 199.970726,208.346704 C203.509916,205.571326 205.385159,201.712229 205.358747,197.21876 C205.332335,192.831019 205.305924,184.637046 181.37677,175.0686 C170.336608,170.786589 156.259082,164.654325 145.879217,155.191608 C134.812643,145.094518 129.39821,132.882855 129.318975,117.84295 C129.186915,92.3887689 144.901978,72.3531832 170.574315,64.8464466 L170.468668,38.9164867 C170.442256,32.7577908 174.905862,28.1057287 180.874944,28.0792965 L197.804953,28 C197.831364,28 197.831364,28 197.857776,28 C203.932506,28 208.713055,32.7049265 208.739467,38.7578937 L208.818702,62.282526 C219.911688,63.8155919 230.26514,67.2517741 238.954646,72.3003188 C243.655958,75.0228325 245.716084,80.6793171 243.81443,85.7278618 L237.079403,103.781035 C235.943692,106.820734 233.566624,109.173198 230.529259,110.283349 C227.491894,111.3935 224.137587,111.129178 221.311517,109.516816 C217.217677,107.217217 207.709404,101.825054 192.654638,101.825054 C192.548991,101.825054 192.443343,101.825054 192.337696,101.825054 C181.139063,101.877918 174.45686,106.556413 174.509684,114.353903 C174.536095,120.248277 176.43775,124.873907 201.634674,135.156022 C221.126634,143.006377 234.438216,152.601255 242.361777,164.4693 C250.021219,175.940862 250.945634,187.465288 250.999234,195.104186 C251.130518,221.139875 234.385392,242.549933 208.07917,250.532449 L208.184817,273.819192 C208.211229,279.898591 203.351445,284.894271 197.329539,284.920703 L180.135412,285 C180.109,284.973568 180.082588,284.973568 180.056176,284.973568 Z M144.585035,210.355549 C144.347328,210.355549 144.109622,210.381981 143.898327,210.461277 C143.264442,210.672735 142.762616,211.174946 142.524909,211.809318 L136.054001,230.153245 C135.763471,230.972642 135.710647,232.135658 136.450179,232.664301 C145.324568,238.955158 158.953092,243.395763 172.924971,244.58521 C175.196392,244.770236 176.965987,246.673352 176.965987,248.972951 L177.071635,273.951352 C177.071635,274.850046 178.577111,276.11879 180.029764,276.11879 C180.029764,276.11879 180.029764,276.11879 180.029764,276.11879 L197.223891,276.039494 C197.937012,276.039494 198.386014,275.722308 198.650132,275.431554 C199.046311,275.008639 199.257605,274.453564 199.257605,273.845624 L199.151958,247.175563 C199.151958,245.140286 200.525375,243.36933 202.506265,242.867119 C226.673126,236.78772 242.203306,218.047311 242.098194,195.15705 C242.071246,188.099661 241.226066,178.769104 234.966453,169.385683 C228.152191,159.182865 215.817848,150.433817 198.280366,143.376427 C198.280366,143.376427 198.253954,143.376427 198.253954,143.376427 C173.294738,133.173609 165.661707,126.406973 165.608883,114.406767 C165.55606,104.574 172.502381,93.0760053 192.25846,92.9702767 C209.822353,92.8909802 220.888927,99.1289725 225.616651,101.798622 C226.171301,102.115808 226.831597,102.168672 227.43907,101.957215 C228.046543,101.745757 228.521957,101.269978 228.733252,100.662038 L235.468279,82.6088656 C235.838045,81.6308752 235.389043,80.4942919 234.438216,79.9392163 C225.801534,74.9435359 215.263198,71.7188111 203.906095,70.6086599 C201.634674,70.3972025 199.917902,68.4940862 199.917902,66.2209195 L199.812255,38.7578937 C199.812255,38.2028181 199.627372,37.727039 199.257605,37.3834208 C198.887839,37.0133704 198.33319,36.8283452 197.752129,36.8283452 L180.82212,36.9076417 C180.425942,36.9076417 179.210996,36.9076417 179.237408,38.8636223 L179.343056,68.2297645 C179.343056,70.2914738 177.943227,72.0624293 175.962336,72.5382084 C152.13883,78.3004217 137.982068,95.2170112 138.087715,117.790085 C138.140539,130.213206 142.630557,140.310295 151.769064,148.636429 C161.066042,157.121156 174.166329,162.804073 184.546194,166.821763 C205.517219,175.200761 214.074664,184.002674 214.1539,197.165895 C214.180312,204.381878 211.063711,210.831328 205.385159,215.298365 C199.944314,219.580376 192.522579,221.853543 183.938721,221.879975 C183.833074,221.879975 183.727426,221.879975 183.621779,221.879975 C170.336608,221.879975 156.549612,217.809421 145.773569,210.699167 C145.430215,210.48771 145.007625,210.355549 144.585035,210.355549 Z" id="Shape"></path>
            <g transform="translate(238.000000, 8.000000)" id="Path">
                <path d="M19.8895877,12.0468313 C17.60587,12.0468313 15.74703,10.2071701 15.74703,7.94701482 L15.74703,4.21513056 C15.74703,1.9549753 17.60587,0.115314044 19.8895877,0.115314044 C22.1733054,0.115314044 24.0321454,1.9549753 24.0321454,4.21513056 L24.0321454,7.94701482 C24.0587002,10.2071701 22.1998602,12.0468313 19.8895877,12.0468313 Z"></path>
                <path d="M19.8895877,37.6444037 C17.60587,37.6444037 15.74703,35.8047424 15.74703,33.5445872 L15.74703,29.8127029 C15.74703,27.5525476 17.60587,25.7128864 19.8895877,25.7128864 C22.1733054,25.7128864 24.0321454,27.5525476 24.0321454,29.8127029 L24.0321454,33.5445872 C24.0587002,35.8047424 22.1998602,37.6444037 19.8895877,37.6444037 Z"></path>
                <path d="M8.8427673,22.9796754 L5.07197764,22.9796754 C2.78825996,22.9796754 0.929419986,21.1400141 0.929419986,18.8798589 C0.929419986,16.6197036 2.78825996,14.7800423 5.07197764,14.7800423 L8.8427673,14.7800423 C11.126485,14.7800423 12.9853249,16.6197036 12.9853249,18.8798589 C12.9853249,21.1400141 11.1530398,22.9796754 8.8427673,22.9796754 Z"></path>
                <path d="M34.7071978,22.9796754 L30.9364081,22.9796754 C28.6526904,22.9796754 26.7938505,21.1400141 26.7938505,18.8798589 C26.7938505,16.6197036 28.6526904,14.7800423 30.9364081,14.7800423 L34.7071978,14.7800423 C36.9909154,14.7800423 38.8497554,16.6197036 38.8497554,18.8798589 C38.8497554,21.1400141 37.0174703,22.9796754 34.7071978,22.9796754 Z"></path>
            </g>
            <g transform="translate(110.000000, 8.000000)" id="Path">
                <path d="M19.8155136,12.0993931 C17.5317959,12.0993931 15.672956,10.2597318 15.672956,7.99957657 L15.672956,4.26769231 C15.672956,2.00753705 17.5317959,0.167875794 19.8155136,0.167875794 C22.0992313,0.167875794 23.9580713,2.00753705 23.9580713,4.26769231 L23.9580713,7.99957657 C23.9846261,10.2597318 22.1257862,12.0993931 19.8155136,12.0993931 Z"></path>
                <path d="M19.8155136,37.6969654 C17.5317959,37.6969654 15.672956,35.8573042 15.672956,33.5971489 L15.672956,29.8652646 C15.672956,27.6051094 17.5317959,25.7654481 19.8155136,25.7654481 C22.0992313,25.7654481 23.9580713,27.6051094 23.9580713,29.8652646 L23.9580713,33.5971489 C23.9846261,35.8573042 22.1257862,37.6969654 19.8155136,37.6969654 Z"></path>
                <path d="M8.76869322,23.0322371 L4.99790356,23.0322371 C2.71418588,23.0322371 0.855345912,21.1925759 0.855345912,18.9324206 C0.855345912,16.6722653 2.71418588,14.8326041 4.99790356,14.8326041 L8.76869322,14.8326041 C11.0524109,14.8326041 12.9112509,16.6722653 12.9112509,18.9324206 C12.9112509,21.1925759 11.0789658,23.0322371 8.76869322,23.0322371 Z"></path>
                <path d="M34.6331237,23.0322371 L30.862334,23.0322371 C28.5786164,23.0322371 26.7197764,21.1925759 26.7197764,18.9324206 C26.7197764,16.6722653 28.5786164,14.8326041 30.862334,14.8326041 L34.6331237,14.8326041 C36.9168414,14.8326041 38.7756813,16.6722653 38.7756813,18.9324206 C38.7756813,21.1925759 36.9433962,23.0322371 34.6331237,23.0322371 Z"></path>
            </g>
            <ellipse id="Oval" transform="translate(267.161383, 108.418140) rotate(-75.398169) translate(-267.161383, -108.418140) " cx="267.161383" cy="108.41814" rx="5.36235949" ry="5.34441593"></ellipse>
            <ellipse id="Oval" transform="translate(213.893974, 7.101994) rotate(-76.714204) translate(-213.893974, -7.101994) " cx="213.893974" cy="7.10199426" rx="5.36238844" ry="5.34400387"></ellipse>
        </g>
    </g>
</svg>