<?xml version="1.0" encoding="UTF-8"?>
<svg width="386px" height="386px" viewBox="0 0 386 386" version="1.1" xmlns="http://www.w3.org/2000/svg" xmlns:xlink="http://www.w3.org/1999/xlink">
    <title>development opportunities</title>
    <g id="development-opportunities" stroke="none" stroke-width="1" fill="none" fill-rule="evenodd">
        <g id="Group" transform="translate(114.000000, 20.000000)" fill="#E4002B" fill-rule="nonzero">
            <path d="M67.3145989,56.5 C68.1759457,56.5 69.0183005,56.7436446 69.7535079,57.1926647 L69.9707675,57.3334938 L88.5,70.4120044 L107.029606,57.33323 C107.725269,56.841256 108.56992,56.5551603 109.427782,56.5072089 L109.685401,56.5 L122.187034,56.5 C127.513803,56.5 132.341816,58.6690308 135.838223,62.1719731 C139.23506,65.5751602 141.375197,70.2374605 141.494717,75.393769 L141.5,75.85 L141.5,133.25 C141.5,134.524127 140.988379,135.674494 140.158273,136.506152 C139.383821,137.282051 138.332407,137.780246 137.162065,137.843224 L136.909515,137.85 L121.58722,137.85 L121.58722,235.9 C121.58722,237.174127 121.075599,238.324494 120.245493,239.156152 C119.471041,239.932051 118.419627,240.430246 117.249285,240.493224 L116.996735,240.5 L95.5618004,240.5 C94.2905233,240.5 93.1428119,239.987472 92.3130426,239.156152 C91.5382768,238.379938 91.0409469,237.326093 90.9780797,236.153118 L90.9713153,235.9 L90.9713153,159.225 C90.9713153,158.283304 90.470793,157.686285 90.160733,157.406737 C89.7859219,157.062518 89.1308558,156.683663 88.2238751,156.777664 C87.7465472,156.827135 87.1388194,157.224428 86.6837944,157.836604 C86.3393722,158.299978 86.0896386,158.867583 86.0383944,159.419149 L86.0286847,159.625 L86.0286847,235.9 C86.0286847,237.174127 85.5170636,238.324494 84.6869574,239.156152 C83.912506,239.932051 82.8610918,240.430246 81.6907499,240.493224 L81.4381996,240.5 L60.0032649,240.5 C58.7319879,240.5 57.5842765,239.987472 56.7545072,239.156152 C55.9797414,238.379938 55.4824115,237.326093 55.4195442,236.153118 L55.4127799,235.9 L55.4127799,137.85 L40.0904851,137.85 C38.819208,137.85 37.6714966,137.337472 36.8417273,136.506152 C36.0669615,135.729938 35.5696316,134.676093 35.5067644,133.503118 L35.5,133.25 L35.5,75.85 C35.5,70.5128026 37.6650326,65.6752539 41.1617775,62.1719731 C44.5582871,58.7691149 49.2113973,56.6250335 54.357627,56.5052924 L54.8129664,56.5 L67.3145989,56.5 Z M65.8014561,65.75 L54.7630597,65.75 L54.4165703,65.7558906 C51.7708495,65.8459702 49.3768055,66.9635541 47.6218629,68.7217769 C45.7909568,70.5561052 44.6560168,73.087444 44.6560168,75.875 L44.6560168,75.875 L44.6560168,128.65 L55.5,128.65 L55.5,97.1 L55.5066413,96.8466692 C55.5683662,95.6726836 56.0566944,94.6176345 56.8184335,93.8406607 C57.6310414,93.0118006 58.7547977,92.5 60,92.5 C61.2452023,92.5 62.3689586,93.0118006 63.1815665,93.8406607 C63.9977155,94.6731326 64.5,95.8248237 64.5,97.1 L64.5,97.1 L64.5011207,132.45456 L64.5384524,132.715268 C64.5585045,132.890646 64.5687966,133.069076 64.5687966,133.25 L64.5687966,133.25 L64.5687966,231.3 L76.7978078,231.3 L76.7978078,159.625 L76.8034317,159.26242 C76.8931789,156.368581 78.0514659,153.644445 79.8737949,151.551326 C81.7643367,149.379857 84.3721436,147.884863 87.2520645,147.59753 C90.5552387,147.2618 93.8337372,148.340285 96.2746123,150.545974 C98.7152324,152.751432 100.102379,155.91597 100.102379,159.2 L100.102379,159.2 L100.102379,231.3 L112.381297,231.3 L112.381297,125.7 L112.388911,125.43124 C112.404073,125.164481 112.44168,124.903928 112.49994,124.651451 L112.49994,124.651451 L112.5,97.1000011 L112.506641,96.8466701 C112.568366,95.6726836 113.056694,94.6176345 113.818433,93.8406607 C114.631041,93.0118006 115.754798,92.5 117,92.5 C118.245202,92.5 119.368959,93.0118006 120.181567,93.8406607 C120.997715,94.6731326 121.5,95.8248237 121.5,97.1 L121.5,97.1 L121.501396,124.945117 L121.534987,125.192791 C121.553023,125.359304 121.562267,125.528531 121.562267,125.7 L121.562267,125.7 L121.562267,128.65 L132.269123,128.65 L132.269123,75.875 L132.263244,75.5279218 C132.173337,72.8777092 131.057895,70.4796749 129.303277,68.7217769 C127.472033,66.8871096 124.944905,65.75 122.16208,65.75 L122.16208,65.75 L111.09873,65.75 L91.106191,79.8665563 L90.8851746,80.0133161 C90.1383971,80.4792494 89.2942993,80.7125 88.4500933,80.7125 C87.5214667,80.7125 86.592971,80.4302667 85.7938457,79.8664505 L85.7938457,79.8664505 L65.8014561,65.75 Z" id="Combined-Shape" stroke="#FFFFFF"></path>
            <path d="M88.5,53 C73.9036087,53 62,41.1215575 62,26.5 C62,11.8784425 73.8784425,0 88.5,0 C103.121557,0 115,11.8784425 115,26.5 C115,41.0963913 103.121557,53 88.5,53 Z M88.5,10.2929725 C79.5660019,10.2929725 72.2929725,17.5660019 72.2929725,26.5 C72.2929725,35.4339981 79.5660019,42.7070275 88.5,42.7070275 C97.4339981,42.7070275 104.707028,35.4339981 104.707028,26.5 C104.707028,17.5660019 97.4339981,10.2929725 88.5,10.2929725 Z" id="Shape" stroke="#FFFFFF" stroke-width="2"></path>
            <path d="M130.249676,322 L45.7752944,322 C43.3032389,322 41.180767,320.212054 40.7562726,317.77846 L27.0725714,238.934989 C26.8228688,237.469866 27.222393,235.955078 28.196233,234.812779 C29.1700731,233.67048 30.5933777,233 32.0915932,233 L143.908407,233 C145.406622,233 146.829927,233.67048 147.803767,234.812779 C148.777607,235.955078 149.177131,237.469866 148.927429,238.934989 L135.243727,317.77846 C134.844203,320.236886 132.721731,322 130.249676,322 Z M47.8220255,314.868304 L128.496706,314.868304 L141.159366,240.868304 L35.1593658,240.868304 L47.8220255,314.868304 Z" id="Shape"></path>
            <path d="M59.85743,240 C42.7071491,240 28.8307837,234.616577 18.5557255,224.025005 C-0.961848234,203.868467 -0.0300414856,172.243985 0.0203264467,170.916909 C0.070694379,169.464636 0.750661465,168.112521 1.85875598,167.186071 C2.96685049,166.259622 4.45270449,165.833956 5.88819056,166.059308 C66.2541574,174.647746 65.0201431,234.466342 64.9949591,235.067282 C64.9194072,237.821592 62.6528503,240 59.85743,240 Z M6,172 C6.73393273,181.796362 10.3072643,205.42472 22.6530612,218.275862 C30.1496598,226.044483 44.7852625,231.972962 57,233 C56.3233408,224.858351 50.9393569,202.690088 39.3061224,188.827586 C32.0125212,180.136318 20.6665796,175.338734 6,172 Z" id="Shape"></path>
            <path d="M52.5690643,239 C51.6329028,239 50.7134585,238.526582 50.0447717,237.620913 L31.889926,213.044342 C30.6194212,211.33592 30.7197242,208.660079 32.1239664,207.095742 C33.5114914,205.531404 35.6680062,205.654904 36.9552283,207.383909 L55.110074,231.96048 C56.3805788,233.668901 56.2802758,236.344742 54.8760336,237.90908 C54.224064,238.650082 53.4049227,239 52.5690643,239 Z" id="Path" transform="translate(43.500000, 222.500000) rotate(-5.000000) translate(-43.500000, -222.500000) "></path>
            <path d="M122.179645,239 C119.396686,239 117.09442,236.84859 117.018521,234.103688 C116.563128,220.181347 124.355413,192.658139 157.093133,188.058573 C158.535212,187.836014 160.02789,188.256404 161.141074,189.171371 C162.279557,190.086339 162.937348,191.421696 162.987947,192.85597 C163.013247,193.746208 163.671037,214.741 150.414031,228.193493 C143.355435,235.389588 133.868074,239 122.179645,239 Z M157.694964,193.539697 C130.102372,200.867942 123.324594,222.20806 121.694964,233.539697 C130.769038,232.318323 138.25052,228.993472 143.991261,223.565143 C153.398668,214.676254 156.62089,201.885753 157.694964,193.539697 Z" id="Shape"></path>
        </g>
    </g>
</svg>