<?xml version="1.0" encoding="UTF-8"?>
<svg width="28px" height="24px" viewBox="0 0 28 24" version="1.1" xmlns="http://www.w3.org/2000/svg" xmlns:xlink="http://www.w3.org/1999/xlink">
    <title>fast_fact_icon</title>
    <defs>
        <polygon id="path-1" points="-9.93464007e-16 0 22.0813982 0 22.0813982 16.8723526 -9.93464007e-16 16.8723526"></polygon>
    </defs>
    <g id="Page-1" stroke="none" stroke-width="1" fill="none" fill-rule="evenodd">
        <g id="superior_project_layout" transform="translate(-1196.000000, -878.000000)">
            <g id="fast_fact_icon" transform="translate(1196.000000, 878.125000)">
                <path d="M21.4262128,23 L0.838905775,23 C0.375270517,23 1.98692801e-14,22.6241702 1.98692801e-14,22.1610942 L1.98692801e-14,1.57322796 C1.98692801e-14,1.11015198 0.375270517,0.734322188 0.838905775,0.734322188 L17.9939696,0.734322188 C18.4570456,0.734322188 18.8328754,1.11015198 18.8328754,1.57322796 C18.8328754,2.03686322 18.4570456,2.41213374 17.9939696,2.41213374 L1.67781155,2.41213374 L1.67781155,21.3221884 L20.587307,21.3221884 L20.587307,14.0740426 C20.587307,13.6104073 20.9631368,13.2351368 21.4262128,13.2351368 C21.8892888,13.2351368 22.2651185,13.6104073 22.2651185,14.0740426 L22.2651185,22.1610942 C22.2651185,22.6241702 21.8892888,23 21.4262128,23" id="Fill-1" fill="#FFFFFF"></path>
                <g id="Group-5" transform="translate(5.208207, 0.000000)">
                    <mask id="mask-2" fill="white">
                        <use xlink:href="#path-1"></use>
                    </mask>
                    <g id="Clip-4"></g>
                    <path d="M6.04655319,16.8723526 L6.04655319,16.8723526 C5.82396353,16.8723526 5.61088146,16.7839878 5.45316717,16.6268328 L0.245799392,11.4183465 C-0.0819331307,11.090614 -0.0819331307,10.559307 0.245799392,10.2315745 C0.573531915,9.90440122 1.10539818,9.90440122 1.43257143,10.2315745 L6.04655319,14.8466748 L20.6496657,0.245799392 C20.9773982,-0.0819331307 21.5081459,-0.0819331307 21.8358784,0.245799392 C22.1636109,0.572972644 22.1636109,1.10427964 21.8358784,1.43201216 L6.63993921,16.6268328 C6.48222492,16.7839878 6.26914286,16.8723526 6.04655319,16.8723526" id="Fill-3" fill="#FFFFFF" mask="url(#mask-2)"></path>
                </g>
            </g>
        </g>
    </g>
</svg>