<?xml version="1.0" encoding="UTF-8"?>
<svg width="386px" height="386px" viewBox="0 0 386 386" version="1.1" xmlns="http://www.w3.org/2000/svg" xmlns:xlink="http://www.w3.org/1999/xlink">
    <title>Gym</title>
    <g id="Gym" stroke="none" stroke-width="1" fill="none" fill-rule="evenodd">
        <g id="Group" transform="translate(42.000000, 42.000000)" fill="#E4002B" fill-rule="nonzero">
            <g id="Path">
                <path d="M162.930662,301.679362 C150.890493,301.679362 138.480994,300.569462 125.702165,298.324997 C88.9168632,291.887576 60.6015376,278.05082 51.3190351,273.512561 C50.2602882,272.994608 49.4231394,272.575312 49.0045651,272.402661 C44.9419314,270.602156 36.2749795,268.555007 25.2443135,266.729837 C9.36310911,264.14007 -1.74142296,249.242743 0.499181076,233.556153 C0.597669165,232.791555 0.745401299,232.002293 0.917755456,231.262359 L26.5492807,80.4885802 C26.5492807,80.4145868 26.5739027,80.3405935 26.5985247,80.2912646 L34.0097535,46.2543245 C35.8317831,37.8684117 41.174762,30.6910569 48.6598567,26.5474294 L90.5172947,3.38751146 C99.2088686,-1.42205617 110.190291,0.995059867 116.099576,8.98634146 C116.14882,9.06033481 116.198064,9.13432816 116.247308,9.20832151 L137.643845,41.9133814 C142.32203,49.0660717 140.573866,58.5865492 133.630456,63.5934324 L109.156166,81.2531781 C105.536728,83.8676098 100.661568,83.9169387 96.9682645,81.4011648 L84.0909469,72.5959564 C80.1514233,69.9075314 78.4771258,64.8513193 80.0529352,60.3377251 L87.6118961,38.5836807 C88.4490448,36.1665647 91.0836012,34.8840133 93.4965594,35.747269 C95.9095176,36.5858603 97.1898627,39.2249564 96.328092,41.6420724 L88.7691311,63.3961168 C88.5721549,63.9880636 88.7691311,64.6293392 89.2861936,64.9746415 L102.163511,73.77985 C102.63133,74.1004878 103.271502,74.1004878 103.739321,73.7551855 L128.213611,56.0954398 C131.119009,53.9989616 131.85767,50.0033208 129.887908,46.9942579 L108.565237,14.4125203 C105.388996,10.2195639 99.5781989,8.96167701 94.9492587,11.5021153 L53.0918208,34.6620333 C47.9211961,37.5231094 44.2525147,42.4559993 42.9967916,48.2274804 L35.6101849,82.1410983 L10.0032817,232.914877 C9.97865967,232.988871 9.97865967,233.087528 9.95403765,233.161522 C9.83092754,233.728804 9.73243945,234.296086 9.63395136,234.838704 C8.08276395,245.56774 15.7648349,255.778822 26.7216348,257.579327 C35.1669885,258.960536 46.5177408,261.180336 52.6978684,263.893426 C53.2887969,264.14007 54.1013237,264.559366 55.3324248,265.151313 C64.344085,269.566249 91.7483958,282.959045 127.253352,289.174486 C172.016189,296.993117 211.879243,290.481702 245.734523,269.812894 C254.721562,264.337386 265.038189,261.426981 275.601036,261.426981 L276.191965,261.426981 C278.752655,261.426981 280.820905,263.498795 280.820905,266.063897 C280.820905,268.629 278.752655,270.700814 276.191965,270.700814 L275.601036,270.700814 C266.737108,270.700814 258.070157,273.142594 250.535818,277.730182 C224.485718,293.663416 195.111646,301.679362 162.930662,301.679362 Z"></path>
                <path d="M87.7596282,201.591027 C87.513408,201.591027 87.2671877,201.566362 87.0455895,201.541698 C84.5341433,201.147067 82.8106017,198.779279 83.2045541,196.238841 C86.7993693,173.424225 80.1760453,156.87438 73.7743195,140.891817 C66.4615789,122.61546 59.5427906,105.350345 70.7704328,83.1770052 C71.9276678,80.9078758 74.7099564,79.9952912 76.9751824,81.1545203 C79.2404085,82.3137494 80.1514233,85.1008322 78.9941882,87.3699616 C69.6624418,105.794305 75.2516408,119.779048 82.3181613,137.463458 C88.8676192,153.815988 96.2788479,172.363654 92.2900803,197.694044 C91.969994,199.963173 90.0002322,201.591027 87.7596282,201.591027 Z"></path>
                <path d="M59.3211924,222.087184 C58.2870675,222.087184 57.2529425,221.741882 56.3911717,221.026613 C54.42141,219.398759 54.1259457,216.513018 55.7509992,214.539863 C56.7358801,213.355969 80.2991554,185.213832 137.496113,183.561314 C140.056804,183.487321 142.174298,185.509806 142.248164,188.050244 C142.32203,190.615347 140.303024,192.736489 137.766956,192.810483 C110.190291,193.599745 91.3051994,201.073073 80.3237774,207.189857 C68.4313407,213.799929 62.9652517,220.336008 62.9160077,220.410001 C61.9803708,221.519902 60.6507816,222.087184 59.3211924,222.087184 Z"></path>
                <g transform="translate(150.492238, 130.721582)">
                    <path d="M48.2880887,84.3362343 C47.1062316,84.3362343 45.9243745,83.8922742 45.0133597,82.9796896 L35.2384168,73.1879032 C33.4410092,71.3873984 33.4410092,68.4523289 35.2384168,66.6518241 C37.0358245,64.8513193 39.9658451,64.8513193 41.7632527,66.6518241 L48.2634666,73.1632387 L107.23321,14.0918825 C109.030618,12.2913777 111.960638,12.2913777 113.758046,14.0918825 C115.555454,15.8923873 115.555454,18.8274568 113.758046,20.6279616 L51.5628176,82.9796896 C50.6518028,83.8676098 49.4699457,84.3362343 48.2880887,84.3362343 Z"></path>
                    <path d="M59.2202666,118.274517 C26.9161733,118.274517 0.644475458,91.9575492 0.644475458,59.5977916 C0.644475458,27.238034 26.9161733,0.921066519 59.2202666,0.921066519 C68.7982332,0.921066519 78.2777118,3.28885366 86.6738215,7.75311899 C88.9144255,8.96167701 89.7761963,11.7487598 88.5943392,14.0178891 C87.3878601,16.262354 84.6055716,17.1256098 82.3403455,15.9417162 C75.2738251,12.1680554 67.2716679,10.1948995 59.2202666,10.1948995 C32.0129319,10.1948995 9.87773383,32.3682395 9.87773383,59.622456 C9.87773383,86.8766726 32.0129319,109.050013 59.2202666,109.050013 C86.4276012,109.050013 108.562799,86.8766726 108.562799,59.622456 C108.562799,56.6133932 108.291957,53.6289948 107.750273,50.6939254 C107.282454,48.1781515 108.956752,45.7610355 111.468198,45.3170754 C113.979644,44.8484508 116.392602,46.5256334 116.835799,49.0414072 C117.475971,52.5190946 117.796058,56.0707753 117.796058,59.622456 C117.796058,91.9575492 91.5243598,118.274517 59.2202666,118.274517 Z"></path>
                </g>
            </g>
            <path d="M76.9070017,89 C73.0335281,89 69.1600545,87.8796771 65.7523784,85.6390314 L55.0880682,78.5934453 C52.9552061,77.1743696 52.3668304,74.2864262 53.7397071,72.1204686 C55.1370995,69.9545111 57.9809155,69.3570055 60.1137776,70.7511851 L70.7780878,77.7967712 C74.749624,80.435754 79.9714586,80.2365855 83.7468696,77.2988499 L91.5673638,71.0250418 C93.5531319,69.4316937 96.4459792,69.7802386 98.0149812,71.7968198 C99.5839832,73.813401 99.240764,76.7511365 97.2549959,78.3444846 L89.4099861,84.6431888 C89.3854704,84.6680849 89.3854704,84.6680849 89.3609548,84.6929809 C85.7081221,87.5560283 81.3198197,89 76.9070017,89 Z" id="Path"></path>
        </g>
    </g>
</svg>