<?xml version="1.0" encoding="UTF-8"?>
<svg width="386px" height="386px" viewBox="0 0 386 386" version="1.1" xmlns="http://www.w3.org/2000/svg" xmlns:xlink="http://www.w3.org/1999/xlink">
    <title>Health &amp; Wellness</title>
    <g id="Health-&amp;-Wellness" stroke="none" stroke-width="1" fill="none" fill-rule="evenodd">
        <g id="Group" transform="translate(40.000000, 32.000000)" fill="#E4002B" fill-rule="nonzero">
            <g transform="translate(14.000000, 101.000000)">
                <g>
                    <path d="M143.57592,63.7963165 C126.146595,63.7963165 111.934993,49.6996392 111.934993,32.3453264 C111.934993,14.9910136 126.116802,0.894336298 143.57592,0.894336298 C161.005244,0.894336298 175.216846,14.9910136 175.216846,32.3453264 C175.216846,49.6996392 161.005244,63.7963165 143.57592,63.7963165 Z M143.57592,10.1637901 C131.241321,10.1637901 121.230632,20.1143858 121.230632,32.3749413 C121.230632,44.6354967 131.241321,54.5860925 143.57592,54.5860925 C155.910518,54.5860925 165.921207,44.6354967 165.921207,32.3749413 C165.921207,20.1143858 155.880725,10.1637901 143.57592,10.1637901 Z" id="Shape"></path>
                    <path d="M177.272613,140.913433 C174.710353,140.913433 172.624793,138.840393 172.624793,136.293514 L172.624793,85.1782514 C172.624793,83.8455823 173.190874,82.572143 174.20386,81.7133118 C175.216846,80.8248657 176.557564,80.4398725 177.868487,80.6175617 L180.520128,80.9729401 C204.653038,84.2009607 223.601842,81.5652375 248.122071,71.4961822 L271.241995,62.0194244 C273.059411,61.2790527 274.459716,59.8279241 275.115178,57.9918023 C275.800433,56.1556805 275.651465,54.1714843 274.757653,52.4242071 C273.089205,49.2554162 269.305403,47.8635174 265.968507,49.2258013 L255.481119,53.4607275 C227.564406,64.7143774 197.174816,67.498175 167.649243,61.4863568 L159.366589,59.7983093 C156.863917,59.2948565 155.225263,56.8368225 155.76155,54.3491735 C156.268043,51.8615246 158.740921,50.2327068 161.243593,50.7657745 L169.526247,52.4538219 C197.264197,58.1102618 225.776783,55.5041534 251.995254,44.9316454 L262.482642,40.6967192 C270.288596,37.5575432 279.107536,40.7855639 282.980719,48.1892809 C285.096073,52.1872881 285.39401,56.9256671 283.844737,61.1902081 C282.295463,65.4547491 278.988361,68.860459 274.787447,70.6077362 L251.667523,80.084494 C226.700389,90.3312385 206.291693,93.4111848 181.890639,90.5089277 L181.890639,136.352744 C181.920433,138.840393 179.834873,140.913433 177.272613,140.913433 Z" id="Path"></path>
                    <path d="M108.419334,140.913433 C105.857075,140.913433 103.771514,138.840393 103.771514,136.293514 L103.771514,90.4496979 C79.3704606,93.351955 58.9617649,90.2720087 33.9946305,80.0252643 L10.8747065,70.5485065 C6.67379249,68.8308441 3.36668996,65.3955194 1.8174167,61.1309784 C0.268143448,56.8960522 0.566080613,52.1576733 2.68143448,48.1300512 C6.58441134,40.7263341 15.4033514,37.4983135 23.1795114,40.6374895 L33.6668996,44.8724157 C59.8853701,55.4449236 88.4277504,58.0510321 116.135907,52.3945922 L124.41856,50.7065447 C126.921232,50.203092 129.394111,51.8022948 129.900604,54.2899438 C130.407097,56.7775927 128.798236,59.2356268 126.295564,59.7390795 L118.012911,61.427127 C88.4873379,67.4389453 58.1275408,64.6551477 30.1810348,53.4014977 L19.6936466,49.1665716 C16.3567503,47.8339025 12.5729483,49.1961864 10.9045002,52.3649773 C9.98089501,54.1122546 9.86172015,56.0964507 10.5469756,57.9325726 C11.2322311,59.7686944 12.6027421,61.219823 14.4201588,61.9601947 L37.5400827,71.4369525 C62.0603114,81.5060077 81.009115,84.141731 105.142025,80.9137104 L107.793666,80.5583319 C109.134383,80.3806427 110.475101,80.7952509 111.458293,81.6540821 C112.47128,82.5425281 113.03736,83.7863526 113.03736,85.1190216 L113.03736,136.234284 C113.067154,138.840393 110.981594,140.913433 108.419334,140.913433 Z" id="Path"></path>
                </g>
                <path d="M106.572124,188.919135 C106.363568,188.919135 106.155012,188.919135 105.946456,188.88952 L57.0847607,182.433479 C51.1558112,181.633877 45.9419108,178.583546 42.3666648,173.815552 C38.7914188,169.047558 37.3613204,163.183814 38.3147194,157.32007 C39.2681183,151.456327 42.4858397,146.332954 47.3720092,142.927245 C52.2581787,139.521535 58.1871282,138.248095 64.0862841,139.343845 L116.314669,149.205597 C118.847135,149.679434 120.485789,152.107854 120.00909,154.595503 C119.53239,157.112766 117.089306,158.741584 114.586633,158.267746 L62.3582485,148.405995 C58.9617649,147.754468 55.5354875,148.49484 52.7348781,150.479036 C49.9044751,152.433617 48.0572646,155.395104 47.491184,158.771199 C46.9548971,162.147294 47.7593275,165.523389 49.8448876,168.277572 C51.9006541,171.031754 54.9098194,172.808647 58.3360968,173.25287 L107.197792,179.708911 C109.730258,180.034674 111.517881,182.374249 111.19015,184.891513 C110.862419,187.231087 108.86624,188.919135 106.572124,188.919135 Z" id="Path"></path>
                <path d="M133.505643,194.812494 C124.090829,194.812494 115.986938,188.119533 114.437665,178.613161 C112.739423,168.247957 119.562184,158.563895 129.960191,156.609314 L221.456694,139.343845 C227.326057,138.248095 233.255006,139.49192 238.170969,142.927245 C243.057139,146.332954 246.27486,151.456327 247.228259,157.32007 C248.181658,163.183814 246.75156,169.047558 243.176314,173.815552 C239.601068,178.583546 234.387167,181.633877 228.458218,182.433479 L136.12749,194.664419 L136.12749,194.664419 C135.263473,194.753264 134.399455,194.812494 133.505643,194.812494 Z M225.598021,148.169076 C224.793591,148.169076 223.98916,148.257921 223.214524,148.405995 L131.71802,165.671463 C126.295564,166.678369 122.750112,171.712896 123.643923,177.132417 C124.507941,182.551938 129.483492,186.224182 134.935742,185.48381 L227.266469,173.25287 C230.692747,172.808647 233.701912,171.031754 235.757678,168.277572 C237.813445,165.523389 238.647669,162.147294 238.111382,158.771199 C237.575095,155.395104 235.698091,152.433617 232.867688,150.479036 C230.692747,148.968678 228.190074,148.169076 225.598021,148.169076 Z" id="Shape"></path>
            </g>
            <path d="M49.6279789,135 C49.5982172,135 49.5982172,135 49.6279789,135 C48.3779881,135 47.1875207,134.494656 46.3244317,133.632599 L8.3782818,95.3453574 C-2.8716356,83.98998 -2.78235054,65.6192385 8.5866136,54.3827655 C19.9555777,43.1462926 38.3482998,43.2354709 49.5982172,54.5908484 L50.0148808,55.007014 L50.6398763,54.3827655 C56.1160265,48.9726119 63.3481163,46 71.0266313,46 C71.0861547,46 71.1159164,46 71.1754398,46 C78.9134782,46.0297261 86.1753296,49.0915164 91.6217182,54.5908484 C102.871636,65.9462258 102.782351,84.3169673 91.4133864,95.5534402 L52.842241,133.662325 C52.0089138,134.524382 50.8482081,135 49.6279789,135 Z M28.9733687,55.2745491 C23.9734054,55.2745491 18.9436804,57.1770207 15.1044229,60.9522378 C7.36638447,68.5918504 7.30686109,81.0768203 14.9556145,88.8056112 L49.6279789,123.793253 L84.8955771,88.9245157 C92.6336155,81.2849031 92.6931389,68.7999332 85.0443855,61.0711423 C81.3539364,57.3256513 76.4134965,55.2745491 71.1456781,55.244823 C71.1159164,55.244823 71.0861547,55.244823 71.0266313,55.244823 C65.7885745,55.244823 60.8778963,57.2661991 57.1576855,60.9522378 L53.229143,64.8463594 C51.4136801,66.6596526 48.4672732,66.6299265 46.681572,64.8166333 L42.9911229,61.1008684 C39.1518654,57.2364729 34.062617,55.2745491 28.9733687,55.2745491 Z" id="Shape"></path>
            <path d="M259.580015,141 C257.046606,141 254.960269,138.955233 254.930464,136.406683 L254.90066,133.502522 C247.061995,132.287516 239.640597,129.531526 234.394951,125.856873 C231.384665,123.723203 230.222278,119.84111 231.533689,116.166456 L235.289095,105.616646 C236.153435,103.156999 238.090747,101.260404 240.594351,100.430643 C243.06815,99.6008827 245.810193,99.9564943 247.985944,101.378941 C253.082566,104.727617 259.639624,106.653846 265.958244,106.653846 C266.017853,106.653846 266.047658,106.653846 266.107268,106.653846 C269.415602,106.624212 272.276863,105.824086 274.124762,104.372005 C275.674612,103.156999 276.449537,101.556747 276.449537,99.6008827 C276.449537,97.556116 276.419732,93.7332913 263.842102,88.7547289 C248.343602,82.7982346 232.457638,73.9968474 232.338419,53.8751576 C232.27881,38.7320303 241.339471,26.7301387 256.241876,21.8108449 L256.182266,8.38650694 C256.182266,6.19356873 256.927387,4.14880202 258.358018,2.60781841 C259.878063,0.977931904 261.964399,0.0592686003 264.289175,0.0592686003 L274.094957,0 C274.094957,0 274.124762,0 274.124762,0 C276.360122,0 278.446459,0.829760404 279.996309,2.34110971 C281.605769,3.88209332 282.499913,5.98612863 282.499913,8.26796974 L282.529718,20.0624212 C288.550289,21.0996217 294.183398,23.0554855 298.981972,25.8114754 C302.588354,27.8858764 304.168009,32.2124842 302.707574,36.0649433 L298.803144,46.4665826 C297.938804,48.778058 296.090906,50.5857503 293.766131,51.445145 C291.441356,52.3045397 288.848337,52.0674653 286.702391,50.852459 C284.288201,49.4892812 279.280994,46.703657 271.114476,46.703657 C271.054866,46.703657 270.995257,46.703657 270.935647,46.703657 C267.835947,46.7332913 262.64991,47.4148802 262.64991,51.8600252 C262.64991,53.8455233 262.679715,56.0977301 277.075438,61.9356873 C303.780547,72.6040353 306.939856,87.8360656 307,98.3858764 C307.08888,114.981084 295.941882,128.52396 278.595483,132.880202 C276.121684,133.502522 273.588275,131.991173 272.962374,129.531526 C272.336473,127.071879 273.856518,124.552963 276.330317,123.930643 C289.384824,120.67087 297.78978,110.654477 297.73017,98.445145 C297.670561,89.3770492 294.779494,78.9754098 273.61808,70.5296343 C259.937672,64.9880202 253.410419,60.7799496 253.380614,51.9192938 C253.35081,48.0075662 254.90066,44.4514502 257.761921,41.8436318 C260.921231,38.9691047 265.332343,37.517024 270.905842,37.4873897 C270.965452,37.4873897 271.054866,37.4873897 271.114476,37.4873897 C280.801039,37.4873897 287.209073,40.6286255 290.427992,42.3770492 L293.766131,33.5163934 C289.116581,30.9678436 283.513276,29.3083228 277.4629,28.7452711 C275.078515,28.5081967 273.260422,26.5226986 273.260422,24.1519546 L273.200812,9.27553594 L265.421757,9.30517024 L265.481367,25.278058 C265.481367,27.4117276 264.020931,29.2786885 261.934595,29.7824716 C249.118527,32.8644388 241.5183,41.8436318 241.57791,53.8455233 C241.63752,67.5662043 251.860569,74.2931904 267.180241,80.1904161 C280.115528,85.3467844 285.629418,91.1254729 285.689028,99.6008827 C285.718832,104.431274 283.632496,108.698613 279.81748,111.691677 C276.300513,114.447667 271.561548,115.899748 266.107268,115.929382 C266.047658,115.929382 265.988049,115.929382 265.928439,115.929382 C258.179189,115.929382 250.161695,113.677175 243.694051,109.676545 L240.445327,118.803909 C245.303511,121.974779 252.48647,124.197352 259.878063,124.819672 C262.262448,125.027112 264.110346,127.01261 264.14015,129.383354 L264.19976,136.347415 C264.229565,138.895965 262.173033,140.970366 259.580015,141 C259.609819,141 259.609819,141 259.580015,141 Z" id="Path"></path>
        </g>
    </g>
</svg>