<?xml version="1.0" encoding="UTF-8"?>
<svg width="386px" height="386px" viewBox="0 0 386 386" version="1.1" xmlns="http://www.w3.org/2000/svg" xmlns:xlink="http://www.w3.org/1999/xlink">
    <title>innovaion &amp; safety focused</title>
    <g id="innovaion-&amp;-safety-focused" stroke="none" stroke-width="1" fill="none" fill-rule="evenodd">
        <g id="Group" transform="translate(61.000000, 24.000000)" fill="#E4002B" fill-rule="nonzero">
            <g transform="translate(7.000000, 210.000000)" id="Path">
                <path d="M175.090281,126.211399 C173.199564,126.211399 171.468304,125.161418 170.557115,123.472318 L139.645018,64.8788081 C138.323793,62.3679838 139.280542,59.2636919 141.786312,57.9398027 C144.292083,56.6159135 147.390127,57.5745919 148.711351,60.0854162 L174.566348,109.069316 L189.965447,72.0232446 C190.990535,69.5808973 193.678543,68.3254851 196.207094,69.1015581 L233.588635,80.719827 L199.145679,7.38093108 C197.938353,4.82445541 199.03178,1.76581486 201.60589,0.556054054 C204.15722,-0.653706757 207.209704,0.441925676 208.41703,3.02122703 L247.803188,86.8827595 C248.668818,88.7316392 248.372681,90.9000784 247.028677,92.4293986 C245.707452,93.9587189 243.588937,94.5750122 241.65266,93.9587189 L197.619437,80.2861392 L179.828466,123.061455 C179.076735,124.887509 177.322695,126.120096 175.340859,126.211399 C175.24974,126.211399 175.1814,126.211399 175.090281,126.211399 Z"></path>
                <path d="M73.9254891,126.211399 C73.8799296,126.211399 73.8115904,126.211399 73.766031,126.211399 C71.7614145,126.142922 69.9618156,124.910335 69.2100844,123.061455 L51.4191133,80.2861392 L7.38589022,93.9587189 C5.47239268,94.5521865 3.35387755,93.9587189 2.03265306,92.4522243 C0.711428571,90.9457297 0.392512315,88.7772905 1.21258269,86.9284108 L39.3914145,3.06687838 C40.5531809,0.487577027 43.605665,-0.653706757 46.1797748,0.533228378 C48.7538846,1.69733784 49.8928712,4.75597838 48.7083251,7.33527973 L15.2676777,80.7654784 L52.8314567,69.1015581 C55.360007,68.3254851 58.0480155,69.5808973 59.0731034,72.0232446 L74.3127445,108.658454 L107.161119,41.5281419 C108.414004,38.9944919 111.466488,37.9445108 114.017818,39.1770973 C116.546369,40.4325095 117.594236,43.49115 116.364131,46.0476257 L78.5497748,123.335364 C77.6613652,125.092941 75.8845461,126.211399 73.9254891,126.211399 Z"></path>
            </g>
            <g id="Shape">
                <path d="M131.365937,262.385624 C123.027746,262.385624 115.259104,259.055094 109.518054,252.987141 C104.346553,247.512297 96.6690388,245.459231 89.4471631,247.603545 C81.4507013,249.975977 73.0669465,248.995068 65.8450708,244.820499 C58.6231951,240.64593 53.5656039,233.870811 51.6291388,225.749792 C49.8749292,218.427188 44.2477894,212.792661 36.9347859,211.036149 C28.8244145,209.097141 22.0581776,204.032911 17.8890821,196.801554 C13.7199867,189.570198 12.7175812,181.175437 15.1096852,173.168477 C17.2511877,165.959932 15.2008129,158.249527 9.73314676,153.071237 C3.67315009,147.322651 0.346986507,139.566622 0.346986507,131.194673 C0.346986507,122.822723 3.67315009,115.066694 9.73314676,109.318108 C15.2008129,104.139818 17.2511877,96.4522245 15.1096852,89.220868 C12.7403632,81.2139085 13.7199867,72.8191476 17.8890821,65.5877911 C22.0581776,58.3564345 28.8244145,53.2922037 36.9347859,51.3531965 C44.2477894,49.596684 49.8749292,43.962157 51.6291388,36.639553 C53.5656039,28.5185343 58.6231951,21.7434148 65.8450708,17.5688462 C73.0669465,13.3942775 81.4507013,12.3905561 89.4471631,14.7858004 C96.6462569,16.9301143 104.346553,14.8770478 109.518054,9.40220374 C115.259104,3.33425156 123.004964,0.00372141372 131.365937,0.00372141372 C139.704128,0.00372141372 147.47277,3.33425156 153.21382,9.40220374 C158.385321,14.8770478 166.062835,16.9301143 173.284711,14.7858004 C181.281173,12.413368 189.664928,13.3942775 196.886803,17.5688462 C204.108679,21.7434148 209.16627,28.5185343 211.102735,36.639553 C212.856945,43.962157 218.484085,49.596684 225.797088,51.3531965 C233.90746,53.2922037 240.673696,58.3564345 244.842792,65.5877911 C249.011887,72.8191476 250.014293,81.2139085 247.622189,89.220868 C245.480686,96.4294127 247.531061,104.139818 252.998727,109.318108 C259.058724,115.066694 262.384888,122.822723 262.384888,131.194673 C262.384888,139.566622 259.058724,147.322651 252.998727,153.071237 C247.531061,158.249527 245.480686,165.937121 247.622189,173.168477 C249.991511,181.175437 249.011887,189.570198 244.842792,196.801554 C240.673696,204.032911 233.90746,209.097141 225.797088,211.036149 C218.484085,212.792661 212.856945,218.427188 211.102735,225.749792 C209.16627,233.870811 204.108679,240.64593 196.886803,244.820499 C189.664928,248.995068 181.281173,249.975977 173.284711,247.603545 C166.085617,245.459231 158.385321,247.512297 153.21382,252.987141 C147.449988,259.055094 139.704128,262.385624 131.365937,262.385624 Z M95.1654306,236.516985 C103.275802,236.516985 111.158354,239.824704 116.944968,245.93828 C120.72677,249.930353 125.852707,252.143103 131.343155,252.143103 C136.856385,252.143103 141.95954,249.930353 145.741343,245.93828 C153.578331,237.657578 165.219903,234.532354 176.155236,237.771637 C181.440646,239.345655 186.953876,238.684111 191.738084,235.923877 C196.49951,233.163643 199.825674,228.692521 201.124245,223.331736 C203.76695,212.245177 212.310178,203.690733 223.382202,201.044558 C228.735959,199.767095 233.201219,196.436564 235.957834,191.646076 C238.714449,186.878399 239.352344,181.33512 237.803172,176.04277 C234.545354,165.115894 237.66648,153.436227 245.959107,145.58895 C249.945947,141.802183 252.155795,136.669517 252.155795,131.171861 C252.155795,125.651393 249.945947,120.541538 245.959107,116.754771 C237.689262,108.907495 234.568136,97.2506393 237.803172,86.3009511 C239.375126,81.0086019 238.714449,75.4881341 235.957834,70.6976455 C233.201219,65.907157 228.735959,62.5994387 223.382202,61.2991632 C212.310178,58.6529886 203.76695,50.0985447 201.124245,39.0119854 C199.848456,33.6512006 196.522292,29.180078 191.738084,26.4198441 C186.976658,23.6596102 181.440646,23.0208784 176.155236,24.5720842 C165.242685,27.8341788 153.578331,24.7089553 145.741343,16.4054418 C145.741343,16.4054418 145.741343,16.4054418 145.741343,16.4054418 C141.95954,12.413368 136.833603,10.2006185 131.343155,10.2006185 C125.829925,10.2006185 120.72677,12.413368 116.944968,16.4054418 C109.107979,24.6861435 97.4664068,27.8113669 86.5310745,24.5720842 C81.2456638,22.9980665 75.7324338,23.6596102 70.9482259,26.4198441 C66.1867999,29.180078 62.8606363,33.6512006 61.5620656,39.0119854 C58.9193603,50.0985447 50.3761319,58.6529886 39.3041079,61.2991632 C33.9503515,62.5766268 29.4850908,65.907157 26.7284758,70.6976455 C23.9718607,75.4653222 23.3339664,81.0086019 24.8831384,86.3009511 C28.1409562,97.2278274 25.0198301,108.907495 16.7272031,116.754771 C12.7403632,120.541538 10.5305147,125.674205 10.5305147,131.171861 C10.5305147,136.692328 12.7403632,141.802183 16.7272031,145.58895 C24.9970481,153.436227 28.1181742,165.093082 24.8831384,176.04277 C23.3111844,181.33512 23.9718607,186.855587 26.7284758,191.646076 C29.4850908,196.413753 33.9503515,199.744283 39.3041079,201.044558 C50.3761319,203.690733 58.9193603,212.245177 61.5620656,223.331736 C62.8378544,228.692521 66.164018,233.163643 70.9482259,235.923877 C75.7096518,238.684111 81.2456638,239.345655 86.5310745,237.771637 C89.4015992,236.927599 92.2949059,236.516985 95.1654306,236.516985 Z"></path>
                <path d="M131.365937,224.768883 C79.8331834,224.768883 37.9144095,182.795078 37.9144095,131.194673 C37.9144095,79.5942672 79.8331834,37.6204626 131.365937,37.6204626 C182.898691,37.6204626 224.817465,79.5942672 224.817465,131.194673 C224.794683,182.795078 182.875909,224.768883 131.365937,224.768883 Z M131.365937,47.8629834 C85.4831051,47.8629834 48.1435016,85.251606 48.1435016,131.194673 C48.1435016,177.137739 85.4831051,214.526362 131.365937,214.526362 C177.248769,214.526362 214.588372,177.137739 214.588372,131.194673 C214.565591,85.251606 177.248769,47.8629834 131.365937,47.8629834 Z"></path>
            </g>
            <g transform="translate(66.000000, 84.000000)">
                <path d="M124.807032,42.6767476 L5.23867478,42.6767476 C2.40486815,42.6767476 0.0966869506,40.3719663 0.0966869506,37.5423337 C0.0966869506,34.7127012 2.40486815,32.4079198 5.23867478,32.4079198 L124.807032,32.4079198 C127.640838,32.4079198 129.94902,34.7127012 129.94902,37.5423337 C129.926166,40.3719663 127.640838,42.6767476 124.807032,42.6767476 Z" id="Path"></path>
                <path d="M65,111.226878 C63.5145368,111.226878 62.0976335,110.587929 61.1377958,109.469768 L1.35361731,40.9196371 C-0.314672076,39.0027892 -0.337525355,36.1275175 1.35361731,34.18785 L29.3260311,1.96655026 C30.3087221,0.848389007 31.7256254,0.209439721 33.2110886,0.209439721 L96.834618,0.209439721 C98.3200811,0.209439721 99.7369844,0.848389007 100.719675,1.96655026 L128.692089,34.18785 C130.360379,36.1275175 130.360379,38.9799696 128.692089,40.9196371 L68.9079108,109.469768 C67.9023665,110.587929 66.4854632,111.226878 65,111.226878 Z M12.0260987,37.5423337 L65,98.3109748 L117.996755,37.5423337 L94.4807302,10.4554479 L35.5421231,10.4554479 L12.0260987,37.5423337 Z" id="Shape"></path>
                <path d="M65,111.226878 C62.8060852,111.226878 60.8407032,109.834882 60.1322515,107.758296 L36.8219067,39.2081658 C36.2962813,37.6336122 36.5476673,35.9221409 37.5075051,34.5757835 L60.2922245,2.94779381 C61.2520622,1.60143638 62.8060852,0.82556939 64.4515213,0.82556939 C64.4515213,0.82556939 64.4515213,0.82556939 64.4515213,0.82556939 C66.0969574,0.82556939 67.6509804,1.624256 68.6108181,2.94779381 L91.4412441,34.5757835 C92.4010818,35.8993213 92.6753212,37.6107926 92.1496957,39.1625266 L69.8448952,107.712657 C69.1592968,109.812062 67.2167681,111.249698 65,111.249698 C65.0228533,111.226878 65.0228533,111.226878 65,111.226878 Z M47.4258283,38.3866596 L64.9085869,89.8220771 L81.6371873,38.4094792 L64.4972279,14.6770771 L47.4258283,38.3866596 Z" id="Shape"></path>
            </g>
        </g>
    </g>
</svg>