<?xml version="1.0" encoding="UTF-8"?>
<svg width="386px" height="386px" viewBox="0 0 386 386" version="1.1" xmlns="http://www.w3.org/2000/svg" xmlns:xlink="http://www.w3.org/1999/xlink">
    <title>Life Insurance</title>
    <g id="Life-Insurance" stroke="none" stroke-width="1" fill="none" fill-rule="evenodd" transform="translate(0.000000, 0.000000)">
        <g id="safe" transform="translate(54.000000, 37.000000)" fill-rule="nonzero">
            <g id="Group">
                <g fill="#E4002B" id="Path">
                    <g>
                        <path d="M194.320701,303.070308 L22.8305732,303.070308 C10.3214741,303.070308 0.160236579,292.891641 0.160236579,280.404013 L0.160236579,23.6283626 C0.160236579,11.1214931 10.3407188,0.96206688 22.8305732,0.96206688 L202.288035,0.96206688 C214.797134,0.96206688 224.958371,11.1407345 224.958371,23.6283626 L224.958371,145.637684 C224.958371,147.542577 223.41879,149.081884 221.513558,149.081884 C219.608326,149.081884 218.068744,147.542577 218.068744,145.637684 L218.068744,23.6283626 C218.068744,14.931278 210.98667,7.85046574 202.288035,7.85046574 L22.8305732,7.85046574 C14.1319381,7.85046574 7.04986351,14.931278 7.04986351,23.6283626 L7.04986351,280.404013 C7.04986351,289.101097 14.1319381,296.18191 22.8305732,296.18191 L194.320701,296.18191 C196.225933,296.18191 197.765514,297.721217 197.765514,299.626109 C197.765514,301.531001 196.225933,303.070308 194.320701,303.070308 Z"></path>
                    </g>
                    <g transform="translate(23.093722, 32.710274)">
                        <path d="M139.569336,225.41227 L8.03134668,225.41227 C3.95145587,225.41227 0.62211101,222.083519 0.62211101,218.004355 L0.62211101,7.40791497 C0.62211101,3.3287514 3.95145587,0 8.03134668,0 L170.880573,0 C174.960464,0 178.289809,3.3287514 178.289809,7.40791497 L178.289809,115.79437 C178.289809,117.699262 176.750227,119.238569 174.844995,119.238569 C172.939763,119.238569 171.400182,117.699262 171.400182,115.79437 L171.400182,7.40791497 C171.400182,7.11929491 171.169245,6.88839886 170.880573,6.88839886 L8.03134668,6.88839886 C7.74267516,6.88839886 7.51173794,7.11929491 7.51173794,7.40791497 L7.51173794,218.004355 C7.51173794,218.292975 7.74267516,218.523871 8.03134668,218.523871 L139.569336,218.523871 C141.474568,218.523871 143.014149,220.063178 143.014149,221.968071 C143.014149,223.872963 141.474568,225.41227 139.569336,225.41227 Z"></path>
                    </g>
                </g>
                <g transform="translate(68.809827, 122.675624)">
                    <g fill="#E4002B" id="Shape">
                        <path d="M43.7590992,86.7278528 C19.9340764,86.7278528 0.554595086,67.3518258 0.554595086,43.5310499 C0.554595086,19.7102739 19.9340764,0.334246954 43.7590992,0.334246954 C67.5841219,0.334246954 86.9636033,19.7102739 86.9636033,43.5310499 C86.9443585,67.3518258 67.5648772,86.7278528 43.7590992,86.7278528 Z M43.7590992,7.22264581 C23.7445405,7.22264581 7.44422202,23.5008174 7.44422202,43.5310499 C7.44422202,63.542041 23.7252957,79.8394539 43.7590992,79.8394539 C63.7736579,79.8394539 80.0739763,63.5612823 80.0739763,43.5310499 C80.0547316,23.5200588 63.7736579,7.22264581 43.7590992,7.22264581 Z"></path>
                    </g>
                    <g transform="translate(8.169245, 8.165471)" id="Path">
                        <g transform="translate(31.644677, 0.000000)">
                            <g>
                                <path d="M3.94517743,4.0406809 L3.94517743,9.98625421 L3.94517743,4.0406809 Z" fill="#FFFFFF"></path>
                                <path d="M3.94517743,13.4304536 C2.0399454,13.4304536 0.500363967,11.8911466 0.500363967,9.98625421 L0.500363967,4.0406809 C0.500363967,2.13578847 2.0399454,0.596481465 3.94517743,0.596481465 C5.85040946,0.596481465 7.3899909,2.13578847 7.3899909,4.0406809 L7.3899909,9.98625421 C7.3899909,11.8911466 5.8311647,13.4304536 3.94517743,13.4304536 Z" fill="#E4002B"></path>
                            </g>
                            <g transform="translate(0.000000, 56.870302)">
                                <path d="M3.94517743,3.87460123 L3.94517743,9.82017454 L3.94517743,3.87460123 Z" fill="#FFFFFF"></path>
                                <path d="M3.94517743,13.264374 C2.0399454,13.264374 0.500363967,11.725067 0.500363967,9.82017454 L0.500363967,3.87460123 C0.500363967,1.9697088 2.0399454,0.430401797 3.94517743,0.430401797 C5.85040946,0.430401797 7.3899909,1.9697088 7.3899909,3.87460123 L7.3899909,9.82017454 C7.3899909,11.725067 5.8311647,13.264374 3.94517743,13.264374 Z" fill="#E4002B"></path>
                            </g>
                        </g>
                        <g transform="translate(9.622384, 9.620669)">
                            <g>
                                <path d="M3.81674249,3.59813013 L8.01210191,7.79274173 L3.81674249,3.59813013 Z" fill="#FFFFFF"></path>
                                <path d="M8.01210191,11.2561825 C7.12684258,11.2561825 6.24158326,10.9290798 5.56801638,10.2556329 L1.37265696,6.06102134 C0.0255232029,4.71412771 0.0255232029,2.53985656 1.37265696,1.19296293 C2.71979072,-0.153930701 4.8944495,-0.153930701 6.24158326,1.19296293 L10.4369427,5.38757453 C11.7840764,6.73446816 11.7840764,8.90873931 10.4369427,10.2556329 C9.78262056,10.9098384 8.89736124,11.2561825 8.01210191,11.2561825 Z" fill="#E4002B"></path>
                            </g>
                            <g transform="translate(40.414013, 39.553098)">
                                <path d="M3.48958144,4.14397995 L7.68494086,8.33859155 L3.48958144,4.14397995 Z" fill="#FFFFFF"></path>
                                <path d="M7.70418562,11.782791 C6.8189263,11.782791 5.93366697,11.4556882 5.26010009,10.7822414 L1.06474067,6.58762983 C-0.282393085,5.2407362 -0.282393085,3.06646505 1.06474067,1.71957142 C2.41187443,0.372677784 4.58653321,0.372677784 5.93366697,1.71957142 L10.1290264,5.91418301 C11.4761601,7.26107664 11.4761601,9.43534779 10.1290264,10.7822414 C9.45545951,11.4556882 8.57020018,11.782791 7.70418562,11.782791 Z" fill="#E4002B"></path>
                            </g>
                        </g>
                        <g transform="translate(0.000000, 31.856563)">
                            <g>
                                <path d="M4.25937216,3.50901581 L10.2060055,3.50901581 L4.25937216,3.50901581 Z" fill="#FFFFFF"></path>
                                <path d="M10.2060055,6.95321524 L4.25937216,6.95321524 C2.35414013,6.95321524 0.81455869,5.41390823 0.81455869,3.50901581 C0.81455869,1.60412339 2.35414013,0.064816383 4.25937216,0.064816383 L10.2060055,0.064816383 C12.1112375,0.064816383 13.6508189,1.60412339 13.6508189,3.50901581 C13.6508189,5.41390823 12.1112375,6.95321524 10.2060055,6.95321524 Z" fill="#E4002B"></path>
                            </g>
                            <g transform="translate(56.662875, 0.000000)">
                                <path d="M4.29158326,3.50901581 L10.2382166,3.50901581 L4.29158326,3.50901581 Z" fill="#FFFFFF"></path>
                                <path d="M10.2382166,6.95321524 L4.29158326,6.95321524 C2.38635123,6.95321524 0.846769791,5.41390823 0.846769791,3.50901581 C0.846769791,1.60412339 2.38635123,0.064816383 4.29158326,0.064816383 L10.2382166,0.064816383 C12.1434486,0.064816383 13.68303,1.60412339 13.68303,3.50901581 C13.68303,5.41390823 12.1434486,6.95321524 10.2382166,6.95321524 Z" fill="#E4002B"></path>
                            </g>
                        </g>
                        <g transform="translate(9.622384, 9.620669)">
                            <g transform="translate(0.000000, 39.553098)">
                                <path d="M3.81674249,8.33859155 L8.01210191,4.14397995 L3.81674249,8.33859155 Z" fill="#FFFFFF"></path>
                                <path d="M3.81674249,11.782791 C2.93148317,11.782791 2.04622384,11.4556882 1.37265696,10.7822414 C0.0255232029,9.43534779 0.0255232029,7.26107664 1.37265696,5.91418301 L5.56801638,1.71957142 C6.91515014,0.372677784 9.08980892,0.372677784 10.4369427,1.71957142 C11.7840764,3.06646505 11.7840764,5.2407362 10.4369427,6.58762983 L6.24158326,10.7822414 C5.56801638,11.4556882 4.68275705,11.782791 3.81674249,11.782791 Z" fill="#E4002B"></path>
                            </g>
                            <g transform="translate(40.414013, 0.000000)">
                                <path d="M3.48958144,7.81198306 L7.68494086,3.61737147 L3.48958144,7.81198306 Z" fill="#FFFFFF"></path>
                                <path d="M3.48958144,11.2561825 C2.60432211,11.2561825 1.71906278,10.9290798 1.04549591,10.2556329 C-0.301637853,8.90873931 -0.301637853,6.73446816 1.04549591,5.38757453 L5.24085532,1.19296293 C6.58798908,-0.153930701 8.76264786,-0.153930701 10.1097816,1.19296293 C11.4569154,2.53985656 11.4569154,4.71412771 10.1097816,6.06102134 L5.9144222,10.2556329 C5.26010009,10.9098384 4.37484076,11.2561825 3.48958144,11.2561825 Z" fill="#E4002B"></path>
                            </g>
                        </g>
                    </g>
                </g>
            </g>
            <g id="Group" transform="translate(182.000000, 66.000000)">
                <rect id="Rectangle" fill="#FFFFFF" transform="translate(16.173652, 11.864953) rotate(-180.000000) translate(-16.173652, -11.864953) " x="3.98837809" y="4.25643079" width="24.3705478" height="15.2170441"></rect>
                <path d="M28.3556688,22.9896709 L3.98512102,22.9896709 C2.08835669,22.9896709 0.555617834,21.4209035 0.555617834,19.4795538 L0.555617834,4.26250976 C0.555617834,2.32116007 2.08835669,0.752392638 3.98512102,0.752392638 L28.3556688,0.752392638 C30.2524331,0.752392638 31.785172,2.32116007 31.785172,4.26250976 L31.785172,19.4795538 C31.785172,21.4209035 30.2524331,22.9896709 28.3556688,22.9896709 Z M7.39546497,15.9694367 L24.9070064,15.9694367 L24.9070064,7.77262688 L7.39546497,7.77262688 L7.39546497,15.9694367 Z" id="Shape" fill="#E4002B"></path>
            </g>
            <g id="Group" transform="translate(44.000000, 57.000000)" fill="#E4002B">
                <path d="M33.5540722,39.3977118 L3.53154989,39.3977118 C1.63478556,39.3977118 0.102046709,37.8430774 0.102046709,35.9192174 L0.102046709,4.26297463 C0.102046709,2.33911457 1.63478556,0.784480186 3.53154989,0.784480186 L33.5540722,0.784480186 C35.4508365,0.784480186 36.9835754,2.33911457 36.9835754,4.26297463 L36.9835754,10.2288841 L92.5453588,10.2288841 C94.4421231,10.2288841 95.974862,11.7835185 95.974862,13.7073785 L95.974862,26.4942464 C95.974862,28.4181065 94.4421231,29.9727408 92.5453588,29.9727408 L36.9835754,29.9727408 L36.9835754,35.9386503 C36.9835754,37.8430774 35.4316773,39.3977118 33.5540722,39.3977118 Z M6.96105308,32.4407229 L30.124569,32.4407229 L30.124569,26.4748135 C30.124569,24.5509534 31.6573079,22.996319 33.5540722,22.996319 L89.1158556,22.996319 L89.1158556,17.1664401 L33.5540722,17.1664401 C31.6573079,17.1664401 30.124569,15.6118057 30.124569,13.6879456 L30.124569,7.72203615 L6.96105308,7.72203615 L6.96105308,32.4407229 Z" id="Shape"></path>
            </g>
            <g id="Group" transform="translate(159.000000, 156.000000)" fill="#E4002B">
                <g id="Shape">
                    <path d="M71.2242785,156.629172 C70.7448475,156.629172 70.2654164,156.532523 69.8243398,156.319895 C31.1054873,138.807119 14.4212863,107.68618 7.24899765,84.6644172 C-0.479431062,59.8256555 0.862975911,39.3554231 0.939684881,38.4855832 C1.03557109,37.0551798 2.01361046,35.837404 3.37519467,35.4121489 C29.0918768,27.6609089 30.7411197,9.62622825 30.7986514,8.85303723 C30.9137149,7.38397428 31.9301087,6.12753887 33.3300474,5.74094336 C58.1262219,-0.966488781 84.3223351,-0.966488781 109.11851,5.74094336 C110.537626,6.12753887 111.554019,7.38397428 111.649906,8.87236701 C111.707437,9.60689848 113.337503,27.6609089 139.073362,35.4121489 C140.434947,35.8180742 141.412986,37.0358501 141.508872,38.4855832 C141.566404,39.3360934 142.927988,59.8256555 135.199559,84.6644172 C128.027271,107.68618 111.362247,138.826448 72.6433945,156.319895 C72.1831407,156.532523 71.7037096,156.629172 71.2242785,156.629172 Z M7.69007423,41.3077305 C7.57501078,47.2419716 7.92020114,63.8849084 13.8651463,82.8280885 C23.5496538,113.71707 42.8419597,136.10095 71.2051013,149.361176 C99.6449519,136.062291 118.975612,113.601091 128.621765,82.5961312 C134.509179,63.6916106 134.835192,47.203312 134.720128,41.3077305 C111.880033,33.5371607 106.433696,18.0346806 105.14882,11.887812 C82.5963833,6.14686864 59.7754648,6.14686864 37.2230276,11.887812 C35.9765069,18.0346806 30.53017,33.5371607 7.69007423,41.3077305 Z"></path>
                </g>
                <g transform="translate(19.177242, 21.262753)" id="Shape">
                    <path d="M52.0470361,113.949027 C51.567605,113.949027 51.0881739,113.852378 50.6470974,113.639751 C22.7250323,101.017407 10.7009013,78.5755379 5.52304583,61.9712606 C-0.0383544849,44.0912182 0.939684881,29.3232696 0.978039366,28.7047168 C1.07392558,27.2743134 2.05196494,26.0565375 3.41354916,25.6312825 C21.2675619,20.2576048 22.2456013,7.73191024 22.2456013,7.61593159 C22.3414875,6.12753887 23.3578813,4.87110345 24.7769973,4.48450794 C42.6118328,-0.347935961 61.4630621,-0.347935961 79.2978976,4.48450794 C80.7170136,4.87110345 81.7334074,6.12753887 81.8292936,7.59660182 C81.8676481,8.09917598 83.0566371,20.3155942 100.661346,25.6312825 C102.02293,26.0372077 103.000969,27.2549836 103.096856,28.7047168 C103.13521,29.3232696 104.113249,44.0912182 98.551849,61.9712606 C93.3739936,78.5755379 81.3498626,101.017407 53.4277975,113.639751 C53.0058982,113.852378 52.5264671,113.949027 52.0470361,113.949027 Z M7.7667832,31.4882045 C7.72842872,36.1466804 8.15032805,47.3966098 12.1583717,60.1349319 C18.9279383,81.6876317 32.352008,97.34475 52.0662133,106.681032 C71.8379503,97.3060904 85.3003745,81.5716531 92.0315866,59.9029746 C95.9820986,47.2226418 96.3848207,36.1080208 96.3464662,31.4882045 C80.8896087,25.9792184 76.6130837,15.50248 75.4432719,10.6313766 C59.9288827,6.78475124 44.2227211,6.78475124 28.6891547,10.6313766 C27.5001657,15.50248 23.2044634,25.9792184 7.7667832,31.4882045 Z"></path>
                </g>
            </g>
        </g>
    </g>
</svg>