<?xml version="1.0" encoding="UTF-8"?>
<svg width="386px" height="386px" viewBox="0 0 386 386" version="1.1" xmlns="http://www.w3.org/2000/svg" xmlns:xlink="http://www.w3.org/1999/xlink">
    <title>medical, dental, &amp; vision</title>
    <g id="medical,-dental,-&amp;-vision" stroke="none" stroke-width="1" fill="none" fill-rule="evenodd">
        <g id="Group-Copy" transform="translate(39.000000, 47.000000)" fill="#E4002B" fill-rule="nonzero">
            <g id="Group">
                <path d="M94.1202922,89.3958716 C69.4787338,89.3958716 49.4284091,69.3892781 49.4284091,44.8014645 C49.4284091,20.213651 69.4787338,0.207057487 94.1202922,0.207057487 C118.761851,0.207057487 138.812175,20.213651 138.812175,44.8014645 C138.812175,69.3892781 118.761851,89.3958716 94.1202922,89.3958716 Z M94.1202922,10.2683444 C75.0579545,10.2683444 59.5407468,25.7517081 59.5407468,44.7724695 C59.5407468,63.7932309 75.0579545,79.2765946 94.1202922,79.2765946 C113.18263,79.2765946 128.699838,63.7932309 128.699838,44.7724695 C128.699838,25.7517081 113.211688,10.2683444 94.1202922,10.2683444 Z" id="Shape"></path>
                <path d="M173.740422,137.266721 C171.183279,137.266721 168.974838,135.324052 168.713312,132.714496 C167.231331,117.753043 157.583929,105.024211 143.548701,99.5731387 L111.090422,86.9312912 C108.504221,85.916464 107.196591,82.9879627 108.213636,80.407402 C109.230682,77.8268414 112.165584,76.5220636 114.751786,77.5368908 L147.210065,90.1787383 C164.819481,97.0505683 176.907792,112.968858 178.767532,131.728664 C179.029058,134.51219 177.024026,136.97677 174.234416,137.237726 C174.060065,137.266721 173.885714,137.266721 173.740422,137.266721 Z" id="Path"></path>
                <path d="M150.29026,280.473337 C147.616883,280.473337 145.408442,278.385693 145.263149,275.689152 L142.909416,231.993592 C142.764123,229.210066 144.88539,226.832471 147.675,226.687495 C150.46461,226.54252 152.847403,228.65916 152.992695,231.442686 L155.346429,275.138246 C155.491721,277.921772 153.370455,280.299367 150.580844,280.444342 C150.46461,280.444342 150.377435,280.473337 150.29026,280.473337 Z" id="Path"></path>
                <path d="M5.92792208,282.850933 C5.81168831,282.850933 5.69545455,282.850933 5.57922078,282.850933 C2.78961039,282.676962 0.697402597,280.270372 0.871753247,277.486846 L10.6063312,131.902634 C10.6063312,131.844644 10.6063312,131.786654 10.6063312,131.757659 C12.4660714,112.997853 24.5543831,97.0795633 42.1637987,90.2077334 L74.6220779,77.5658859 C77.2082792,76.5510586 80.1431818,77.8268414 81.1602273,80.4363971 C82.1772727,83.0169577 80.8987013,85.9454591 78.2834416,86.9602863 L45.8251623,99.6021338 C31.7899351,105.082201 22.1715909,117.724048 20.6605519,132.685501 L10.925974,278.182727 C10.7806818,280.821278 8.57224026,282.850933 5.92792208,282.850933 Z" id="Path"></path>
                <path d="M36.526461,282.850933 C36.4102273,282.850933 36.2939935,282.850933 36.1777597,282.850933 C33.3881494,282.647967 31.2959416,280.241377 31.4993506,277.486846 L40.1006494,154.344813 C40.3040584,151.561287 42.7159091,149.473642 45.476461,149.676608 C48.2660714,149.879573 50.3582792,152.286163 50.1548701,155.040694 L41.5535714,278.182727 C41.3501623,280.821278 39.1417208,282.850933 36.526461,282.850933 Z" id="Path"></path>
            </g>
            <path d="M250.628629,281 L200.371371,281 C197.58414,281 195.319515,278.735375 195.319515,275.948144 L195.319515,210.680485 L130.051856,210.680485 C127.264625,210.680485 125,208.41586 125,205.628629 L125,155.371371 C125,152.58414 127.264625,150.319515 130.051856,150.319515 L195.319515,150.319515 L195.319515,85.0518561 C195.319515,82.2646252 197.58414,80 200.371371,80 L250.628629,80 C253.41586,80 255.680485,82.2646252 255.680485,85.0518561 L255.680485,150.319515 L320.948144,150.319515 C323.735375,150.319515 326,152.58414 326,155.371371 L326,205.628629 C326,208.41586 323.735375,210.680485 320.948144,210.680485 L255.680485,210.680485 L255.680485,275.948144 C255.680485,278.735375 253.41586,281 250.628629,281 Z M205.423227,270.896288 L245.605807,270.896288 L245.605807,205.628629 C245.605807,202.841398 247.870432,200.576773 250.657663,200.576773 L315.925321,200.576773 L315.925321,160.394193 L250.657663,160.394193 C247.870432,160.394193 245.605807,158.129568 245.605807,155.342337 L245.605807,90.0746786 L205.423227,90.0746786 L205.423227,155.342337 C205.423227,158.129568 203.158602,160.394193 200.371371,160.394193 L135.103712,160.394193 L135.103712,200.576773 L200.371371,200.576773 C203.158602,200.576773 205.423227,202.841398 205.423227,205.628629 L205.423227,270.896288 Z" id="Shape"></path>
            <g id="Group" transform="translate(209.000000, 12.000000)">
                <path d="M57.872449,33.2393959 C57.1454082,33.2393959 56.4183673,33.0934811 55.7204082,32.7432855 C53.1903061,31.546784 52.1142857,28.5409387 53.3066327,26.0020209 L62.0020408,7.41247284 C63.1943878,4.87355498 66.1897959,3.79378531 68.719898,4.99028683 C71.25,6.18678835 72.3260204,9.19263364 71.1336735,11.7315515 L62.4382653,30.3210995 C61.594898,32.1596262 59.7918367,33.2393959 57.872449,33.2393959 Z" id="Path"></path>
                <path d="M89.0770408,67.8503911 C87.0413265,67.8503911 85.1219388,66.5955237 84.3658163,64.5818992 C83.3770408,61.9554324 84.6857143,59.037136 87.2739796,58.0449153 L106.904082,50.5157106 C109.521429,49.5234898 112.429592,50.8367232 113.418367,53.434007 C114.407143,56.0604737 113.098469,58.9787701 110.510204,59.9709909 L90.880102,67.5001956 C90.2693878,67.7336593 89.6586735,67.8503911 89.0770408,67.8503911 Z" id="Path"></path>
                <path d="M9.39336735,31.2257714 C7.0377551,31.2257714 4.94387755,29.5915254 4.4494898,27.1985224 L0.145408163,6.53698392 C-0.43622449,3.79378531 1.3377551,1.10895263 4.07142857,0.525293351 C6.80510204,-0.0583659279 9.48061224,1.72179487 10.0622449,4.46499348 L14.3663265,25.1265319 C14.9479592,27.8697306 13.1739796,30.5545632 10.4403061,31.1382225 C10.0913265,31.1965884 9.74234694,31.2257714 9.39336735,31.2257714 Z" id="Path"></path>
            </g>
        </g>
    </g>
</svg>