<?xml version="1.0" encoding="UTF-8"?>
<svg width="31px" height="31px" viewBox="0 0 31 31" version="1.1" xmlns="http://www.w3.org/2000/svg" xmlns:xlink="http://www.w3.org/1999/xlink">
    <title>awards_icon</title>
    <defs>
        <filter color-interpolation-filters="auto" id="filter-1">
            <feColorMatrix in="SourceGraphic" type="matrix" values="0 0 0 0 0.000000 0 0 0 0 0.705882 0 0 0 0 0.964706 0 0 0 1.000000 0"></feColorMatrix>
        </filter>
        <polygon id="path-2" points="7.70958913e-14 3.08383565e-14 30.3206483 3.08383565e-14 30.3206483 31 7.70958913e-14 31"></polygon>
    </defs>
    <g id="Page-1" stroke="none" stroke-width="1" fill="none" fill-rule="evenodd">
        <g id="superior_project_layout" transform="translate(-361.000000, -4008.000000)">
            <g id="Group-3" transform="translate(157.000000, 4008.000000)">
                <g id="awards_icon" transform="translate(204.000000, 0.000000)" filter="url(#filter-1)">
                    <g>
                        <mask id="mask-3" fill="white">
                            <use xlink:href="#path-2"></use>
                        </mask>
                        <g id="Clip-2"></g>
                        <path d="M26.9787614,19.4329793 C28.0923104,21.3333287 29.2070994,23.2342981 30.3206483,25.1346475 L24.1477678,26.3901801 L20.0110203,31 L17.3703716,26.4949629 C16.7491155,26.6009856 16.0044761,26.6809677 15.1600142,26.6809677 C14.3155522,26.6822077 13.5702928,26.6022257 12.9477966,26.4980629 C12.0679938,27.9978819 11.1894309,29.498941 10.3102481,31 L6.17288049,26.3901801 L7.70958913e-14,25.1346475 L3.31646623,19.4782404 C2.95561685,18.7850624 2.57058684,17.8922392 2.28041929,16.8196113 C1.9115097,15.4549558 1.8191273,14.2508845 1.8191273,13.3407009 C1.82904756,12.0058062 2.04171308,8.53495591 4.49325682,5.29103157 C7.37075164,1.47979247 11.8100671,0.00229405965 15.1600142,-0.000193202001 C17.3660315,-0.00266606932 19.2521206,0.636570551 19.5317478,0.732673049 C21.0625676,1.26340685 22.2188977,1.97890545 22.9877177,2.53505991 C23.4806305,2.89156918 23.5947135,3.59032735 23.2382042,4.08386018 C22.882935,4.57801303 22.1841768,4.69085596 21.6894039,4.33496671 C21.0669077,3.87615478 20.1275833,3.2846594 18.883211,2.83948783 C18.6593851,2.76012576 17.0578835,2.20087122 15.1854348,2.20149124 C12.2192777,2.20273127 8.62566427,3.61016786 6.30556394,6.65940714 C6.03771698,7.0115763 3.97988348,9.79110857 4.02452464,13.3624014 C4.03940502,14.6681554 4.33329267,15.8294456 4.4039745,16.1010126 C4.78032429,17.54007 5.36189941,18.6449388 5.81885129,19.3759378 C5.04073106,20.7740741 4.26385086,22.1715905 3.48635065,23.5697268 L7.32549046,24.3608674 L9.93947843,27.2904436 L11.8218474,23.9541368 C12.5826071,24.2021433 13.7271569,24.4805305 15.1376936,24.4724703 C16.4818885,24.4668901 17.5793171,24.2040033 18.3220964,23.9640571 C19.0103143,25.0664457 19.6997722,26.1688344 20.3892301,27.2718431 L22.9027755,24.3807079 L26.8249974,23.5796471 L24.3635335,19.5228816 C24.6816017,19.0343089 25.0920524,18.3281105 25.4529018,17.424127 C26.2496225,15.4295352 26.2886835,13.7629318 26.2924036,13.3283005 C26.2961237,12.7634659 26.2576827,11.8669225 26.0084362,10.7961547 C25.6320864,9.18721287 24.9643291,7.98624164 24.4776164,7.25028251 C24.1409477,6.74372934 24.2804513,6.04931128 24.7876245,5.71264253 C25.2941776,5.37597378 25.9879757,5.51609742 26.3246444,6.02265059 C26.8745987,6.8615324 27.5559965,8.10652477 28.0092282,9.72476684 C28.45998,11.3293686 28.5052411,12.6593031 28.501521,13.3407009 C28.498421,13.883215 28.4543998,15.4530958 27.8362437,17.3664655 C27.5597166,18.2220878 27.2422683,18.9196059 26.9787614,19.4329793 M15.1600142,4.45152974 C20.0717819,4.45152974 24.0529054,8.43389328 24.0529054,13.344421 C24.0529054,18.2574287 20.0717819,22.2379322 15.1600142,22.2379322 C10.2488665,22.2379322 6.26650293,18.2574287 6.26650293,13.344421 C6.26650293,8.43389328 10.2488665,4.45152974 15.1600142,4.45152974 M15.1600142,20.0548554 C11.4535578,20.0548554 8.44957969,17.0508773 8.44957969,13.344421 C8.44957969,9.63920462 11.4535578,6.6346065 15.1600142,6.6346065 C18.8664705,6.6346065 21.8710686,9.63920462 21.8710686,13.344421 C21.8710686,17.0508773 18.8664705,20.0548554 15.1600142,20.0548554" id="Fill-1" fill="#000000" mask="url(#mask-3)"></path>
                    </g>
                </g>
            </g>
        </g>
    </g>
</svg>