<?xml version="1.0" encoding="UTF-8"?>
<svg width="27px" height="23px" viewBox="0 0 27 23" version="1.1" xmlns="http://www.w3.org/2000/svg" xmlns:xlink="http://www.w3.org/1999/xlink">
    <title>related_projects</title>
    <defs>
        <polygon id="path-1" points="0 0 26.2177908 0 26.2177908 21.9998731 0 21.9998731"></polygon>
        <polygon id="path-3" points="8.56305948e-14 22 26.2180022 22 26.2180022 9.01374682e-15 8.56305948e-14 9.01374682e-15"></polygon>
    </defs>
    <g id="Page-1" stroke="none" stroke-width="1" fill="none" fill-rule="evenodd">
        <g id="superior_project_layout" transform="translate(-403.000000, -4308.000000)">
            <g id="related_projects" transform="translate(403.000000, 4308.027000)">
                <g id="Group-3" transform="translate(0.000000, 0.000127)">
                    <mask id="mask-2" fill="white">
                        <use xlink:href="#path-1"></use>
                    </mask>
                    <g id="Clip-2"></g>
                    <path d="M23.6806466,17.3371519 C23.6806466,18.5050839 22.7342918,19.4514387 21.5663598,19.4514387 L8.45778154,19.4514387 C8.73898168,18.8569012 8.8835989,18.2065466 8.8806389,17.5485805 L8.8806389,2.53714418 L13.8534415,2.53714418 L16.8641859,5.5478886 C17.1018317,5.78595729 17.4244719,5.92000308 17.7606435,5.92000308 L23.6806466,5.92000308 L23.6806466,17.3371519 Z M6.34352131,17.5485805 C6.34899187,18.5993811 5.50116286,19.4556672 4.44993945,19.4607811 C4.38355085,19.4611644 4.31673939,19.4582044 4.25035078,19.4514387 C3.25536741,19.3241586 2.51663559,18.4670267 2.53777846,17.4640091 L2.53777846,7.61143253 L6.34352131,7.61143253 L6.34352131,17.5485805 Z M24.9492187,3.3828589 L18.2849866,3.3828589 L15.2742422,0.372114479 C15.0365964,0.134045784 14.7139562,0 14.3777846,0 L6.34349472,0 L6.34349472,5.07428835 L0.000634286044,5.07428835 L0.000634286044,17.4174948 C-0.0382685913,19.747016 1.6984066,21.7255656 4.01355066,21.9885829 C4.22624791,22.0038057 4.43936802,22.0038057 4.65206527,21.9885829 L21.5663598,21.9885829 C24.1352183,21.9885829 26.2177908,19.9060103 26.2177908,17.3371519 L26.2177908,4.65143099 C26.2177908,3.95075634 25.6498933,3.3828589 24.9492187,3.3828589 L24.9492187,3.3828589 Z" id="Fill-1" fill="#FFFFFF" mask="url(#mask-2)"></path>
                </g>
                <mask id="mask-4" fill="white">
                    <use xlink:href="#path-3"></use>
                </mask>
                <g id="Clip-5"></g>
                <polygon id="Fill-4" fill="#FFFFFF" mask="url(#mask-4)" points="12.2637092 16.4914371 14.8008534 16.4914371 14.8008534 13.954293 12.2637092 13.954293"></polygon>
                <polygon id="Fill-6" fill="#FFFFFF" mask="url(#mask-4)" points="17.7608549 16.4914371 20.2979991 16.4914371 20.2979991 13.954293 17.7608549 13.954293"></polygon>
                <polygon id="Fill-7" fill="#FFFFFF" mask="url(#mask-4)" points="12.2637092 11.4171488 14.8008534 11.4171488 14.8008534 8.88000461 12.2637092 8.88000461"></polygon>
                <polygon id="Fill-8" fill="#FFFFFF" mask="url(#mask-4)" points="17.7608549 11.4171488 20.2979991 11.4171488 20.2979991 8.88000461 17.7608549 8.88000461"></polygon>
            </g>
        </g>
    </g>
</svg>