<?xml version="1.0" encoding="UTF-8"?>
<svg width="386px" height="386px" viewBox="0 0 386 386" version="1.1" xmlns="http://www.w3.org/2000/svg" xmlns:xlink="http://www.w3.org/1999/xlink">
    <title>teambuilding activities</title>
    <g id="teambuilding-activities" stroke="none" stroke-width="1" fill="none" fill-rule="evenodd" stroke-linecap="round" stroke-linejoin="round">
        <g id="Group-3" transform="translate(32.000000, 24.000000)" stroke="#E4002B" stroke-width="10">
            <path d="M64,134 C45.7779886,134 31,119.222011 31,101 C31,82.7779886 45.7779886,68 64,68 C82.2220114,68 97,82.7779886 97,101 C97,119.222011 82.2220114,134 64,134 Z" id="Path"></path>
            <path d="M26,185 C26,208.268204 26,244.68123 26,244.68123 C26,244.68123 26,244.68123 26,244.712379 L26,307.321602 L26,323.176375 C26,331.898058 31.5836735,339 40.1142857,339 C48.644898,339 55.5314286,331.929207 55.5314286,323.176375 L55.5314286,307.134709 L55.5314286,286.919094 L55.5314286,260.722896 C55.5314286,256.019417 59.3159184,252.219256 64,252.219256 L64,252.219256 C68.6840816,252.219256 72.4685714,256.019417 72.4685714,260.722896 L72.4685714,286.919094 L72.4685714,307.134709 L72.4685714,323.176375 C72.4685714,331.898058 79.3861224,339 87.8857143,339 C96.4163265,339 102,331.929207 102,323.176375 L102,307.321602 L102,244.712379 C102,244.712379 102,244.712379 102,244.68123 L102,185" id="Path"></path>
            <path d="M161,134 C142.777989,134 128,119.222011 128,101 C128,82.7779886 142.777989,68 161,68 C179.222011,68 194,82.7779886 194,101 C194,119.222011 179.222011,134 161,134 Z" id="Path"></path>
            <path d="M123,185 C123,208.268204 123,244.68123 123,244.68123 C123,244.68123 123,244.68123 123,244.712379 L123,307.321602 L123,323.176375 C123,331.898058 128.583673,339 137.114286,339 C145.644898,339 152.531429,331.929207 152.531429,323.176375 L152.531429,307.134709 L152.531429,286.919094 L152.531429,260.722896 C152.531429,256.019417 156.315918,252.219256 161,252.219256 L161,252.219256 C165.684082,252.219256 169.468571,256.019417 169.468571,260.722896 L169.468571,286.919094 L169.468571,307.134709 L169.468571,323.176375 C169.468571,331.898058 176.386122,339 184.885714,339 C193.416327,339 199,331.929207 199,323.176375 L199,307.321602 L199,244.712379 C199,244.712379 199,244.712379 199,244.68123 L199,185" id="Path"></path>
            <path d="M255,134 C236.777989,134 222,119.222011 222,101 C222,82.7779886 236.777989,68 255,68 C273.222011,68 288,82.7779886 288,101 C287.968691,119.222011 273.222011,134 255,134 Z" id="Path"></path>
            <path d="M217,185 C217,208.268204 217,244.68123 217,244.68123 C217,244.68123 217,244.68123 217,244.712379 L217,307.321602 L217,323.176375 C217,331.898058 222.583673,339 231.114286,339 C239.644898,339 246.531429,331.929207 246.531429,323.176375 L246.531429,307.134709 L246.531429,286.919094 L246.531429,260.722896 C246.531429,256.019417 250.315918,252.219256 255,252.219256 L255,252.219256 C259.684082,252.219256 263.468571,256.019417 263.468571,260.722896 L263.468571,286.919094 L263.468571,307.134709 L263.468571,323.176375 C263.468571,331.898058 270.386122,339 278.885714,339 C287.416327,339 293,331.929207 293,323.176375 L293,307.321602 L293,244.712379 C293,244.712379 293,244.712379 293,244.68123 L293,185" id="Path"></path>
            <path d="M27.3191448,234.303222 C27.3191448,242.402085 20.9312404,249 13.0548921,249 C5.17854391,249 0,242.433354 0,234.303222 L0,228.049274 L0,215.697726 L0,183.583702 C0,165.040745 14.9154468,150 33.3039291,150 L33.3039291,150 L42.3586287,150 L97.6171032,150 L224.382897,150 L279.641371,150 L288.696071,150 L288.696071,150 C307.084553,150 322,165.040745 322,183.583702 L322,215.697726 L322,228.049274 L322,234.303222 C322,242.402085 316.821456,249 308.945108,249 C301.06876,249 294.680855,242.433354 294.680855,234.303222" id="Path"></path>
            <path d="M207.266289,0 L112.733711,0 C99.6136413,0 89,10.8702222 89,24.2368036 L89,24.2368036 C89,37.6349845 99.6445849,48.4736072 112.733711,48.4736072 L115.116365,48.4736072 C115.859011,48.4736072 116.477882,49.0739974 116.477882,49.8639845 L116.477882,64.6209432 C116.477882,65.853323 117.932229,66.4537132 118.767705,65.6005271 L135.105905,48.916 C135.353454,48.6632041 135.693833,48.5052067 136.065156,48.5052067 L207.266289,48.5052067 C220.386359,48.5052067 231,37.6349845 231,24.2684031 L231,24.2684031 C231,10.8386227 220.386359,0 207.266289,0 Z" id="Path"></path>
            <line x1="137" y1="24" x2="184" y2="24" id="Path" stroke-dasharray="0.3891,4.669"></line>
        </g>
    </g>
</svg>