<?xml version="1.0" encoding="UTF-8"?>
<svg width="386px" height="386px" viewBox="0 0 386 386" version="1.1" xmlns="http://www.w3.org/2000/svg" xmlns:xlink="http://www.w3.org/1999/xlink">
    <title>team oriented culture</title>
    <g id="team-oriented-culture" stroke="none" stroke-width="1" fill="none" fill-rule="evenodd">
        <g id="Group" transform="translate(28.000000, 36.000000)" fill="#E4002B" fill-rule="nonzero">
            <path d="M130.522721,314 C127.243114,314 123.994159,313.692664 120.745203,313.077993 C120.653251,313.047259 120.5613,313.047259 120.469348,313.016526 L3.81344615,283.973299 C1.14685039,283.29716 -0.477627491,280.592606 0.166033555,277.918785 C0.840345127,275.244964 3.53759142,273.616084 6.20418718,274.261489 L122.737487,303.273983 C127.948076,304.257457 133.219967,304.226724 138.399906,303.273983 C163.747891,298.510279 224.31333,287.231057 239.148185,285.171908 C241.293722,284.864572 243.347307,284.188434 245.27829,283.143492 L313.996769,239.163748 C314.119371,239.071548 314.241974,239.01008 314.395226,238.948613 C318.379795,236.889464 320.126875,232.002826 318.287843,228.099662 C317.337677,226.071246 315.651898,224.565301 313.537011,223.858429 C311.422125,223.151557 309.184637,223.305224 307.223003,224.350166 L239.301437,260.124046 C239.240136,260.154779 239.178835,260.185513 239.117534,260.216246 C237.401105,261.046053 235.562073,261.261188 234.887762,261.322655 C234.090848,261.414856 233.01808,261.507056 231.822709,261.384122 L154.031674,253.762196 C146.307742,252.963123 140.729346,246.048069 141.526259,238.333942 C142.323173,230.650548 149.250192,225.026305 156.912824,225.825377 L183.701383,228.622133 L207.945949,231.080819 C210.857749,231.388154 213.708248,230.496881 215.945737,228.591399 C218.183225,226.685917 219.531848,224.04283 219.715751,221.092407 C220.083558,215.406696 215.608581,210.274189 209.72368,209.690251 L144.376758,203.051799 C143.150737,202.928865 141.924716,203.021066 140.698695,203.328402 C140.484142,203.389869 140.269588,203.420602 140.055034,203.451336 C129.940361,204.619212 98.8300768,223.305224 82.1255401,233.324369 C76.8229991,236.520661 72.2560707,239.255949 69.068416,241.038496 C67.8117445,241.745369 66.3098687,241.868303 64.9612455,241.407299 L3.32303773,219.555728 C0.717743023,218.633721 -0.630880121,215.775499 0.288635659,213.163145 C1.20815144,210.550791 4.05865036,209.198514 6.66394507,210.120521 L66.156616,231.203753 C69.068416,229.513406 72.8077802,227.269855 77.0375528,224.749702 C102.967898,209.167781 127.151163,195.091804 138.61446,193.555125 C140.851948,193.032654 143.150737,192.878987 145.388226,193.094122 L210.735147,199.732573 C221.891939,200.869716 230.382134,210.735193 229.646522,221.737812 C229.278715,227.423523 226.704071,232.55603 222.382347,236.213325 C218.060623,239.870621 212.574179,241.591701 206.934482,241.007763 L182.689916,238.549077 L155.901356,235.752322 C153.694518,235.506453 151.702234,237.135332 151.45703,239.34815 C151.211826,241.560967 152.836304,243.558649 155.043141,243.804518 L232.834176,251.426444 C233.110031,251.457178 233.508488,251.426444 233.784343,251.364977 C233.814993,251.364977 233.845644,251.364977 233.876294,251.364977 C233.937595,251.364977 233.968246,251.364977 234.029547,251.364977 C234.244101,251.334243 234.642558,251.272776 234.826461,251.180576 L302.625424,215.468163 C307.0391,213.163145 312.065786,212.794342 316.755317,214.392488 C321.444847,215.990634 325.184211,219.340593 327.329748,223.827695 C331.406268,232.463829 327.758856,243.128379 319.238009,247.707682 L250.550181,291.656692 C250.458229,291.718159 250.396928,291.748893 250.304976,291.81036 C247.270574,293.500706 243.990968,294.607115 240.558109,295.098852 C225.508701,297.188735 160.008527,309.420698 140.269588,313.13946 C136.989982,313.723398 133.771676,314 130.522721,314 Z" id="Path"></path>
            <g transform="translate(110.000000, 70.000000)">
                <path d="M54.3964384,63.1903867 C37.0385152,63.1903867 22.887029,49.0862974 22.887029,31.7179429 C22.887029,14.3495884 37.0076841,0.245499129 54.3964384,0.245499129 C71.7543616,0.245499129 85.9058478,14.3495884 85.9058478,31.7179429 C85.9058478,49.0862974 71.7543616,63.1903867 54.3964384,63.1903867 Z M54.3964384,10.2846544 C42.5572865,10.2846544 32.9379756,19.8926803 32.9379756,31.7179429 C32.9379756,43.5432055 42.5572865,53.1512314 54.3964384,53.1512314 C66.2355903,53.1512314 75.8549012,43.5432055 75.8549012,31.7179429 C75.8549012,19.8926803 66.2355903,10.2846544 54.3964384,10.2846544 Z" id="Shape"></path>
                <path d="M5.2207945,118.405741 C2.44599327,118.405741 0.19532117,116.157709 0.19532117,113.386163 L0.19532117,95.1555497 C0.19532117,78.7726338 7.56395997,63.5291312 20.3588767,53.3360012 L29.0532539,46.4071363 C31.2114326,44.6826189 34.3870385,45.0521583 36.1135814,47.2078052 C37.8401244,49.363452 37.4701509,52.5353323 35.3119722,54.2598498 L26.617595,61.1887146 C16.1966749,69.4725575 10.2154367,81.8521293 10.2154367,95.1863447 L10.2154367,113.416958 C10.2462678,116.157709 7.99559572,118.405741 5.2207945,118.405741 Z" id="Path"></path>
                <path d="M101.907202,118.405741 C99.1324003,118.405741 96.8817282,116.157709 96.8817282,113.386163 L96.8817282,95.1555497 C96.8817282,81.8521293 90.90049,69.4725575 80.4795699,61.1579197 L71.7851927,54.2290549 C69.627014,52.5045374 69.2570405,49.363452 70.9835835,47.1770102 C72.7101265,45.0213634 75.8549012,44.6518239 78.043911,46.3763414 L86.7382882,53.3052062 C99.5640361,63.4983362 106.901844,78.7418389 106.901844,95.1247548 L106.901844,113.355368 C106.901844,116.157709 104.682003,118.405741 101.907202,118.405741 Z" id="Path"></path>
            </g>
            <g transform="translate(56.000000, 85.000000)">
                <path d="M41.8885974,49.859742 C28.3435984,49.859742 17.3363757,38.7863389 17.3363757,25.1599011 C17.3363757,11.5334634 28.3435984,0.460060306 41.8885974,0.460060306 C55.4335965,0.460060306 66.4408192,11.5334634 66.4408192,25.1599011 C66.4408192,38.7863389 55.4335965,49.859742 41.8885974,49.859742 Z M41.8885974,10.4568826 C33.8166341,10.4568826 27.2734518,17.0394055 27.2734518,25.1599011 C27.2734518,33.2803968 33.8166341,39.8629197 41.8885974,39.8629197 C49.9605607,39.8629197 56.5037431,33.2803968 56.5037431,25.1599011 C56.5037431,17.0394055 49.9299851,10.4568826 41.8885974,10.4568826 Z" id="Shape"></path>
                <path d="M5.50361134,123.990024 C2.75180567,123.990024 0.519785516,121.744584 0.519785516,118.976233 L0.519785516,72.4064211 C0.519785516,59.8258048 6.14569933,48.1064532 15.9298973,40.2627926 L22.3507772,35.125964 C24.4910705,33.4034346 27.6403592,33.772548 29.3525938,35.9257097 C31.0648285,38.0788714 30.697921,41.2470951 28.5576277,42.9696245 L22.1367478,48.1372126 C14.7374482,54.0737871 10.4874372,62.9325096 10.4874372,72.46794 L10.4874372,119.037752 C10.4568616,121.744584 8.25541701,123.990024 5.50361134,123.990024 Z" id="Path"></path>
            </g>
            <g transform="translate(207.000000, 85.000000)">
                <path d="M24.8544943,49.859742 C11.1663931,49.859742 0.0428797568,38.7863389 0.0428797568,25.1599011 C0.0428797568,11.5334634 11.1663931,0.460060306 24.8544943,0.460060306 C38.5425955,0.460060306 49.6661089,11.5334634 49.6661089,25.1599011 C49.6661089,38.7863389 38.5425955,49.859742 24.8544943,49.859742 Z M24.8544943,10.4568826 C16.6972512,10.4568826 10.0849404,17.0394055 10.0849404,25.1599011 C10.0849404,33.2803968 16.6972512,39.8629197 24.8544943,39.8629197 C33.0117375,39.8629197 39.6240482,33.2803968 39.6240482,25.1599011 C39.6240482,17.0394055 32.9808388,10.4568826 24.8544943,10.4568826 Z" id="Shape"></path>
                <path d="M60.3570412,123.990024 C57.5761629,123.990024 55.3205615,121.744584 55.3205615,118.976233 L55.3205615,72.4064211 C55.3205615,62.8709906 51.0256494,54.0122682 43.5481765,48.0756937 L37.0594604,42.9081056 C34.896555,41.1855762 34.5257712,38.048112 36.2560955,35.8641908 C37.9864198,33.7110291 41.138082,33.3419157 43.331886,35.064445 L49.8206021,40.2012737 C59.7081696,48.0449343 65.3935209,59.7642859 65.3935209,72.3449022 L65.3935209,118.914714 C65.3935209,121.744584 63.1379195,123.990024 60.3570412,123.990024 Z" id="Path"></path>
            </g>
            <path d="M163,29 C160.239264,29 158,26.7785939 158,24.0398741 L158,4.96012592 C158,2.22140609 160.239264,0 163,0 C165.760736,0 168,2.22140609 168,4.96012592 L168,24.0398741 C167.969325,26.7785939 165.760736,29 163,29 Z" id="Path"></path>
            <path d="M205.889239,40 C205.196583,40 204.473812,39.851215 203.811272,39.5536451 C201.371919,38.4228794 200.317878,35.5364512 201.462266,33.1261348 L209.683788,15.7778085 C210.828175,13.3674921 213.749375,12.3259974 216.188728,13.4567631 C218.628081,14.5875288 219.682122,17.473957 218.537734,19.8842734 L210.316212,37.2325997 C209.503095,38.9585053 207.726282,40 205.889239,40 Z" id="Path"></path>
            <path d="M239.858938,67 C238.336696,67 236.844301,66.2672182 235.889168,64.8932522 C234.337077,62.6643741 234.874339,59.5500513 237.053236,57.9623573 L252.335359,46.9095646 C254.514256,45.3218706 257.558741,45.871457 259.110832,48.1003351 C260.662923,50.3292132 260.125661,53.443536 257.946764,55.03123 L242.664641,66.0840227 C241.799052,66.6946742 240.814071,67 239.858938,67 Z" id="Path"></path>
            <path d="M120.110761,40 C118.273718,40 116.496905,38.9596519 115.683788,37.2059221 L107.462266,19.8766945 C106.317878,17.4690317 107.371919,14.5857811 109.811272,13.4562603 C112.250625,12.3267394 115.171825,13.3670876 116.316212,15.7747504 L124.537734,33.103978 C125.682122,35.5116409 124.628081,38.3948914 122.188728,39.5244123 C121.526188,39.8513788 120.803417,40 120.110761,40 Z" id="Path"></path>
            <path d="M86.1410617,67 C85.185929,67 84.2009484,66.6946742 83.3353593,66.0840227 L68.053236,55.03123 C65.8743395,53.443536 65.3370773,50.3597457 66.889168,48.1003351 C68.4412586,45.871457 71.4558963,45.3218706 73.6646407,46.9095646 L88.946764,57.9623573 C91.1256605,59.5500513 91.6629227,62.6338415 90.110832,64.8932522 C89.1855472,66.2672182 87.6633044,67 86.1410617,67 Z" id="Path"></path>
        </g>
    </g>
</svg>