<?xml version="1.0" encoding="UTF-8"?>
<svg width="386px" height="386px" viewBox="0 0 386 386" version="1.1" xmlns="http://www.w3.org/2000/svg" xmlns:xlink="http://www.w3.org/1999/xlink">
    <title>Time Off</title>
    <g id="Time-Off" stroke="none" stroke-width="1" fill="none" fill-rule="evenodd">
        <g id="elderly_man" transform="translate(53.000000, 25.000000)" fill-rule="nonzero">
            <g id="Group" transform="translate(229.654135, 254.842712)">
                <path d="M3.55210526,3.48684485 L45.5489474,48.8548988 L3.55210526,3.48684485 Z" id="Path" fill="#FFFFFF"></path>
                <path d="M45.5489474,52.2721783 C44.6259398,52.2721783 43.7239098,51.9157749 43.0526316,51.1820032 L1.05578947,5.81394928 C-0.223834586,4.43026556 -0.139924812,2.29184527 1.24458647,1.01298608 C2.62909774,-0.265873111 4.76879699,-0.182013492 6.04842105,1.20167022 L48.0452632,46.5697242 C49.3248872,47.9534079 49.2409774,50.0918282 47.8564662,51.3706874 C47.2061654,51.9786696 46.3670677,52.2721783 45.5489474,52.2721783 Z" id="Path" fill="#E4002B"></path>
            </g>
            <g id="Group" transform="translate(106.054582, 254.842712)">
                <path d="M46.1577488,3.48684485 L4.16090666,48.8548988 L46.1577488,3.48684485 Z" id="Path" fill="#FFFFFF"></path>
                <path d="M4.16090666,52.2721783 C3.34278636,52.2721783 2.50368861,51.9786696 1.85338786,51.3706874 C0.468876585,50.0918282 0.38496681,47.9534079 1.66459087,46.5697242 L43.661433,1.20167022 C44.941057,-0.182013492 47.0807563,-0.265873111 48.4652676,1.01298608 C49.8497788,2.29184527 49.9336886,4.43026556 48.6540646,5.81394928 L6.65722245,51.1820032 C5.98594425,51.89481 5.08391418,52.2721783 4.16090666,52.2721783 Z" id="Path" fill="#E4002B"></path>
            </g>
            <g id="Group" transform="translate(47.317740, 168.886602)">
                <polygon id="Path" fill="#FFFFFF" points="18.1528615 4.1367569 85.0918841 89.4429545 224.990456 89.4429545 224.990456 99.7786525 80.2460946 99.7786525 3.88819989 4.1367569"></polygon>
                <path d="M224.990456,103.174967 L80.2460946,103.174967 C79.2181999,103.174967 78.23226,102.713739 77.5819593,101.896108 L1.245042,6.25421228 C0.426921698,5.22693194 0.280079592,3.84324823 0.84647057,2.66921356 C1.41286155,1.49517889 2.60857583,0.740442319 3.90917734,0.740442319 L18.173839,0.740442319 C19.2227112,0.740442319 20.208651,1.22263513 20.8589518,2.04026642 L86.7700796,86.0466399 L225.03241,86.0466399 C226.92038,86.0466399 228.430756,87.577078 228.430756,89.4429545 L228.430756,99.7576876 C228.388801,101.644529 226.878425,103.174967 224.990456,103.174967 Z M81.8823352,96.382338 L221.59211,96.382338 L221.59211,92.860234 L85.0918841,92.860234 C84.0430119,92.860234 83.0570721,92.3780412 82.4067713,91.5604099 L16.4956435,7.55403638 L10.9575984,7.55403638 L81.8823352,96.382338 Z" id="Shape" fill="#E4002B"></path>
            </g>
            <g id="Group" transform="translate(64.099695, 132.078900)">
                <ellipse id="Oval" fill="#FFFFFF" transform="translate(22.739779, 23.324599) rotate(-9.218364) translate(-22.739779, -23.324599) " cx="22.7397789" cy="23.3245992" rx="19.0475166" ry="19.0367156"></ellipse>
                <path d="M22.7259443,45.7663872 C10.3492525,45.7663872 0.280079592,35.7032329 0.280079592,23.333939 C0.280079592,10.9646452 10.3492525,0.901490906 22.7259443,0.901490906 C35.102636,0.901490906 45.1718089,10.9646452 45.1718089,23.333939 C45.1718089,35.7032329 35.102636,45.7663872 22.7259443,45.7663872 Z M22.7259443,7.69412006 C14.1042149,7.69412006 7.07677132,14.6963983 7.07677132,23.333939 C7.07677132,31.9505149 14.0832375,38.973758 22.7259443,38.973758 C31.368651,38.973758 38.3751172,31.9714798 38.3751172,23.333939 C38.3751172,14.7173632 31.3476736,7.69412006 22.7259443,7.69412006 Z" id="Shape" fill="#E4002B"></path>
            </g>
            <g id="Group" transform="translate(98.593985, 154.211169)">
                <path d="M24.3757895,40.3012177 C36.2909774,40.3012177 53.6812782,36.1920963 72.5609774,18.1203484 C75.8124812,15.0175425 76.0642105,9.69245666 73.1693233,6.23324737 C70.2534586,2.77403808 65.2608271,2.48052942 62.0303008,5.60430023 C47.9124812,19.1266638 35.3679699,22.7116625 27.333609,23.3615746 C19.4460902,23.9905217 14.5583459,21.9778909 14.516391,21.956926 C10.5096992,20.1539442 5.87368421,22.166575 4.17451128,26.4434156 C2.47533835,30.7202562 4.36330827,35.6679737 8.39097744,37.4709555 C8.91541353,37.7225344 14.9359398,40.3012177 24.3757895,40.3012177 Z" id="Path" fill="#FFFFFF"></path>
                <path d="M24.3757895,43.6975322 C14.2227068,43.6975322 7.6987218,40.888235 6.98548872,40.5737614 C1.34255639,38.0370079 -1.34255639,31.1395543 1.00691729,25.2064862 C2.20263158,22.1875399 4.44721805,19.8814004 7.34210526,18.7073657 C10.0901504,17.5962258 13.0899248,17.6381556 15.8169925,18.8331552 C16.1945865,18.9799095 20.4320301,20.5103475 27.0609023,19.9862249 C34.5498496,19.3992076 46.2762406,15.9819281 59.6598496,3.17237127 C61.9044361,1.01298608 64.8203008,-0.0771889676 67.8620301,0.0905302707 C70.9247368,0.258249509 73.7357143,1.66289813 75.7495489,4.07386218 C79.7981955,8.87482538 79.3996241,16.2754368 74.9104511,20.5942072 C54.9609023,39.6932354 36.4168421,43.6975322 24.3757895,43.6975322 Z M11.4327068,24.7033285 C10.9082707,24.7033285 10.404812,24.808153 9.90135338,24.9968372 C8.72661654,25.47903 7.82458647,26.4224507 7.32112782,27.7013099 C6.29323308,30.321923 7.38406015,33.2989395 9.75451128,34.3681496 C9.98526316,34.4729741 15.4813534,36.9049031 24.354812,36.9049031 C35.137218,36.9049031 51.8562406,33.2150798 70.1905263,15.6674545 C72.1204511,13.8225429 72.2882707,10.510088 70.5471429,8.43456238 C69.75,7.49114166 68.6591729,6.92508923 67.4844361,6.86219452 C66.3516541,6.7992998 65.2188722,7.2185979 64.358797,8.05719409 C49.5277444,22.2713995 36.1651128,26.0660473 27.5853383,26.7578892 C18.6489474,27.4706959 13.1738346,25.1016617 13.1109023,25.0806968 C12.5864662,24.8291179 12.0200752,24.7033285 11.4327068,24.7033285 Z" id="Shape" fill="#E4002B"></path>
            </g>
            <g id="Group" transform="translate(141.716236, 134.175391)">
                <g transform="translate(10.321358, 9.553326)">
                    <polygon id="Path" fill="#FFFFFF" points="21.7185714 3.92710785 21.7395489 26.9046435 13.2227068 28.7914849 3.48917293 7.97333447"></polygon>
                    <path d="M13.2227068,32.1877995 C11.9221053,32.1877995 10.7054135,31.4330629 10.1390226,30.2170985 L0.405488722,9.398948 C-0.035037594,8.45552728 -0.0140601504,7.38631714 0.426466165,6.46386133 C0.887969925,5.54140552 1.72706767,4.87052856 2.73398496,4.63991461 L20.9843609,0.572723081 C21.9912782,0.342109128 23.0401504,0.593687986 23.8582707,1.24360003 C24.6554135,1.89351208 25.1378947,2.8578977 25.1378947,3.88517804 L25.1588722,26.8627137 C25.1588722,28.4560465 24.0470677,29.8397302 22.4947368,30.1751686 L13.9778947,32.0620101 C13.705188,32.1668346 13.4744361,32.1877995 13.2227068,32.1877995 Z M8.35593985,10.3842985 L15.1316541,24.8920126 L18.3202256,24.1792059 L18.2992481,8.16201861 L8.35593985,10.3842985 Z" id="Shape" fill="#E4002B"></path>
                </g>
                <g id="Path">
                    <polygon fill="#FFFFFF" points="19.1388014 16.3526257 9.88774877 4.10912134 4.01406455 6.89745368"></polygon>
                    <path d="M19.1597788,19.7489403 C18.1318841,19.7489403 17.1039894,19.2877124 16.4536886,18.4071864 L8.85985403,8.38596192 L5.50346305,9.97929468 C3.80429012,10.7759611 1.76947809,10.0631543 0.972335231,8.36499701 C0.175192374,6.66683972 0.888425457,4.63324396 2.58759839,3.83657758 L8.4612826,1.04824524 C9.90872621,0.356403381 11.6708315,0.775701477 12.6357939,2.07552557 L21.8868465,14.31903 C23.0196285,15.8075382 22.7259443,17.9459585 21.2365458,19.0780634 C20.586245,19.5183264 19.8730119,19.7489403 19.1597788,19.7489403 Z" fill="#E4002B"></path>
                </g>
            </g>
            <g id="Group" transform="translate(93.468116, 165.622748)">
                <path d="M9.55210967,8.80526001 C9.55210967,8.80526001 19.4115082,1.02728033 26.3130871,6.1217522 C32.2916585,10.5243822 36.1095533,14.6754334 40.8924104,20.3359576 L61.2824856,38.7221791 C66.2331623,43.8376159 70.1769217,49.8126138 73.0508315,56.3326992 C73.0508315,56.3536641 73.0718089,56.3536641 73.0718089,56.374629 L147.394892,56.374629 C154.736997,56.374629 160.694591,62.3286619 160.694591,69.6663786 L160.694591,69.6663786 C160.694591,77.0040953 154.736997,82.9581283 147.394892,82.9581283 L57.4645909,82.9581283 C57.3597037,82.9581283 57.2548164,82.9581283 57.1499292,82.9581283 C51.1084255,83.3145316 45.0249668,80.7358483 41.0812074,75.5575169 L8.54519237,32.6004269 C2.33586907,24.3612194 1.30797433,15.0528016 9.55210967,8.80526001 Z" id="Path" fill="#FFFFFF"></path>
                <path d="M56.0800796,86.3963726 C49.1575232,86.3963726 42.6335382,83.1677773 38.4170721,77.6120775 L5.88105704,34.6549876 C2.18902696,29.7911297 0.237994659,24.7176227 0.237994659,19.9585894 C0.217147261,14.5077141 2.73444049,9.70675092 7.49632019,6.10078729 C8.31444049,5.47184015 19.6212826,-3.081841 28.3478991,3.37534967 C34.3054931,7.77797968 38.2492525,11.9080659 43.3677488,17.9459585 L63.5900044,36.1644608 C63.6529367,36.2063906 63.6948916,36.2692853 63.757824,36.33218 C68.393839,41.1121783 72.2746661,46.688843 75.2744405,52.9363846 L147.436847,52.9363846 C156.645944,52.9363846 164.155869,60.4208556 164.155869,69.6454137 C164.155869,78.8490069 156.666922,86.3544428 147.436847,86.3544428 L57.5065458,86.3544428 C57.422636,86.3544428 57.3387262,86.3544428 57.233839,86.3544428 C56.856245,86.3754077 56.478651,86.3963726 56.0800796,86.3963726 Z M20.8379743,7.79894458 C16.5166209,7.79894458 11.7127864,11.4258731 11.649854,11.4887678 C11.6288766,11.4887678 11.6078991,11.5097327 11.6078991,11.5306976 C8.56616982,13.8368372 7.03481643,16.6670993 7.03481643,19.9585894 C7.03481643,23.2291145 8.52421493,26.8979728 11.2932375,30.5668312 L43.8292525,73.5239211 C46.9339142,77.6120775 51.842636,79.8762873 56.9821097,79.5827786 C57.0660194,79.5827786 57.1709067,79.5827786 57.2548164,79.5827786 L57.4855683,79.5827786 L147.394892,79.5827786 C152.849027,79.5827786 157.296245,75.1382188 157.296245,69.6873435 C157.296245,64.2364683 152.849027,59.7919085 147.394892,59.7919085 L73.0927864,59.7919085 C71.7712074,59.7919085 70.5545157,59.016207 70.0091021,57.8212074 C70.0091021,57.8002425 69.9881247,57.7792776 69.9671473,57.7373478 L69.9671473,57.7373478 C67.1771473,51.4478764 63.4641397,45.8921766 58.9330119,41.1960379 L38.6268465,22.893676 C38.5219593,22.7888515 38.3960946,22.684027 38.3121849,22.5582376 C33.3405307,16.6880642 29.8163202,12.9563112 24.2992525,8.88911963 C23.2713578,8.11341815 22.0756435,7.79894458 20.8379743,7.79894458 Z" id="Shape" fill="#E4002B"></path>
            </g>
            <g id="Group" transform="translate(59.904206, 126.956793)">
                <path d="M3.86722245,37.1774468 C6.95090666,28.120608 4.20286155,13.7177184 4.20286155,13.7177184 C14.4188766,12.6275433 26.2711322,3.7174588 26.2711322,3.7174588 C35.3753428,10.9713159 47.7939894,14.2208761 47.7939894,14.2208761 L3.86722245,37.1774468 Z" id="Path" fill="#FFFFFF"></path>
                <path d="M3.88819989,40.5737614 C3.09105704,40.5737614 2.31489162,40.3012177 1.66459087,39.7561301 C0.61571869,38.8546392 0.217147261,37.3870959 0.657673577,36.0872718 C3.40571869,28.0157835 0.888425457,14.4934199 0.867448013,14.3676304 C0.699628464,13.4451746 0.909402901,12.480789 1.47579388,11.7050875 C2.04218486,10.950351 2.90226004,10.4471932 3.84624501,10.3423687 C13.0343653,9.35701819 24.131433,1.0758808 24.2363202,0.992021177 C25.4739894,0.0695653659 27.1941397,0.0905302707 28.4108315,1.05491589 C36.8437638,7.78465033 48.5491773,10.9084211 48.675042,10.929386 C50.0385758,11.2857894 51.0245157,12.4388592 51.1923352,13.8435078 C51.3601548,15.2481564 50.6259443,16.5899103 49.3882751,17.2398224 L5.46150816,40.1754282 C4.95804952,40.447972 4.41263598,40.5737614 3.88819989,40.5737614 Z M8.08368861,16.4850858 C8.52421493,19.9233302 9.02767358,25.47903 8.54519237,30.9089403 L39.2351924,14.8707881 C35.3753428,13.2984203 30.5924856,11.0132457 26.2291773,7.91043976 C22.7259443,10.279474 15.4467713,14.7240338 8.08368861,16.4850858 Z" id="Shape" fill="#E4002B"></path>
            </g>
            <g id="Group" transform="translate(90.203008, 177.272564)">
                <path d="M6.33518797,20.2587687 L39.5005263,64.3898933 C42.8359398,68.8134882 49.1291729,69.7149791 53.5554135,66.3815592 L53.5554135,66.3815592 C57.9816541,63.0481394 58.8836842,56.7586679 55.5482707,52.335073 L22.3829323,8.20394842 C19.0475188,3.78035351 12.7542857,2.87886261 8.32804511,6.21228247 L8.32804511,6.21228247 C3.90180451,9.52473743 2.99977444,15.8142089 6.33518797,20.2587687 Z" id="Path" fill="#FFFFFF"></path>
                <path d="M47.5558647,71.7905047 C46.9265414,71.7905047 46.2762406,71.7485748 45.6469173,71.6647152 C42.1017293,71.1615575 38.9551128,69.295681 36.7944361,66.423489 L3.62909774,22.2923644 L3.62909774,22.2923644 C-0.818120301,16.3592964 0.377593985,7.93140466 6.29323308,3.48684485 C9.16714286,1.32745965 12.6913534,0.425968747 16.2575188,0.929126462 C19.8027068,1.43228418 22.9493233,3.2981607 25.11,6.17035266 L58.2753383,50.3014772 C62.7225564,56.2345453 61.5268421,64.662437 55.611203,69.1069968 C53.2407519,70.8470839 50.4507519,71.7905047 47.5558647,71.7905047 Z M9.0412782,18.204208 L42.2066165,62.3353326 C43.2764662,63.7609461 44.828797,64.662437 46.5909023,64.9140159 C48.3530075,65.1655947 50.0941353,64.7043668 51.5206015,63.6561216 C54.4574436,61.4548066 55.044812,57.2827905 52.8421805,54.3686688 L19.6768421,10.2375442 C18.6069925,8.81193066 17.0546617,7.91043976 15.2925564,7.6588609 C13.5304511,7.40728204 11.7893233,7.86850995 10.3628571,8.91675519 C7.44699248,11.1180702 6.85962406,15.2900862 9.0412782,18.204208 L9.0412782,18.204208 Z" id="Shape" fill="#E4002B"></path>
            </g>
            <g id="Group" transform="translate(0.000000, 45.193664)">
                <path d="M4.23744361,258.524912 C-0.671278195,74.1805038 98.3842105,4.24158142 98.3842105,4.24158142 C98.3842105,4.24158142 -1.65721805,124.768819 25.1309774,258.524912 L4.23744361,258.524912 Z" id="Path" fill="#FFFFFF"></path>
                <path d="M25.1309774,261.921226 L4.23744361,261.921226 C2.39142857,261.921226 0.881052632,260.453683 0.839097744,258.608771 C-0.293684211,216.238699 4.00669173,176.384415 13.5933835,140.157059 C21.2711278,111.120666 32.3681955,84.3275177 46.5489474,60.5113859 C70.7988722,19.8394706 95.3844361,2.18702075 96.4123308,1.45324908 C97.7968421,0.467898557 99.7057895,0.677547605 100.880526,1.91447699 C102.034286,3.17237127 102.097218,5.08017761 101.006391,6.40096661 C100.754662,6.69447528 75.9383459,36.8629733 54.7301504,82.8180446 C35.2211278,125.062328 14.8310526,189.718094 28.4873684,257.854035 C28.6971429,258.86035 28.4244361,259.88763 27.7741353,260.684297 C27.1028571,261.459998 26.1378947,261.921226 25.1309774,261.921226 Z M7.5518797,255.128597 L21.0193985,255.128597 C15.607218,225.379397 15.9218797,193.994935 21.9214286,161.750911 C26.9350376,134.831973 35.9133835,107.263124 48.6047368,79.7990983 C56.9747368,61.7063854 65.8901504,46.0246367 73.6937594,33.5714832 C66.9390226,41.7897259 59.5130075,51.9996345 52.1709023,64.3479635 C30.7319549,100.470494 5.72684211,162.757227 7.5518797,255.128597 Z" id="Shape" fill="#E4002B"></path>
            </g>
            <g id="Group" transform="translate(12.586466, 0.000000)">
                <path d="M75.8334586,57.6325233 C75.8334586,57.6325233 97.4402256,82.7275143 90.8113534,116.229432 C90.8113534,116.229432 109.963759,85.1804082 94.6502256,55.2215592 C94.6502256,55.2215592 141.325038,72.8740091 145.478571,113.39917 C145.478571,113.39917 154.561805,46.3743694 101.530827,40.5880557 C101.530827,40.5880557 117.34782,28.7428845 151.603985,41.0283187 C151.603985,41.0283187 116.739474,8.42789173 89.8254135,28.6799898 C89.8254135,28.6799898 83.5741353,6.81359406 67.7990977,3.9204372 C67.7990977,3.9204372 79.2108271,17.4637657 77.5326316,29.0154282 C77.5326316,29.0154282 48.1642105,3.9204372 18.6489474,33.690602 C18.6489474,33.690602 54.667218,21.6777116 71.0925564,40.5041961 C71.0925564,40.5041961 15.9428571,40.8815643 3.46127149,79.9601469 C3.44030075,79.939182 52.6533835,55.2215592 75.8334586,57.6325233 Z" id="Path" fill="#FFFFFF"></path>
                <path d="M90.8113534,119.625747 C90.3918045,119.625747 89.9722556,119.541887 89.5736842,119.395133 C88.0423308,118.787151 87.1612782,117.193818 87.4759398,115.57952 C92.9720301,87.8010213 77.8892481,65.8717309 74.0923308,60.9030484 C51.5835338,59.6870839 5.43315789,82.7484792 4.97165414,82.9790932 C3.75496241,83.5870754 2.26556391,83.4193562 1.23766917,82.5178653 C0.188796992,81.6373393 -0.209774436,80.2117257 0.209774436,78.8909367 C5.66390977,61.8255042 19.7397744,49.1836666 40.906015,42.3071779 C49.1081955,39.644635 56.8069173,38.3448109 62.3869173,37.6948988 C46.0454887,28.3026215 20.0124812,36.7934079 19.718797,36.8772675 C18.2293985,37.3804252 16.5931579,36.7934079 15.7540602,35.451654 C14.9149624,34.1099001 15.1247368,32.3907779 16.2365414,31.258673 C32.5989474,14.759293 49.0242857,14.31903 59.9325564,16.8348185 C65.5964662,18.1346426 70.3373684,20.3569226 73.7776692,22.3276236 C72.1833835,15.5559594 67.4215038,8.70043549 65.2188722,6.07982239 C64.2958647,4.98964734 64.1490226,3.41727948 64.8832331,2.1803501 C65.5964662,0.943420716 67.0229323,0.293508667 68.4284211,0.545087525 C81.6022556,2.95605158 88.713609,16.3735906 91.5875188,23.4177987 C103.020226,16.7928887 116.970226,17.0235027 132.262782,24.1306054 C144.702406,29.9169191 153.575865,38.1561267 153.953459,38.5125301 C155.128195,39.6236701 155.379925,41.3847221 154.540827,42.7684058 C153.701729,44.1520895 152.002556,44.7391068 150.49218,44.1940193 C133.374586,38.0513022 121.228647,38.1561267 113.592857,39.6027051 C122.67609,42.5377918 130.165038,47.7370882 135.954812,55.1376996 C153.554887,77.6330424 149.086692,112.32996 148.897895,113.797503 C148.667143,115.49566 147.219699,116.73259 145.520526,116.73259 C145.499549,116.73259 145.478571,116.73259 145.457594,116.73259 C143.737444,116.711625 142.310977,115.390836 142.12218,113.671714 C139.227293,85.5158466 114.159248,68.7858526 101.174211,61.9512937 C110.446241,90.3168098 94.482406,116.73259 93.727218,117.948554 C93.0769173,119.038729 91.9651128,119.625747 90.8113534,119.625747 Z M72.4980451,54.0684895 C73.7776692,54.0684895 74.9943609,54.1313842 76.1690977,54.2571736 C77.0291729,54.3410332 77.8263158,54.7603313 78.3927068,55.4312083 C79.1269173,56.2698045 92.7203008,72.3708513 95.1117293,96.1240885 C97.8178195,85.2013731 98.7618045,70.7775186 91.5875188,56.7939271 C90.9581955,55.5360328 91.1469925,54.0265596 92.0909774,52.9783144 C93.0349624,51.9300692 94.5033835,51.5736658 95.8249624,52.0558586 C96.3284211,52.2445427 108.117744,56.7519973 120.578346,66.4377833 C129.976241,73.7545351 137.192481,82.0566373 142.017293,91.0505815 C140.863534,80.7358483 137.821805,68.701993 130.521654,59.3726104 C123.599098,50.5254205 113.718722,45.3470891 101.153233,43.9843703 C99.7687218,43.8376159 98.6149624,42.8522654 98.2373684,41.5105115 C97.8597744,40.1687576 98.3632331,38.7221791 99.4750376,37.883583 C100.041429,37.4642849 111.306316,29.3299018 134.444436,33.019725 C122.634135,26.3948151 105.831203,20.8810452 91.8392481,31.4054274 C90.937218,32.0763043 89.7834586,32.2649885 88.713609,31.9085851 C87.6437594,31.5521817 86.8256391,30.6926206 86.5319549,29.6234105 C86.49,29.497621 83.8258647,20.4617471 77.931203,13.8578021 C80.0709023,18.5958705 81.6442105,24.1725352 80.8680451,29.497621 C80.6792481,30.7135855 79.8611278,31.7618308 78.7073684,32.1811289 C77.553609,32.6213919 76.2530075,32.3907779 75.3090226,31.5731466 C74.3650376,30.7764802 55.0028571,14.8012228 32.5989474,27.1495517 C45.2483459,25.4933242 62.9533083,25.975517 73.6518045,38.2399863 C74.5328571,39.2463018 74.7426316,40.6509504 74.197218,41.8669149 C73.6518045,43.0828793 72.4560902,43.8585808 71.1135338,43.8795457 C70.6310526,43.8795457 26.2847368,44.5923525 10.1950376,72.9578687 C24.4387218,66.4168184 53.8490977,54.0684895 72.4980451,54.0684895 Z" id="Shape" fill="#E4002B"></path>
            </g>
        </g>
    </g>
</svg>