<?xml version="1.0" encoding="UTF-8"?>
<svg width="78px" height="62px" viewBox="0 0 78 62" version="1.1" xmlns="http://www.w3.org/2000/svg" xmlns:xlink="http://www.w3.org/1999/xlink">
    <!-- Generator: Sketch 59.1 (86144) - https://sketch.com -->
    <title>Group 37</title>
    <desc>Created with Sketch.</desc>
    <g id="Icons" stroke="none" stroke-width="1" fill="none" fill-rule="evenodd">
        <g id="icons" transform="translate(-644.000000, -134.000000)">
            <g id="Group-37" transform="translate(644.000000, 134.000000)">
                <polygon id="Fill-1" fill="#E4002B" points="49.8741399 20 48 19.6744326 56.3329163 15 58 15.4418414"></polygon>
                <polygon id="Fill-2" fill="#E4002B" points="69 23.8023358 70.633452 24 78 20.3425902 76.4444613 20"></polygon>
                <polygon id="Fill-3" fill="#231F20" points="40 19.8408421 42.2117585 20.1591579 50 20.1591579 48.1630985 19.8408421"></polygon>
                <polygon id="Fill-4" fill="#231F20" points="63 23.8997895 64.7694252 24.1002105 71 24.1002105 69.5312668 23.8997895"></polygon>
                <polygon id="Stroke-5" stroke="#E4002B" stroke-width="5" points="12 56 23 56 23 12 12 12"></polygon>
                <polygon id="Fill-6" fill="#E4002B" points="25 56 23 56 23 12 25 12.8254359"></polygon>
                <polygon id="Stroke-7" stroke="#E4002B" stroke-width="4" points="26 60 9 60 12.306058 56 22.6931102 56"></polygon>
                <polygon id="Fill-9" fill="#E4002B" points="23 56 26.5166771 60 29 60 25.4846497 56"></polygon>
                <polygon id="Stroke-10" stroke="#E4002B" stroke-width="4" points="39 56 48 56 48 19 39 19"></polygon>
                <polygon id="Fill-11" fill="#E4002B" points="50 56 48 56 48 19 50 19.3166597"></polygon>
                <polygon id="Stroke-12" stroke="#E4002B" stroke-width="4" points="50 60 37 60 39.2826571 57 47.717554 57"></polygon>
                <polygon id="Fill-14" fill="#060100" points="48 57 50.1843341 60 52 60 49.8156659 57"></polygon>
                <polygon id="Stroke-15" stroke="#E4002B" stroke-width="5" points="63 58 69 58 69 24 63 24"></polygon>
                <polygon id="Fill-16" fill="#060100" points="71 58 70 58 70 24 71 24.2017678"></polygon>
                <polygon id="Stroke-17" stroke="#E4002B" stroke-width="4" points="71 60 61 60 62.6779932 58 69.3220068 58"></polygon>
                <polygon id="Fill-19" fill="#E4002B" points="69 58 70.587183 60 72 60 70.4134067 58"></polygon>
                <polygon id="Fill-20" fill="#E4002B" points="56 15.2533812 37.2700056 6 25 12.8200531 47.5985041 20"></polygon>
                <polygon id="Fill-21" fill="#060100" points="77 19.8400555 58.2321401 15 50 19.8096164 70.0767985 24"></polygon>
                <polygon id="Fill-22" fill="#E4002B" points="38.8223677 19 25 15.1048353 25 12 47 19"></polygon>
                <polygon id="Fill-23" fill="#E4002B" points="49 21.6516507 62.2732954 24 69 24 49 20"></polygon>
                <polygon id="Fill-24" fill="#E4002B" points="31.4341504 5 29.5857914 6.05922637 21.6076028 10.6253479 13.2201911 10.6253479 5.2428334 6.05922637 3.39426672 5 0 5 12.225592 12 22.6030328 12 35 5"></polygon>
                <polygon id="Fill-25" fill="#E4002B" points="35.0035342 5 23 11.2334856 25.2599526 12 37 5.91934945"></polygon>
                <polygon id="Fill-26" fill="#E4002B" points="22.1879792 10 13.8126431 10 4 5 32 5"></polygon>
                <g id="Group-33" transform="translate(11.000000, 6.000000)" fill="#000000">
                    <path d="M3.66279194,2.04353684 C3.66279194,3.05953684 2.84756613,3.88143158 1.84027581,3.88143158 C0.834872581,3.88143158 0.0190177419,3.05953684 0.0190177419,2.04353684 C0.0190177419,1.02901053 0.834872581,0.205642105 1.84027581,0.205642105 C2.84756613,0.205642105 3.66279194,1.02901053 3.66279194,2.04353684" id="Fill-27"></path>
                    <path d="M8.24468387,2.04353684 C8.24468387,3.05953684 7.42882903,3.88143158 6.42279677,3.88143158 C5.41676452,3.88143158 4.60028065,3.05953684 4.60028065,2.04353684 C4.60028065,1.02901053 5.41676452,0.205642105 6.42279677,0.205642105 C7.42882903,0.205642105 8.24468387,1.02901053 8.24468387,2.04353684" id="Fill-29"></path>
                    <path d="M12.827079,2.04353684 C12.827079,3.05953684 12.0112242,3.88143158 11.0043532,3.88143158 C9.99748226,3.88143158 9.1818371,3.05953684 9.1818371,2.04353684 C9.1818371,1.02901053 9.99748226,0.205642105 11.0043532,0.205642105 C12.0112242,0.205642105 12.827079,1.02901053 12.827079,2.04353684" id="Fill-31"></path>
                </g>
                <polygon id="Fill-34" fill="#E4002B" points="0 5 35 5 35 0 0 0"></polygon>
                <polygon id="Fill-35" fill="#E4002B" points="35 0 35 5.18179162 56 15 56 12.4388462"></polygon>
                <polygon id="Fill-36" fill="#E4002B" points="56 14.6326859 78 20 78 18.4463998 56 12"></polygon>
            </g>
        </g>
    </g>
</svg>