<?xml version="1.0" encoding="UTF-8"?>
<svg width="386px" height="386px" viewBox="0 0 386 386" version="1.1" xmlns="http://www.w3.org/2000/svg" xmlns:xlink="http://www.w3.org/1999/xlink">
    <title>Transportation Copy 3</title>
    <g id="Transportation-Copy-3" stroke="none" stroke-width="1" fill="none" fill-rule="evenodd">
        <rect id="Rectangle" stroke="#E4002B" stroke-width="8" x="66.64" y="101.7" width="49.96" height="209.44"></rect>
        <path d="M118.448103,312.14 L141.157525,338.82 L42.0824749,338.82 L64.7918968,312.14 L118.448103,312.14 Z" id="Path" stroke="#E4002B" stroke-width="8"></path>
        <polygon id="Rectangle" stroke="#E4002B" stroke-width="8" points="183 128.26 223 143.179455 223.34 316.26 183.38 316.26"></polygon>
        <path d="M224.79297,316.25 L241.538454,338.82 L164.047164,338.82 L180.808139,316.25 L224.79297,316.25 Z" id="Path" stroke="#E4002B" stroke-width="8"></path>
        <polygon id="Rectangle" stroke="#E4002B" stroke-width="8" points="315.41 165.85 347 172.835987 347.38 319.85 315.41 319.85"></polygon>
        <path d="M349.403184,319.85 L363.358326,338.82 L299.431674,338.82 L313.386816,319.85 L349.403184,319.85 Z" id="Path" stroke="#E4002B" stroke-width="8"></path>
        <g id="Group" transform="translate(59.000000, 65.000000)" fill="#E4002B" fill-rule="nonzero">
            <path d="M18.26,9.53 C18.26,14.36 14.37,18.26 9.57,18.26 C4.78,18.26 0.88,14.36 0.88,9.53 C0.88,4.71 4.77,0.79998091 9.57,0.79998091 C14.37,0.79 18.26,4.71 18.26,9.53" id="Path"></path>
            <path d="M40.11,9.53 C40.11,14.36 36.22,18.26 31.42,18.26 C26.62,18.26 22.73,14.36 22.73,9.53 C22.73,4.71 26.62,0.79998091 31.42,0.79998091 C36.22,0.79 40.11,4.71 40.11,9.53" id="Path"></path>
            <path d="M61.96,9.53 C61.96,14.36 58.07,18.26 53.27,18.26 C48.47,18.26 44.58,14.36 44.58,9.53 C44.58,4.71 48.47,0.79998091 53.27,0.79998091 C58.07,0.79 61.96,4.71 61.96,9.53" id="Path"></path>
        </g>
        <g id="Group-2" transform="translate(117.000000, 32.000000)" stroke="#E4002B">
            <path d="M0,70 L110,111 L230,140 L256,115 C256,101.666667 256,95 256,95 C188.666667,75.6666667 155,66 155,66 C91,22 59,0 59,0 L59,41 L0,70 Z" id="Path-3" stroke-width="8" stroke-linejoin="bevel"></path>
            <polyline id="Path-4" stroke-width="9" points="59 43 147 85 256 115"></polyline>
            <polyline id="Path-5" stroke-width="8" points="107 108 148 85 148 63"></polyline>
        </g>
        <polygon id="Path-6" stroke="#E4002B" stroke-width="8" stroke-linejoin="bevel" points="8 32 8 70 67 102 113 102 176 74 176 33"></polygon>
    </g>
</svg>