<?xml version="1.0" encoding="UTF-8"?>
<svg width="386px" height="386px" viewBox="0 0 386 386" version="1.1" xmlns="http://www.w3.org/2000/svg" xmlns:xlink="http://www.w3.org/1999/xlink">
    <title>tuition reimburesement</title>
    <g id="tuition-reimburesement" stroke="none" stroke-width="1" fill="none" fill-rule="evenodd">
        <g id="Group" transform="translate(25.000000, 75.000000)" fill="#E4002B" fill-rule="nonzero">
            <path d="M236.510692,73 C235.933303,73 235.355913,72.8921235 234.799908,72.6979459 L147.3788,41.3274716 C145.347243,40.5939116 144,38.6737107 144,36.4946062 C144,34.3155017 145.347243,32.3953007 147.3788,31.6617408 L234.799908,0.29126644 C235.890533,-0.0970888134 237.109467,-0.0970888134 238.200092,0.29126644 L325.6212,31.6617408 C327.652757,32.3953007 329,34.3155017 329,36.4946062 C329,38.6737107 327.652757,40.5939116 325.6212,41.3274716 L238.200092,72.6979459 C237.665472,72.9136988 237.088082,73 236.510692,73 Z M164.230031,36.5161815 L236.510692,62.4496823 L308.791354,36.5161815 L236.510692,10.5826807 L164.230031,36.5161815 Z" id="Shape"></path>
            <path d="M236.714198,139 C206.812118,139 186.998776,125.323329 186.163403,124.747245 C184.813953,123.808441 184,122.250879 184,120.607972 L184,53.0567409 C184,50.2616647 186.270502,48 189.076499,48 C191.882497,48 194.152999,50.2616647 194.152999,53.0567409 L194.152999,117.791559 C199.679315,120.992028 215.444308,128.865182 236.692778,128.865182 C257.898409,128.865182 273.406365,121.013365 278.847001,117.812896 L278.847001,53.0567409 C278.847001,50.2616647 281.117503,48 283.923501,48 C286.729498,48 289,50.2616647 289,53.0567409 L289,120.607972 C289,122.229543 288.207466,123.765768 286.879437,124.725909 C286.108323,125.301993 266.637699,139 236.714198,139 Z" id="Path"></path>
            <path d="M236.690879,119 C206.797461,119 186.989859,105.009765 186.154728,104.420473 C183.86347,102.761725 183.306716,99.5315301 184.934152,97.1961868 C186.561587,94.8608434 189.730803,94.2933768 192.022061,95.9521254 C192.19337,96.0830792 210.180814,108.654647 236.690879,108.654647 C263.372254,108.654647 280.78153,96.1267305 280.952839,95.9957766 C283.222683,94.3152024 286.413313,94.8608434 288.040749,97.1743611 C289.689598,99.4878789 289.154257,102.739899 286.884413,104.398648 C286.070695,104.98794 266.605711,119 236.690879,119 Z" id="Path"></path>
            <path d="M322.999927,73 C320.236254,73 318,70.7389538 318,67.944642 L318,36.055358 C318,33.2610462 320.236254,31 322.999927,31 C325.763599,31 327.999853,33.2610462 327.999853,36.055358 L327.999853,67.944642 C328.02095,70.7389538 325.763599,73 322.999927,73 Z" id="Path"></path>
            <path d="M224.244631,188 L119.054152,188 C117.460035,188 115.950937,187.227468 114.994467,185.939914 C114.037997,184.652361 113.761683,182.978541 114.208036,181.433476 L147.08936,71.6266094 C147.727006,69.4806867 149.703712,68 151.914221,68 L170.40598,68 C173.190372,68 175.443391,70.2746781 175.443391,73.0858369 C175.443391,75.8969957 173.190372,78.1716738 170.40598,78.1716738 L155.655083,78.1716738 L125.834464,177.806867 L220.333731,177.806867 L227.071532,151.969957 C227.772944,149.244635 230.53608,147.635193 233.235452,148.343348 C235.934824,149.051502 237.550196,151.841202 236.82753,154.566524 L229.112002,184.201717 C228.53812,186.433476 226.518905,188 224.244631,188 Z" id="Path"></path>
            <path d="M118.884713,187.997252 C118.008816,187.997252 117.111556,187.761617 116.299749,187.290346 C64.8354665,156.614913 8.09443968,187.076132 7.51762954,187.376032 C5.63765576,188.404259 3.30905188,188.147202 1.7068015,186.711969 C0.104551117,185.276735 -0.429532343,183.006068 0.360911178,181.013878 L40.0753573,81.9827822 C44.2412083,71.0364508 52.3592769,62.3822083 62.8914027,57.6052379 C75.2180489,52.0142545 88.1215053,49.4865302 101.259958,50.0863292 C118.799259,50.8789207 136.78719,57.2624956 154.711031,69.0442613 C157.060998,70.5866015 157.701899,73.7355462 156.163738,76.0918993 C154.625578,78.4482525 151.485167,79.0908942 149.1352,77.548554 C120.551053,58.761993 92.9282565,55.1631992 67.0572537,66.8807007 C58.9605484,70.5437587 52.7438169,77.2058117 49.5393162,85.6458402 C49.5179528,85.6672616 49.5179528,85.7101044 49.4965895,85.7315258 L14.4393512,173.152227 C20.9978961,170.603082 29.9918615,167.711194 40.5880774,165.719004 C70.1335744,160.170864 98.0981844,164.605092 121.469677,178.528997 C123.883734,179.96423 124.674177,183.091753 123.242834,185.490949 C122.302847,187.097554 120.615143,187.997252 118.884713,187.997252 Z" id="Path"></path>
            <path d="M9.08190854,212 C7.67145905,212 6.28238,211.421102 5.277969,210.284747 C3.41874013,208.183563 3.61107415,204.967464 5.70537794,203.102127 C6.17552777,202.694754 17.3095306,192.917814 36.7352667,187.23604 C54.3445149,182.090282 82.4039115,179.43164 116.532515,195.833744 L232.958709,195.833744 L246.016052,146.777518 C246.742647,144.054554 249.520806,142.446505 252.234852,143.175487 C254.948899,143.90447 256.551683,146.691755 255.825087,149.414719 L241.763333,202.244501 C241.164961,204.474329 239.156139,206.018056 236.869501,206.018056 L115.399881,206.018056 C114.630545,206.018056 113.861209,205.846531 113.177355,205.503481 C87.7251528,193.025018 62.9781754,190.17341 39.5989066,197.01298 C22.3315856,202.072975 12.5439209,210.649239 12.4584391,210.735001 C11.4753986,211.571187 10.2786536,212 9.08190854,212 Z" id="Path"></path>
            <path d="M323,93 C315.278788,93 309,86.7212121 309,79 C309,71.2787879 315.278788,65 323,65 C330.721212,65 337,71.2787879 337,79 C337,86.7212121 330.721212,93 323,93 Z M323,75.0757576 C320.836364,75.0757576 319.075758,76.8363636 319.075758,79 C319.075758,81.1636364 320.836364,82.9242424 323,82.9242424 C325.163636,82.9242424 326.924242,81.1636364 326.924242,79 C326.924242,76.8363636 325.163636,75.0757576 323,75.0757576 Z" id="Shape"></path>
        </g>
    </g>
</svg>