<?xml version="1.0" encoding="UTF-8"?>
<svg width="175px" height="59px" viewBox="0 0 175 59" version="1.1" xmlns="http://www.w3.org/2000/svg" xmlns:xlink="http://www.w3.org/1999/xlink">
    <title>Fill 1</title>
    <g id="Page-1" stroke="none" stroke-width="1" fill="none" fill-rule="evenodd">
        <g id="superior_website_homepage_bandaid" transform="translate(-557.000000, -3544.000000)" fill="#E4002B">
            <g id="Group-3" transform="translate(125.000000, 3544.000000)">
                <path d="M598.253896,16.6811625 C598.201428,17.3865875 598.008563,18.96745 597.99445,19.2483875 L585.307313,19.2462125 L585.341327,18.7974375 C585.482448,16.9378125 584.893358,16.29655 582.980626,16.29655 L575.967276,16.29655 C573.990496,16.29655 573.234956,17.0016125 573.096368,18.7974375 L573.01242,19.887475 C572.883601,21.5546125 573.310221,21.8112625 576.907358,22.3242 L587.004021,23.7992125 C594.893769,24.9534125 597.614871,27.839275 597.123481,34.444025 L596.617616,41.241625 C596.068692,48.6159625 591.80901,52.5277 584.319828,52.5277 L568.957182,52.5277 C561.468,52.5277 557.806816,48.6159625 558.386135,41.241625 C558.446564,40.4720375 558.617356,38.8545625 558.657522,38.6715 L571.370712,38.676575 L571.335975,39.12535 C571.192321,40.984975 571.782134,41.6262375 573.700294,41.6262375 L581.244838,41.6262375 C583.162636,41.6262375 583.85051,40.984975 583.991631,39.12535 L584.088969,37.842825 C584.210188,36.2394875 583.595769,35.9190375 580.248307,35.4061 L570.139703,33.9310875 C562.308936,32.7768875 559.46951,29.891025 559.978631,23.4142375 L560.507654,16.6811625 C561.086974,9.3064625 565.342314,5.3950875 572.793139,5.3950875 L587.69479,5.3950875 C595.145616,5.3950875 598.80282,9.3064625 598.253896,16.6811625 L598.253896,16.6811625 Z M435.983592,0 L432,58.094975 L602.059458,58.094975 L606.042688,0 L435.983592,0 Z" id="Fill-1"></path>
            </g>
        </g>
    </g>
</svg>