<svg xmlns:svg="http://www.w3.org/2000/svg" xmlns="http://www.w3.org/2000/svg" viewBox="0 0 318.32001 109.96" height="109.96" width="318.32001" xml:space="preserve" id="svg2" version="1.1"><g transform="matrix(1.3333333,0,0,-1.3333333,0,109.96)" id="g10"><g   transform="scale(0.1)" id="g12"><path id="path14" style="fill:#e51b2d;fill-opacity:1;fill-rule:nonzero;stroke:none" d="m 2102.59,559.305 c -0.66,-8.907 -3.1,-28.86 -3.28,-32.407 l -160.45,0.028 0.43,5.664 c 1.78,23.476 -5.67,31.57 -29.86,31.57 h -88.69 c -25,0 -34.56,-8.902 -36.31,-31.57 l -1.06,-13.762 c -1.63,-21.047 3.77,-24.285 49.26,-30.762 l 127.69,-18.621 c 99.78,-14.57 134.19,-51 127.98,-134.382 l -6.4,-85.813 c -6.94,-93.098 -60.81,-142.477 -155.53,-142.477 h -194.29 c -94.71,0 -141.02,49.379 -133.69,142.477 0.77,9.715 2.93,30.133 3.43,32.445 l 160.78,-0.062 -0.43,-5.668 c -1.82,-23.477 5.64,-31.57 29.9,-31.57 h 95.41 c 24.26,0 32.96,8.093 34.74,31.57 l 1.23,16.191 c 1.54,20.239 -6.24,24.285 -48.57,30.766 l -127.84,18.617 c -99.04,14.57 -134.95,51 -128.51,132.766 l 6.69,85 c 7.33,93.097 61.15,142.48 155.38,142.48 h 188.45 c 94.23,0 140.48,-49.383 133.54,-142.48 z M 50.3789,797.371 0,27.332 h 2150.72 l 50.38,770.039 H 50.3789" /><path id="path16" style="fill:#e51b2d;fill-opacity:1;fill-rule:nonzero;stroke:none"/></g></g></svg>
