<?xml version="1.0" encoding="UTF-8"?>
<svg width="506px" height="66px" viewBox="0 0 506 66" version="1.1" xmlns="http://www.w3.org/2000/svg" xmlns:xlink="http://www.w3.org/1999/xlink">
    <title>superior_logo</title>
    <g id="Page-1" stroke="none" stroke-width="1" fill="none" fill-rule="evenodd">
        <g id="superior_website_homepage_bandaid" transform="translate(0.000000, -44.000000)" fill="#E4002B">
            <g id="superior_logo" transform="translate(-6.670309, 44.669809)">
                <path d="M186.319021,18.6944063 C186.260221,19.4849688 186.044079,21.256625 186.028263,21.5714688 L171.80992,21.5690313 L171.848039,21.0660938 C172.006191,18.9820313 171.346005,18.263375 169.202426,18.263375 L161.342636,18.263375 C159.12728,18.263375 158.280555,19.0535313 158.12524,21.0660938 L158.03116,22.2876875 C157.886795,24.1560313 158.364903,24.4436563 162.396178,25.0185 L173.711403,26.6715313 C182.553362,27.9650313 185.602873,31.1991875 185.052177,38.6010625 L184.48526,46.2190625 C183.870086,54.4834063 179.096304,58.86725 170.703256,58.86725 L153.486497,58.86725 C145.093448,58.86725 140.990397,54.4834063 141.639634,46.2190625 C141.707356,45.3565938 141.898762,43.5439063 141.943774,43.33875 L156.191315,43.3444375 L156.152385,43.847375 C155.991394,45.9314375 156.652392,46.6500938 158.802053,46.6500938 L167.257146,46.6500938 C169.406402,46.6500938 170.177296,45.9314375 170.335449,43.847375 L170.444534,42.4100625 C170.580383,40.6132188 169.89181,40.2540938 166.140344,39.67925 L154.811736,38.0262188 C146.035877,36.7327188 142.853761,33.4985625 143.424328,26.2400938 L144.017198,18.6944063 C144.666436,10.4296563 149.435352,6.04621875 157.785415,6.04621875 L174.485541,6.04621875 C182.835604,6.04621875 186.934195,10.4296563 186.319021,18.6944063 L186.319021,18.6944063 Z M4.46437013,0 L0,65.1064375 L190.583876,65.1064375 L195.04784,0 L4.46437013,0 Z" id="Fill-1"></path>
                <path d="M240.350349,46.2189 C239.740447,54.4832438 234.969504,58.8670875 226.57605,58.8670875 L210.291987,58.8670875 C201.898939,58.8670875 197.792643,54.4832438 198.437014,46.2189 L201.511667,6.7647125 L215.785162,6.7647125 L212.947738,43.8472125 C212.788369,45.931275 213.449772,46.6499313 215.599434,46.6499313 L223.122641,46.6499313 C225.271898,46.6499313 226.042791,45.931275 226.199322,43.8472125 L228.988489,6.7647125 L243.261983,6.7647125 L240.350349,46.2189 Z" id="Fill-4"></path>
                <path d="M275.706668,21.7846281 C275.862794,19.7005656 275.202201,18.9819094 273.058623,18.9819094 L263.412112,18.9819094 L262.678121,28.6116594 L272.333553,28.6116594 C274.479565,28.6116594 275.248431,27.8930031 275.404961,25.8089406 L275.706668,21.7846281 Z M290.176029,19.4129406 L289.531252,28.1806281 C288.923378,36.4453781 284.16095,40.8288156 275.782501,40.8288156 L261.746641,40.8288156 L260.426268,58.1484719 L246.078969,58.1484719 L250.070097,6.76475313 L278.3316,6.76475313 C286.681663,6.76475313 290.783904,11.1485969 290.176029,19.4129406 L290.176029,19.4129406 Z" id="Fill-6"></path>
                <polygon id="Fill-8" points="308.410603 18.9818688 307.922356 25.8089 327.085206 25.8089 326.23483 38.0260563 307.048055 38.0260563 306.48276 45.931275 330.858975 45.931275 330.014683 58.1484313 291.26116 58.1484313 295.011004 6.7647125 331.408455 6.7647125 330.561729 18.9818688"></polygon>
                <path d="M510.975976,7.71875 L509.504498,10.3727948 L508.667206,7.71875 L507.44581,7.71875 L506.900051,12.59375 L507.964627,12.59375 L508.286556,9.69574958 L508.998807,11.8755886 L509.708294,11.8755886 L510.898603,9.69574958 L510.586345,12.59375 L511.650922,12.59375 L512.171811,7.71875 L510.975976,7.71875 Z M503.37276,7.71875 L503.25037,8.77474873 L504.441948,8.77474873 L504.003959,12.59375 L505.143969,12.59375 L505.577832,8.77474873 L506.782474,8.77474873 L506.900051,7.71875 L503.37276,7.71875 Z" id="Fill-1"></path>
                <path d="M351.625819,28.3244 L361.495771,28.3244 C363.641378,28.3244 364.419165,27.6057438 364.599622,25.5216813 L364.922821,21.7845875 C365.103277,19.700525 364.451201,18.9818688 362.307622,18.9818688 L352.446592,18.9818688 L351.625819,28.3244 Z M355.493669,40.5415563 L350.552407,40.5415563 L349.005754,58.1484313 L334.658455,58.1484313 L339.246509,6.7647125 L367.722126,6.7647125 C376.072189,6.7647125 380.12374,11.1485563 379.420163,19.4129 L378.697931,27.8933688 C378.208469,33.6426188 375.730336,37.5231188 371.424118,39.3199625 L382.075913,58.1484313 L365.361594,58.1484313 L355.493669,40.5415563 Z" id="Fill-10"></path>
                <polygon id="Fill-12" points="388.663059 6.76475313 402.936554 6.76475313 399.593041 58.1484719 385.245742 58.1484719"></polygon>
                <path d="M434.627255,18.2632125 L426.410203,18.2632125 C424.266624,18.2632125 423.496947,18.9818688 423.336766,21.0659313 L421.587353,43.8472125 C421.427172,45.931275 422.088576,46.6499313 424.238237,46.6499313 L432.477999,46.6499313 C434.627661,46.6499313 435.398149,45.931275 435.555491,43.8472125 L437.274085,21.0659313 C437.431021,18.9818688 436.770834,18.2632125 434.627255,18.2632125 M451.743851,18.6942438 L449.706113,46.2189 C449.094588,54.4832437 444.322023,58.8670875 435.928975,58.8670875 L418.927547,58.8670875 C410.534499,58.8670875 406.429419,54.4832437 407.075818,46.2189 L409.227913,18.6942438 C409.873907,10.4299 414.641606,6.04605625 422.991669,6.04605625 L439.905504,6.04605625 C448.255567,6.04605625 452.35578,10.4299 451.743851,18.6942438" id="Fill-14"></path>
                <path d="M471.823581,28.3244 L481.693533,28.3244 C483.83914,28.3244 484.616927,27.6057438 484.797384,25.5216813 L485.120583,21.7845875 C485.30104,19.700525 484.648963,18.9818688 482.505384,18.9818688 L472.644354,18.9818688 L471.823581,28.3244 Z M475.691431,40.5415563 L470.75017,40.5415563 L469.203516,58.1484313 L454.856217,58.1484313 L459.444271,6.7647125 L487.919888,6.7647125 C496.269951,6.7647125 500.321502,11.1485563 499.617925,19.4129 L498.895693,27.8933688 C498.406231,33.6426188 495.928098,37.5231188 491.62188,39.3199625 L502.273675,58.1484313 L485.559356,58.1484313 L475.691431,40.5415563 Z" id="Fill-16"></path>
            </g>
        </g>
    </g>
</svg>