<?xml version="1.0" encoding="UTF-8"?>
<svg xmlns="http://www.w3.org/2000/svg" xmlns:xlink="http://www.w3.org/1999/xlink" width="323px" height="323px" viewBox="0 0 323 323" version="1.1">
  <title>superior_stamp</title>
  <defs>
    <polygon id="path-1" points="0 0 15.6579284 0 15.6579284 12.485924 0 12.485924"></polygon>
  </defs>
  <g id="Page-1" stroke="none" stroke-width="1" fill="none" fill-rule="evenodd">
    <g id="superior_website_homepage_bandaid" transform="translate(-1244.000000, -1615.000000)">
      <g id="Group-304" transform="translate(1244.000000, 1615.000000)">
        <polygon id="Fill-1" fill="#E4002B" points="13.508759 96.3639662 18.0619686 86.962636 20.7448037 88.2146725 17.5833885 94.7417944 20.6526248 96.1744232 23.2143412 90.8845955 25.8564461 92.1182042 23.2947297 97.4075054 29.1282616 100.130079 27.7359312 103.004287"></polygon>
        <path d="M31.5616997,82.0447226 L25.0150643,80.2805485 L29.6725867,85.2120846 L31.5616997,82.0447226 Z M34.4981476,82.8418561 L31.7667279,87.4214043 L34.1742242,89.9721259 L32.4441665,92.8727181 L21.5295847,80.8379068 L23.9191145,76.8310668 L39.6819796,80.7373388 L37.8837553,83.752261 L34.4981476,82.8418561 Z" id="Fill-2" fill="#E4002B"></path>
        <polygon id="Fill-3" fill="#E4002B" points="29.1282616 68.1838893 31.2666521 65.4194537 40.9751342 67.7509245 36.3012837 58.9102152 38.4396742 56.1457796 50.6578462 65.6372545 48.7356089 68.1216605 40.9509419 62.0743917 45.068895 69.5028236 43.6341854 71.3575584 35.4293084 69.2133014 43.2139754 75.2605702 41.3459078 77.6753642"></polygon>
        <polygon id="Fill-4" fill="#E4002B" points="42.6370206 51.7408669 44.8275302 49.3914001 56.1457796 60.1290769 53.95527 62.4780104"></polygon>
        <polygon id="Fill-5" fill="#E4002B" points="49.3914001 45.2013265 51.7405827 43.0591693 60.2241808 52.28204 65.1500391 47.7889138 67.1216463 49.932645 59.8466054 56.5679283"></polygon>
        <polygon id="Fill-6" fill="#E4002B" points="67.2566705 42.6737381 56.990077 37.6966704 59.7267432 35.5789489 66.5121324 39.0732949 64.8143319 31.6412116 67.5155943 29.5504103 69.7830271 40.7185935 73.0317283 44.9033631 70.5059001 46.8585078"></polygon>
        <polygon id="Fill-7" fill="#E4002B" points="80.6304053 29.3332736 87.2161048 25.7510718 88.6512309 28.0789522 82.0655314 31.6611539"></polygon>
        <g id="Group-303">
          <path d="M99.854701,25.7357008 L99.1185787,23.9302016 L101.99183,22.7587389 L102.644051,24.3588757 C102.76964,24.6666552 102.914226,24.7273665 103.221867,24.6022485 L107.039149,23.0459294 C107.34679,22.9202836 107.408002,22.7756325 107.282413,22.4683809 L106.580062,20.744182 C106.3959,20.2928072 106.181659,20.2368473 105.598038,20.3313456 L101.446203,21.0667434 C99.4810992,21.4130613 98.0394604,21.1638813 97.2869798,19.3172041 L96.3835809,17.1009804 C95.5894131,15.151886 96.1366238,13.8516098 98.0858967,13.0570846 L102.518989,11.2494738 C104.46879,10.4544207 105.768481,11.0013497 106.563176,12.950972 L107.231755,14.5922868 L104.359031,15.7637496 L103.773299,14.3272691 C103.648237,14.0194896 103.503651,13.9587784 103.19601,14.0844242 L99.6657894,15.5235443 C99.3581483,15.6491901 99.2969367,15.7933133 99.422526,16.1010928 L100.058388,17.6605795 C100.242023,18.1119543 100.456263,18.1684421 101.040412,18.0739438 L105.19172,17.338546 C107.156823,16.9917002 108.59899,17.2414081 109.35147,19.0880853 L110.321358,21.4684933 C111.115525,23.4175877 110.568315,24.7173359 108.619042,25.512389 L103.898361,27.4371989 C101.94856,28.2317241 100.648869,27.6847952 99.854701,25.7357008" id="Fill-8" fill="#E4002B"></path>
          <path d="M120.565014,14.9281519 L116.975692,9.18750934 L117.032155,15.9581311 L120.565014,14.9281519 Z M122.170763,17.5070593 L117.063288,18.99686 L117.090728,22.4980502 L113.856011,23.4414499 L114.048617,7.22468894 L118.518119,5.92124527 L127.390636,19.4941642 L124.028219,20.4750465 L122.170763,17.5070593 Z" id="Fill-10" fill="#E4002B"></path>
          <polygon id="Fill-12" fill="#E4002B" points="127.789566 3.59489659 138.056758 1.69859458 138.587082 4.57577887 131.459097 5.89242063 132.065936 9.18349712 137.842517 8.11656328 138.365454 10.9499299 132.588873 12.0168637 133.742395 18.2722319 130.60319 18.8518922"></polygon>
          <polygon id="Fill-14" fill="#E4002B" points="143.150302 1.05864544 153.550998 0.172261511 153.798483 3.08692838 146.577624 3.70195952 146.849382 6.9038169 152.700895 6.40545691 152.945214 9.27577819 147.093174 9.77413818 147.39501 13.3291765 154.615869 12.7141454 154.863353 15.6282843 144.462658 16.5146683"></polygon>
          <polygon id="Fill-16" fill="#E4002B" points="162.058725 2.93472798 157.847789 2.88087976 157.885254 0 169.499101 0.147818642 169.461635 3.0286984 165.250171 2.9753781 165.085533 15.6080649 161.894087 15.5674147"></polygon>
          <polygon id="Fill-18" fill="#E4002B" points="176.850034 11.0461704 172.976817 0.328262971 176.412582 0.715758983 178.82833 7.94620229 182.798113 1.43584694 186.189553 1.81859164 180.020901 11.4035748 179.426198 16.6664463 176.254804 16.309042"></polygon>
          <polygon id="Fill-20" fill="#E4002B" points="195.448599 10.593159 202.755471 12.4313894 202.062619 15.1824 194.755747 13.3441696"></polygon>
          <polygon id="Fill-22" fill="#E4002B" points="216.771081 9.82640263 219.757786 10.9508802 214.286735 25.4703663 211.30003 24.3458888"></polygon>
          <polygon id="Fill-24" fill="#E4002B" points="225.453789 13.1658897 228.453685 14.5981468 229.443625 26.1496458 233.753766 17.1290131 236.553669 18.465716 229.864191 32.466781 227.064288 31.1295502 226.027384 19.1631032 221.564742 28.5036576 218.764311 27.1664269"></polygon>
          <polygon id="Fill-26" fill="#E4002B" points="243.086425 25.5684017 239.498158 23.365376 241.006286 20.9100028 250.902514 26.9858769 249.394386 29.4412502 245.80612 27.2382245 239.192628 38.0047009 236.472933 36.3348781"></polygon>
          <polygon id="Fill-28" fill="#E4002B" points="255.01968 29.8510246 263.344458 36.1454591 261.579875 38.478882 255.800128 34.1087294 253.861409 36.672327 258.545152 40.2136393 256.806953 42.5116913 252.12321 38.970379 249.970778 41.8164157 255.750525 46.1865683 253.985415 48.5199912 245.660637 42.2255566"></polygon>
          <path d="M258.737282,48.4454483 L265.071628,41.6220342 C266.504296,40.0783853 267.914274,40.0261208 269.457228,41.4583779 L273.371605,45.0915489 C274.914559,46.523806 274.967328,47.9333623 273.534132,49.4764834 L272.146845,50.9710354 L269.807612,48.8002131 L271.01443,47.5004649 C271.24028,47.257092 271.235003,47.1002987 270.991212,46.8743473 L267.856228,43.9644318 C267.612437,43.7384804 267.455714,43.7442876 267.229337,43.9876604 L261.256984,50.4214668 C261.031134,50.6653676 261.036939,50.821633 261.28073,51.0481123 L264.415714,53.9574999 C264.658977,54.1839792 264.8157,54.1776441 265.042078,53.9342713 L266.670517,52.1794528 L264.526528,50.1897083 L266.426726,48.1424201 L270.909949,52.3035149 L267.199787,56.2998975 C265.767118,57.8435465 264.357668,57.8963388 262.814714,56.4640818 L258.89981,52.8309107 C257.356855,51.3986537 257.304614,49.9885694 258.737282,48.4454483" id="Fill-30" fill="#E4002B"></path>
          <path d="M279.286282,61.9057083 C279.504744,62.1559442 279.660939,62.1670306 279.91159,61.9484702 L282.502002,59.6921242 C282.752653,59.4735637 282.763734,59.3172983 282.545272,59.0665346 L279.619779,55.7084118 L276.360789,58.5470576 L279.286282,61.9057083 Z M275.725983,70.4723266 L273.470124,67.8828607 L275.910145,62.3491643 L274.221549,60.4106284 L270.09346,64.0068448 L267.998018,61.6010964 L279.696822,51.4100568 L285.067084,57.57515 C286.45015,59.1626167 286.353056,60.5695334 284.765248,61.9526935 L281.940543,64.4128181 C280.620273,65.562636 279.417148,65.6998961 278.25571,64.7718062 L275.725983,70.4723266 Z" id="Fill-32" fill="#E4002B"></path>
          <polygon id="Fill-34" fill="#E4002B" points="290.538769 64.4755354 292.431052 67.0449402 279.938607 76.2461228 278.046325 73.676718"></polygon>
          <polygon id="Fill-36" fill="#E4002B" points="295.075709 76.0664703 292.846235 72.4955943 295.28995 70.9693668 301.439606 80.8177838 298.995363 82.3440113 296.765888 78.7731352 286.050164 85.4650964 284.359985 82.7584314"></polygon>
          <polygon id="Fill-38" fill="#E4002B" points="296.250075 92.8960451 303.174374 83.8400416 304.704664 86.9394817 299.927521 92.8833749 307.550476 92.7012412 309.061769 95.7610871 297.663219 95.7568637 292.913515 98.1034847 291.500371 95.242666"></polygon>
          <polygon id="Fill-40" fill="#E4002B" points="306.685757 108.291937 309.094117 115.43105 306.406083 116.338551 303.997723 109.199438"></polygon>
          <polygon id="Fill-42" fill="#E4002B" points="318.875467 125.790497 319.551433 128.908943 304.389952 132.199491 303.713986 129.081046"></polygon>
          <polygon id="Fill-44" fill="#E4002B" points="320.783844 134.897445 321.208104 138.194329 312.043777 145.298598 321.957946 144.019439 322.354239 147.096707 306.96638 149.0817 306.570088 146.004433 316.057886 138.635673 305.791751 139.960234 305.395986 136.882966"></polygon>
          <g id="Group-48" transform="translate(307.285841, 153.451113)">
            <mask id="mask-2" fill="white">
              <use xlink:href="#path-1"></use>
            </mask>
            <g id="Clip-47"></g>
            <polygon id="Fill-46" fill="#E4002B" mask="url(#mask-2)" points="15.5129202 0 15.551969 3.32380776 5.62671841 9.31679786 15.6216235 9.19643125 15.6580339 12.298511 0.145113717 12.485924 0.10817568 9.38384417 10.3859206 3.16490272 0.0364103508 3.29002064 0 0.187412922"></polygon>
          </g>
          <path d="M309.312262,178.659418 C309.27849,178.989899 309.377695,179.111321 309.708555,179.14458 L318.440179,180.025157 C318.771038,180.058416 318.892406,179.959694 318.92565,179.628686 L319.391597,175.02044 C319.425369,174.68996 319.326164,174.568537 318.995305,174.535278 L310.26368,173.654701 C309.933349,173.621442 309.811981,173.720692 309.778209,174.051172 L309.312262,178.659418 Z M310.320143,170.452844 L319.581036,171.386741 C321.675951,171.597911 322.567741,172.690185 322.356138,174.784986 L321.782543,180.451191 C321.570941,182.545993 320.478631,183.438184 318.383716,183.227014 L309.122823,182.293117 C307.028436,182.081948 306.136119,180.989674 306.348249,178.8954 L306.921316,173.228667 C307.132918,171.133866 308.225756,170.241675 310.320143,170.452844 L310.320143,170.452844 Z" id="Fill-49" fill="#E4002B"></path>
          <polygon id="Fill-51" fill="#E4002B" points="320.852549 187.772226 320.136479 191.199507 307.74324 191.895839 318.821485 197.490246 318.123356 200.831476 303.922264 192.954854 304.684243 189.311124"></polygon>
          <path d="M306.292578,208.162752 L313.061737,208.339607 L307.385416,204.64942 L306.292578,208.162752 Z M303.255216,208.077757 L304.835108,202.998075 L301.901173,201.088047 L302.902194,197.870879 L316.31545,206.983371 L314.932912,211.427961 L298.714475,211.332406 L299.755073,207.98801 L303.255216,208.077757 Z" id="Fill-53" fill="#E4002B"></path>
          <polygon id="Fill-55" fill="#E4002B" points="308.593501 220.390733 310.202944 216.499407 312.865121 217.5996 308.426752 228.331761 305.764047 227.231568 307.37349 223.339715 295.700543 218.515548 296.920026 215.566038"></polygon>
          <polygon id="Fill-57" fill="#E4002B" points="306.264346 232.668602 304.825346 235.517278 290.977276 228.527568 292.416276 225.678364"></polygon>
          <path d="M287.144321,241.077899 C286.970713,241.361394 287.007651,241.513964 287.291018,241.687651 L294.776248,246.268445 C295.059615,246.442132 295.212116,246.405705 295.385197,246.121682 L297.804639,242.171229 C297.978248,241.887206 297.941837,241.735164 297.657942,241.561477 L290.17324,236.980155 C289.889873,236.806996 289.737372,236.843423 289.563763,237.126918 L287.144321,241.077899 Z M291.613296,234.119336 L299.551808,238.978346 C301.347524,240.077484 301.676801,241.448501 300.57763,243.244498 L297.602535,248.102452 C296.502837,249.898449 295.131908,250.228401 293.336192,249.129264 L285.397152,244.270782 C283.601436,243.171644 283.27216,241.800627 284.37133,240.00463 L287.346425,235.146148 C288.446123,233.350679 289.81758,233.020199 291.613296,234.119336 L291.613296,234.119336 Z" id="Fill-59" fill="#E4002B"></path>
          <polygon id="Fill-61" fill="#E4002B" points="292.614423 255.643631 290.574387 258.268996 279.077687 256.777084 286.97029 262.907862 285.066398 265.357956 272.815635 255.842659 274.720054 253.392037 286.632571 254.926711 278.459767 248.578428 280.363659 246.127806"></polygon>
          <polygon id="Fill-63" fill="#E4002B" points="271.379325 270.18529 265.953128 275.415958 263.98433 273.373949 269.410528 268.143281"></polygon>
          <path d="M253.647696,278.60504 L259.128773,286.127953 C260.368308,287.829451 260.149318,289.222642 258.44753,290.462735 L254.290945,293.491433 C252.588629,294.731526 251.19501,294.512966 249.955475,292.811467 L248.467928,290.769459 L251.047786,288.89005 L252.37861,290.716666 C252.574382,290.985379 252.729522,291.009664 252.998114,290.813804 L256.29457,288.411751 C256.563162,288.215891 256.587436,288.06121 256.392192,287.792497 L251.224033,280.699841 C251.028261,280.431128 250.873649,280.406844 250.605057,280.602703 L247.308073,283.004756 C247.039481,283.200616 247.015207,283.355298 247.210979,283.624011 L248.542331,285.451155 L245.962473,287.330563 L244.474398,285.289082 C243.234863,283.587056 243.453853,282.193866 245.155641,280.953773 L249.312226,277.925074 C251.014541,276.684982 252.408161,276.903542 253.647696,278.60504" id="Fill-65" fill="#E4002B"></path>
          <path d="M233.939564,291.415056 C233.651448,291.581352 233.610816,291.732339 233.777037,292.020585 L238.16422,299.621103 C238.330442,299.908821 238.481888,299.949471 238.770004,299.783175 L242.782003,297.466646 C243.070119,297.30035 243.110751,297.148836 242.94453,296.861118 L238.557347,289.2606 C238.391126,288.972881 238.23968,288.932231 237.952091,289.098527 L233.939564,291.415056 Z M241.188918,287.433984 L245.842055,295.495379 C246.894789,297.318827 246.529103,298.681399 244.705419,299.734078 L239.771553,302.582755 C237.947869,303.635963 236.585383,303.270639 235.532649,301.447191 L230.88004,293.386324 C229.827305,291.562875 230.192464,290.200304 232.016676,289.147624 L236.950542,286.298948 C238.774226,285.246268 240.136712,285.611063 241.188918,287.433984 L241.188918,287.433984 Z" id="Fill-67" fill="#E4002B"></path>
          <polygon id="Fill-69" fill="#E4002B" points="231.724021 306.91912 228.500386 308.288027 221.138107 301.494176 220.910147 311.510473 217.685984 312.879379 211.626035 298.599042 214.523032 297.36898 218.38464 306.467218 218.409442 297.958143 220.572428 297.039556 226.709419 302.932768 222.848338 293.834531 225.664072 292.638784"></polygon>
          <polygon id="Fill-71" fill="#E4002B" points="211.585509 314.931155 208.21676 315.887225 201.759991 308.228635 200.28458 318.137763 196.915303 319.093833 192.684315 304.169958 195.712179 303.311026 198.408128 312.81946 199.493578 304.380071 201.754186 303.738644 207.107563 310.350888 204.411614 300.842454 207.353993 300.007279"></polygon>
          <polygon id="Fill-73" fill="#E4002B" points="190.741744 320.128933 187.597789 320.681142 184.918198 305.400389 188.062153 304.848181"></polygon>
          <polygon id="Fill-75" fill="#E4002B" points="178.343597 319.039352 182.534481 318.627571 182.81521 321.494725 171.257299 322.630817 170.97657 319.763135 175.167454 319.351354 173.935306 306.779907 177.111977 306.467904"></polygon>
          <polygon id="Fill-77" fill="#E4002B" points="166.097002 322.94377 162.595804 322.880947 158.640268 313.677125 154.351762 322.7326 150.850563 322.669777 151.133931 307.158323 154.280524 307.21481 154.100055 317.09807 157.589117 309.336008 159.938376 309.378242 163.141959 317.260143 163.3219 307.377411 166.38037 307.432315"></polygon>
          <polygon id="Fill-79" fill="#E4002B" points="144.506456 322.01832 134.164333 320.605596 134.561153 317.707294 141.74138 318.688177 142.177248 315.504269 136.358452 314.709743 136.74894 311.85526 142.567736 312.649785 143.052152 309.114808 135.871926 308.134454 136.268746 305.235624 146.610341 306.648348"></polygon>
          <polygon id="Fill-81" fill="#E4002B" points="128.645685 319.580948 125.419411 318.779032 122.132981 307.662543 119.719872 317.363141 116.708366 316.614545 120.454411 301.558688 123.465389 302.306756 126.881102 313.821301 129.380224 303.776496 132.391729 304.524564"></polygon>
          <polygon id="Fill-83" fill="#E4002B" points="108.881566 310.969668 112.839213 312.409844 111.852967 315.117565 100.938305 311.145994 101.92455 308.438274 105.882197 309.87845 110.206058 298.004917 113.205427 299.096135"></polygon>
          <polygon id="Fill-85" fill="#E4002B" points="93.7061009 300.40792 87.0171501 296.940517 88.3237012 294.421793 95.0121244 297.889724"></polygon>
          <polygon id="Fill-87" fill="#E4002B" points="72.6103658 296.231463 64.0687086 290.229498 65.7515 287.835364 71.681638 292.002266 73.530123 289.372678 68.7244843 285.99555 70.3819468 283.637843 75.1875854 287.014443 77.2397572 284.094497 71.3096192 279.927595 72.9929384 277.533461 81.5340679 283.534897"></polygon>
          <polygon id="Fill-89" fill="#E4002B" points="59.5435352 286.787066 56.9325437 284.455227 59.9419383 274.89928 50.784999 278.964292 48.1734797 276.632453 58.5097979 265.061421 60.8564186 267.157806 54.2708943 274.529733 61.9782796 270.923486 63.7301979 272.488252 61.0131414 280.551759 67.5986657 273.179832 69.8793257 275.216562"></polygon>
          <path d="M44.2528237,261.352018 C44.0327786,261.102838 43.8765834,261.092807 43.6269878,261.312951 L40.9331496,263.68808 C40.6840817,263.908224 40.6740556,264.06449 40.8941008,264.31367 L43.8549483,267.671793 L47.2136712,264.709613 L44.2528237,261.352018 Z M43.7705185,272.000767 L38.347487,265.849928 C36.954923,264.270908 37.0435743,262.863463 38.6229392,261.470273 L41.7157083,258.743019 C43.2956009,257.350356 44.7034678,257.438519 46.0960318,259.018067 L49.408846,262.774244 L53.2994767,259.343796 L55.4102217,261.737402 L43.7705185,272.000767 Z" id="Fill-91" fill="#E4002B"></path>
          <path d="M38.7088993,245.593072 C38.5168215,245.321719 38.3622094,245.295323 38.0909787,245.488015 L30.9281656,250.564002 C30.6569349,250.756166 30.6305506,250.910848 30.8226284,251.182201 L33.5011638,254.961079 C33.6927139,255.232431 33.8478536,255.258828 34.1190843,255.066663 L41.2813697,249.990149 C41.5531281,249.797985 41.5795125,249.643831 41.386907,249.372478 L38.7088993,245.593072 Z M43.3440953,252.440243 L35.7469964,257.824537 C34.02885,259.041929 32.6383967,258.805419 31.4204969,257.087555 L28.1277347,252.440243 C26.9098349,250.722379 27.1472937,249.331828 28.8659678,248.113908 L36.462539,242.730142 C38.181213,241.512222 39.5716663,241.74926 40.7890385,243.467123 L44.0823283,248.114436 C45.2997005,249.8323 45.0622417,251.222851 43.3440953,252.440243 L43.3440953,252.440243 Z" id="Fill-93" fill="#E4002B"></path>
          <polygon id="Fill-95" fill="#E4002B" points="23.7813415 246.247645 22.2172794 243.314501 31.1341216 235.819568 19.7350433 238.660325 18.4622641 236.274638 27.1706702 228.388513 15.9805557 231.619934 14.478233 228.803989 30.0059284 224.941699 31.5910979 227.914438 23.8710481 234.921041 33.9899595 232.41182 35.6484774 235.521291"></polygon>
          <polygon id="Fill-97" fill="#E4002B" points="12.6597734 224.067246 8.91636722 214.323886 11.6476712 213.273846 14.246526 220.03866 17.2464223 218.885147 15.1404265 213.403187 17.8300432 212.369513 19.9365667 217.851472 23.2673223 216.57073 20.6684675 209.806443 23.3997715 208.756931 27.1431777 218.500291"></polygon>
          <path d="M12.1241719,199.778849 C12.0334099,199.458927 11.8967391,199.382906 11.5769613,199.473709 L8.27206232,200.411301 C7.95175677,200.502104 7.87576995,200.638836 7.9660043,200.958758 L9.18126571,205.243915 L13.3389056,204.064005 L12.1241719,199.778849 Z M18.9957022,193.544597 L19.9328729,196.848872 L15.3673315,200.816747 L16.0686266,203.289541 L21.335463,201.794989 L22.2056176,204.865394 L7.27948449,209.100398 L5.04948243,201.233806 C4.47483211,199.208163 5.16240729,197.976517 7.18819477,197.402136 L10.7917641,196.37902 C12.4761386,195.901249 13.6233285,196.289801 14.2781871,197.624392 L18.9957022,193.544597 Z" id="Fill-99" fill="#E4002B"></path>
          <polygon id="Fill-101" fill="#E4002B" points="2.90591537 192.283335 2.39775352 188.818571 10.8349289 183.411577 1.20043343 180.661094 0.692271583 177.196331 16.0442475 174.939457 16.5012237 178.053151 6.72003154 179.491215 14.9471878 181.664149 15.2886008 183.989125 8.03238723 188.437938 17.8141071 187.000402 18.2578912 190.026461"></polygon>
          <polygon id="Fill-103" fill="#E4002B" points="0.297615041 170.840762 0 160.406878 2.92443716 160.32241 3.13076248 167.56658 6.34331633 167.473665 6.17603979 161.603153 9.05562362 161.520269 9.22342785 167.390781 12.7900592 167.287836 12.5837338 160.044194 15.508171 159.959727 15.805786 170.393611"></polygon>
          <polygon id="Fill-105" fill="#E4002B" points="0.112344401 154.792515 0.377242895 151.478738 10.8085446 146.417533 0.844772907 145.624591 1.09173007 142.532014 16.5566308 143.762604 16.309146 146.85571 5.50688087 152.109606 15.8242023 152.930528 15.5767174 156.023633"></polygon>
          <polygon id="Fill-107" fill="#E4002B" points="5.39047328 133.884782 4.61213607 138.023176 1.78057169 137.492085 3.92667164 126.077846 6.75876371 126.609465 5.9804265 130.747859 18.3968838 133.07917 17.8069306 136.215565"></polygon>
          <polygon id="Fill-109" fill="#E4002B" points="13.3509369 117.190778 15.691753 110.027381 18.3887574 110.907958 16.0474136 118.071355"></polygon>
          <polygon id="Fill-111" fill="#E4002B" points="45.6868639 109.129383 44.640462 111.396287 43.0895922 110.680423 45.9755082 104.429278 47.5263781 105.144615 46.4799763 107.411519 53.2797412 110.547914 52.4866288 112.266306"></polygon>
          <path d="M53.7175097,99.1014717 C53.8140763,98.9298965 53.7898027,98.8401495 53.617777,98.7435394 L51.8452789,97.7420681 C51.6732532,97.6449301 51.5840742,97.6702705 51.48698,97.8418457 L50.1878164,100.140954 L52.4183462,101.40058 L53.7175097,99.1014717 Z M59.2091405,99.3960531 L58.2070643,101.169349 L54.63199,100.900636 L53.8821478,102.227308 L56.70738,103.823221 L55.7765414,105.470343 L47.7699581,100.948149 L50.1550999,96.7273987 C50.7693267,95.6404038 51.5751036,95.4165641 52.6616096,96.0305394 L54.5945243,97.1217577 C55.4979231,97.63226 55.8124241,98.2779107 55.5232521,99.1099185 L59.2091405,99.3960531 Z" id="Fill-113" fill="#E4002B"></path>
          <path d="M60.4002338,90.8357172 L56.5987822,89.5523346 L59.1670311,92.6343533 L60.4002338,90.8357172 Z M62.1051881,91.4148495 L60.3221363,94.0154018 L61.6497949,95.6097314 L60.5205463,97.2563255 L54.5191707,89.7518898 L56.0790112,87.4765385 L65.2449212,90.3653371 L64.071347,92.0773938 L62.1051881,91.4148495 Z" id="Fill-115" fill="#E4002B"></path>
          <polygon id="Fill-117" fill="#E4002B" points="59.9870028 82.1209107 61.242896 80.6026021 68.027358 81.6948763 63.4623443 77.9196938 64.6348632 76.5022186 71.7201064 82.3621719 70.5475875 83.7791192 63.5177514 82.6541137 68.2447648 86.5633889 67.0722459 87.9803361"></polygon>
          <path d="M72.8123641,78.4313574 L71.9897013,77.6188828 L73.2825326,76.3101599 L74.011795,77.0302479 C74.1516318,77.1685639 74.2445046,77.168036 74.3832861,77.0276082 L76.1009048,75.2891554 C76.2391586,75.1487277 76.2386309,75.0558131 76.098794,74.9174971 L75.3135969,74.1419772 C75.1077993,73.9392545 74.9779885,73.9582597 74.6819565,74.1462006 L72.5902082,75.5156347 C71.6002688,76.1628692 70.7559708,76.3634802 69.914839,75.5325283 L68.9053752,74.5358083 C68.0172792,73.658399 68.0125301,72.8226958 68.8895446,71.9342002 L70.8841986,69.9148919 C71.7612131,69.0269242 72.5975958,69.021645 73.4856918,69.8985263 L74.2334232,70.6370916 L72.9405919,71.9458145 L72.2862609,71.2996359 C72.1458964,71.1613198 72.0530236,71.1618478 71.9147698,71.3022755 L70.3264342,72.9103311 C70.1876528,73.0502309 70.1881804,73.1431455 70.328545,73.2819894 L71.0388107,73.9836001 C71.2446083,74.1863228 71.3744191,74.1667896 71.6704511,73.9793767 L73.7621994,72.6094146 C74.7521388,71.9627081 75.5964367,71.762097 76.4375686,72.5925211 L77.5219638,73.6636783 C78.4095321,74.5405596 78.414809,75.3767908 77.5377944,76.2647585 L75.4138573,78.4149918 C74.5363151,79.3029595 73.6999324,79.3082387 72.8123641,78.4313574" id="Fill-119" fill="#E4002B"></path>
          <path d="M81.7869351,65.9136524 C81.936798,65.785367 81.9441856,65.6929803 81.8159579,65.54305 L80.4318369,63.9265476 C80.3041368,63.7771451 80.211264,63.7697542 80.0614011,63.8980397 L78.045112,65.6238223 L79.770646,67.6394351 L81.7869351,65.9136524 Z M75.4800292,65.5367149 L79.1738329,62.3755077 C80.122085,61.5640889 80.9553016,61.6284956 81.7668831,62.5766466 L83.3557463,64.4328264 C84.1668001,65.3804495 84.1024224,66.214041 83.1536425,67.0259877 L80.8983115,68.9566048 L82.8966593,71.2916114 L81.459242,72.5222016 L75.4800292,65.5367149 Z" id="Fill-121" fill="#E4002B"></path>
          <path d="M91.9457924,62.0097093 C92.106209,61.8951499 92.1209842,61.8032911 92.0064763,61.6433302 L88.9775573,57.4157171 C88.8630494,57.2557562 88.7712319,57.2404464 88.611343,57.3550058 L86.3792302,58.9540868 C86.2193413,59.0686463 86.2040384,59.160505 86.3185463,59.3204659 L89.3474653,63.548079 C89.4619732,63.7085679 89.5537906,63.7233497 89.7142073,63.6087903 L91.9457924,62.0097093 Z M87.901605,64.7781413 L84.6890512,60.2939572 C83.9629549,59.2803437 84.099098,58.4551989 85.1133109,57.7287758 L87.8578071,55.76226 C88.8725477,55.035309 89.6973213,55.1715133 90.4239453,56.1856548 L93.6359714,60.6698389 C94.3625954,61.6839804 94.2264523,62.5085972 93.2117117,63.2355482 L90.4672155,65.2015361 C89.4530026,65.9284871 88.628229,65.7922828 87.901605,64.7781413 L87.901605,64.7781413 Z" id="Fill-123" fill="#E4002B"></path>
          <path d="M99.1388419,53.6463945 C99.3082292,53.546089 99.3314474,53.455814 99.231187,53.2863505 L98.1942835,51.5346996 C98.0940231,51.3647082 98.0037888,51.3420074 97.8344015,51.4423129 L95.5616568,52.7874626 L96.8660972,54.9920721 L99.1388419,53.6463945 Z M103.75082,56.6402499 L101.998374,57.67762 L99.03436,55.6620073 L97.722532,56.4385831 L99.3752453,59.2307716 L97.7468056,60.1947603 L93.0635902,52.2817117 L97.2354776,49.8120845 C98.3098468,49.1759364 99.1198452,49.3834104 99.7551794,50.4577352 L100.886011,52.3677632 C101.414753,53.2610102 101.36515,53.9768747 100.69921,54.5544233 L103.75082,56.6402499 Z" id="Fill-125" fill="#E4002B"></path>
          <polygon id="Fill-127" fill="#E4002B" points="104.954525 47.629859 102.70922 48.7216052 101.963071 47.1853472 108.154942 44.1751261 108.90109 45.7108563 106.656313 46.8026025 109.929023 53.5367975 108.227235 54.364054"></polygon>
          <path d="M116.843454,46.4962484 L114.406071,43.3091729 L114.816084,47.3008041 L116.843454,46.4962484 Z M117.934182,47.9285054 L115.00394,49.0915214 L115.215014,51.1557032 L113.358614,51.8921567 L112.569723,42.3140366 L115.133751,41.2961997 L121.1251,48.8101381 L119.195352,49.5756275 L117.934182,47.9285054 Z" id="Fill-129" fill="#E4002B"></path>
          <polygon id="Fill-131" fill="#E4002B" points="122.52806 40.5021496 120.146084 41.2486338 119.635811 39.6189332 126.20445 37.5605587 126.714722 39.1897313 124.333274 39.9362154 126.570664 47.0800792 124.765449 47.6460135"></polygon>
          <polygon id="Fill-133" fill="#E4002B" points="129.902792 36.6083954 131.739667 36.1564927 133.934314 45.0852666 132.097439 45.5371694"></polygon>
          <path d="M142.073294,41.6820064 C142.267483,41.6476913 142.320779,41.5716703 142.287007,41.3779223 L141.389413,36.2533667 C141.355113,36.0590908 141.279126,36.0057705 141.085466,36.0395576 L138.380018,36.514161 C138.186357,36.5484761 138.133061,36.6244971 138.166833,36.818773 L139.064427,41.9428007 C139.098199,42.1370766 139.174186,42.1903969 139.368375,42.1566098 L142.073294,41.6820064 Z M137.227552,42.425323 L136.276133,36.9903482 C136.060837,35.7608139 136.541032,35.0760968 137.770541,34.8607039 L141.096547,34.2773482 C142.326056,34.0614274 143.010465,34.541838 143.225761,35.7708444 L144.177707,41.2063471 C144.393003,42.4353535 143.912809,43.1200706 142.6833,43.3354635 L139.357293,43.9188192 C138.127784,44.13474 137.443375,43.6543294 137.227552,42.425323 L137.227552,42.425323 Z" id="Fill-135" fill="#E4002B"></path>
          <polygon id="Fill-137" fill="#E4002B" points="147.316438 33.3852627 149.280486 33.2210784 153.242354 38.8360752 152.750551 32.9312483 154.583733 32.7776225 155.347295 41.9429063 153.514113 42.0960041 149.403964 36.283036 149.913182 42.3974486 148.08 42.5505465"></polygon>
          <polygon id="Fill-139" fill="#E4002B" points="164.18034 36.6795068 168.642983 36.8526657 168.577022 38.532519 164.114907 38.35936"></polygon>
          <polygon id="Fill-141" fill="#E4002B" points="178.410508 33.7445148 180.284322 34.0074208 179.003627 43.114105 177.130341 42.851727"></polygon>
          <polygon id="Fill-143" fill="#E4002B" points="184.803532 34.7071309 186.730642 35.1189114 188.895211 41.6408811 190.135274 35.8463903 191.934156 36.2307188 190.009157 45.2244273 188.210275 44.8400989 185.961276 38.0853148 184.677415 44.0851679 182.878533 43.7008395"></polygon>
          <path d="M198.734977,45.9549682 C198.922833,46.0135677 199.005152,45.970278 199.063725,45.7818092 L200.609318,40.813519 C200.667891,40.6250503 200.624621,40.5432221 200.436765,40.4846226 L197.739233,39.6462797 L196.037445,45.1166253 L198.734977,45.9549682 Z M196.447457,37.4284721 L201.253095,38.9219683 C202.444611,39.2920429 202.833516,40.0321919 202.46308,41.2242437 L200.823559,46.4939783 C200.453123,47.6860301 199.712779,48.0751099 198.520736,47.7045074 L193.715625,46.2115391 L196.447457,37.4284721 Z" id="Fill-145" fill="#E4002B"></path>
          <path d="M204.29204,47.7448408 L207.081918,40.9367364 L208.832253,41.6536569 L206.102532,48.3155263 C206.027601,48.4981879 206.063483,48.5837116 206.246063,48.6586767 L208.628566,49.6342798 C208.811145,49.708717 208.896631,49.6728182 208.971562,49.4906845 L211.701283,42.8282871 L213.451618,43.5452076 L210.662269,50.3533119 C210.188934,51.508409 209.417457,51.8309704 208.262879,51.3584787 L205.296755,50.1437262 C204.14165,49.6707065 203.818706,48.8999379 204.29204,47.7448408" id="Fill-147" fill="#E4002B"></path>
          <path d="M213.970545,51.8841851 L214.498759,50.8563176 L216.134059,51.6957163 L215.666001,52.6074406 C215.576294,52.7821834 215.604262,52.8708745 215.779981,52.9606216 L217.952465,54.0766523 C218.127657,54.1669273 218.216308,54.1384194 218.306015,53.9631487 L218.810483,52.9817385 C218.942405,52.7246397 218.885415,52.6063848 218.61735,52.3804334 L216.684435,50.7971902 C215.770483,50.0475385 215.326699,49.3026381 215.867049,48.251014 L216.515048,46.9892763 C217.085477,45.8790528 217.881228,45.6235377 218.990952,46.1931674 L221.514347,47.4892201 C222.624072,48.0588498 222.879999,48.8544309 222.309571,49.9646544 L221.829376,50.8990794 L220.193549,50.0596807 L220.614115,49.2413989 C220.703821,49.0661283 220.675854,48.977965 220.500135,48.888218 L218.491233,47.8561271 C218.315513,47.7663801 218.22739,47.7948879 218.137156,47.9701586 L217.681235,48.8575984 C217.549313,49.1146973 217.606303,49.2329522 217.874368,49.4589035 L219.806755,51.0421468 C220.721235,51.7923264 221.165019,52.5372267 220.625196,53.5883229 L219.92865,54.9435031 C219.358221,56.0537267 218.562471,56.3092417 217.452746,55.739612 L214.765768,54.3596194 C213.656044,53.7899897 213.400116,52.9938808 213.970545,51.8841851" id="Fill-149" fill="#E4002B"></path>
          <polygon id="Fill-151" fill="#E4002B" points="227.560154 52.8787934 225.437273 51.5658471 226.335922 50.1135289 232.190601 53.7340298 231.291951 55.186348 229.16907 53.8739296 225.228836 60.2433293 223.619921 59.2481931"></polygon>
          <path d="M236.531929,62.0542661 C236.690234,62.1714651 236.78258,62.1572112 236.899198,61.9988341 L238.108655,60.3596309 C238.225801,60.2012538 238.212082,60.1093951 238.053248,59.9927239 L235.928256,58.4253184 L234.406936,60.4868605 L236.531929,62.0542661 Z M235.572595,67.4697076 L233.934129,66.2612902 L234.634897,62.7447903 L233.408554,61.840457 L231.481444,64.4520956 L229.959069,63.3292019 L235.420094,55.9277113 L239.321278,58.8048956 C240.325465,59.5461005 240.449999,60.372829 239.7086,61.3769399 L238.39044,63.1639617 C237.774102,63.9991371 237.095497,64.2330073 236.303968,63.8455113 L235.572595,67.4697076 Z" id="Fill-153" fill="#E4002B"></path>
          <polygon id="Fill-155" fill="#E4002B" points="244.149449 62.6513478 245.592671 63.8745471 239.644064 70.8917092 238.200842 69.6685099"></polygon>
          <path d="M248.362918,73.8663482 L250.275781,70.337706 L246.799911,72.3454 L248.362918,73.8663482 Z M247.501206,75.4485356 L245.242182,73.2497333 L243.444355,74.2871034 L242.013269,72.8944406 L250.434086,68.254519 L252.410799,70.1782731 L248.000398,78.7211348 L246.513378,77.2735679 L247.501206,75.4485356 Z" id="Fill-157" fill="#E4002B"></path>
          <polygon id="Fill-159" fill="#E4002B" points="256.974916 74.9268942 258.217617 76.3528161 252.590371 81.2561717 255.196613 84.2473875 253.889534 85.3866469 250.040063 80.9695091"></polygon>
          <polygon id="Fill-161" fill="#E4002B" points="262.85218 88.6062425 265.394044 92.2790078 264.010979 93.2361336 261.469114 89.5633682"></polygon>
          <polygon id="Fill-163" fill="#E4002B" points="273.875756 98.3039373 274.826119 100.149031 271.132843 104.801095 277.064037 104.493315 278.014927 106.338408 269.837901 110.551768 268.983577 108.893559 274.193423 106.209067 269.161407 106.570167 268.523962 105.332186 271.739155 101.444028 266.529308 104.12852 265.699258 102.516769"></polygon>
          <path d="M276.452026,116.748167 L279.639251,114.308631 L275.647305,114.721996 L276.452026,116.748167 Z M275.019886,117.839913 L273.856337,114.910464 L271.792029,115.12269 L271.054851,113.267566 L280.634467,112.471457 L281.652374,115.035054 L274.13865,121.031212 L273.372449,119.102707 L275.019886,117.839913 Z" id="Fill-165" fill="#E4002B"></path>
          <path d="M281.107855,126.819737 C281.164317,127.008206 281.246108,127.052552 281.43502,126.996064 L283.385348,126.410596 C283.573732,126.354108 283.618058,126.27228 283.561596,126.083812 L282.80331,123.555057 L280.350097,124.290983 L281.107855,126.819737 Z M277.091107,130.574859 L276.506431,128.625236 L279.177051,126.233742 L278.739599,124.774033 L275.631527,125.706874 L275.088538,123.89504 L283.896149,121.252782 L285.287657,125.894815 C285.645956,127.090034 285.249664,127.82596 284.053927,128.18442 L281.927879,128.82268 C280.933718,129.120429 280.250892,128.900813 279.850906,128.115262 L277.091107,130.574859 Z" id="Fill-167" fill="#E4002B"></path>
          <polygon id="Fill-169" fill="#E4002B" points="286.842907 131.863204 287.265056 133.706713 278.300722 135.760337 277.879101 133.916827"></polygon>
          <polygon id="Fill-171" fill="#E4002B" points="288.21753 138.173159 288.520422 140.120142 283.201344 144.470761 289.054968 143.559037 289.337808 145.37615 280.252106 146.791514 279.969794 144.974401 285.475672 140.461181 279.414668 141.405636 279.131828 139.588523"></polygon>
          <polygon id="Fill-173" fill="#E4002B" points="289.821326 149.996011 290.237143 156.170079 288.506332 156.287278 288.218216 152.000537 286.316962 152.128823 286.550727 155.602561 284.846828 155.717648 284.613063 152.244438 282.502318 152.386978 282.790963 156.67319 281.060679 156.790389 280.644863 150.616321"></polygon>
          <polygon id="Fill-175" fill="#E4002B" points="286.234538 165.300731 286.017131 169.762742 284.336978 169.681442 284.554385 165.219431"></polygon>
          <path d="M282.966366,182.845853 L286.956201,182.410844 L283.328358,180.695092 L282.966366,182.845853 Z M281.175398,183.03749 L281.698863,179.928547 L279.823994,179.040051 L280.155381,177.070896 L288.759305,181.354997 L288.300746,184.075916 L278.767566,185.310729 L279.112673,183.263441 L281.175398,183.03749 Z" id="Fill-177" fill="#E4002B"></path>
          <polygon id="Fill-179" fill="#E4002B" points="287.436185 188.719322 286.932244 190.733351 279.57366 190.858469 286.00721 194.429873 285.515934 196.393221 277.285084 191.396951 277.821214 189.255692"></polygon>
          <polygon id="Fill-181" fill="#E4002B" points="284.385894 199.969059 283.804912 201.769279 275.053763 198.947527 275.634746 197.147307"></polygon>
          <path d="M275.626672,208.139577 L279.618618,208.561915 L276.437726,206.114461 L275.626672,208.139577 Z M273.835705,207.946884 L275.007696,205.019019 L273.363426,203.75253 L274.10588,201.897934 L281.605357,207.913097 L280.579535,210.474583 L270.999391,209.657357 L271.771396,207.72938 L273.835705,207.946884 Z" id="Fill-183" fill="#E4002B"></path>
          <polygon id="Fill-185" fill="#E4002B" points="276.064441 216.390338 277.162028 214.148246 278.696012 214.898426 275.669204 221.082524 274.13522 220.331817 275.232807 218.089724 268.50639 214.799176 269.338552 213.100317"></polygon>
          <polygon id="Fill-187" fill="#E4002B" points="273.811115 224.421166 272.873416 226.064593 264.886357 221.509139 265.824056 219.865713"></polygon>
          <path d="M261.743933,229.756469 C261.634702,229.920653 261.653171,230.011984 261.817281,230.120737 L266.150113,232.998977 C266.314224,233.108257 266.405513,233.08978 266.514744,232.925595 L268.034481,230.63863 C268.143712,230.474445 268.125243,230.383643 267.961132,230.274362 L263.628301,227.396122 C263.46419,227.286842 263.3729,227.305319 263.263669,227.469504 L261.743933,229.756469 Z M264.544364,225.732635 L269.139456,228.785617 C270.178998,229.47667 270.344163,230.296007 269.653422,231.335489 L267.784357,234.147739 C267.093616,235.187748 266.273592,235.352989 265.23405,234.662464 L260.638958,231.609481 C259.599416,230.918957 259.43425,230.099092 260.124992,229.05961 L261.994056,226.24736 C262.685325,225.207878 263.504822,225.04211 264.544364,225.732635 L264.544364,225.732635 Z" id="Fill-189" fill="#E4002B"></path>
          <polygon id="Fill-191" fill="#E4002B" points="264.157042 239.256245 262.923839 240.793559 256.124074 239.803702 260.745551 243.509727 259.594667 244.944624 252.421828 239.192367 253.572712 237.757998 260.618378 238.776363 255.833319 234.939413 256.984203 233.504516"></polygon>
          <polygon id="Fill-193" fill="#E4002B" points="250.154413 249.231945 246.958217 252.35303 245.783588 251.15042 248.979783 248.029335"></polygon>
          <polygon id="Fill-195" fill="#E4002B" points="242.453782 261.651456 237.555271 265.433502 236.495677 264.0609 239.896614 261.435007 238.732539 259.927785 235.976433 262.055318 234.933198 260.703833 237.689303 258.5763 236.396472 256.902254 232.996061 259.527619 231.936467 258.155545 236.834979 254.3735"></polygon>
          <polygon id="Fill-197" fill="#E4002B" points="234.088266 267.931373 232.332654 269.039485 227.377153 265.767413 228.19876 271.649012 226.443148 272.757123 221.535138 264.980807 223.11292 263.985143 226.239989 268.939707 225.443183 263.958747 226.620978 263.21543 230.773869 266.077832 227.6468 261.12274 229.180257 260.155056"></polygon>
          <polygon id="Fill-199" fill="#E4002B" points="222.327512 274.999479 216.806858 277.793252 216.0243 276.246435 219.856885 274.306844 218.997284 272.607457 215.891323 274.179614 215.120373 272.656026 218.226862 271.084397 217.272278 269.197598 213.439165 271.137189 212.656606 269.590373 218.17726 266.796601"></polygon>
          <path d="M207.166875,277.282169 C206.984296,277.356078 206.947885,277.441602 207.021761,277.624263 L207.786379,279.511063 C207.860255,279.693724 207.94574,279.730151 208.128319,279.655714 L210.575728,278.664273 L209.614284,276.2902 L207.166875,277.282169 Z M203.053033,273.634744 L204.940567,272.869782 L207.570555,275.304567 L208.983171,274.732297 L207.764744,271.725244 L209.518245,271.014658 L212.970368,279.535875 L208.47712,281.357212 C207.320432,281.82548 206.551065,281.500279 206.08248,280.343598 L205.248736,278.28628 C204.859303,277.324403 205.014971,276.623848 205.759536,276.151884 L203.053033,273.634744 Z" id="Fill-201" fill="#E4002B"></path>
          <path d="M200.644145,276.426985 L202.273113,281.698831 C202.641438,282.890883 202.25095,283.630504 201.058379,283.999523 L198.033154,284.935004 C196.840583,285.303495 196.101295,284.913359 195.73297,283.721307 L195.376254,282.56621 L197.183579,282.007667 L197.493859,283.011778 C197.552432,283.199719 197.634223,283.243008 197.822607,283.184937 L200.245742,282.435813 C200.433599,282.377741 200.476869,282.295385 200.418823,282.106917 L198.883256,277.136515 C198.824683,276.948574 198.742892,276.904756 198.554508,276.963356 L196.131373,277.712479 C195.943516,277.770551 195.899718,277.852907 195.958292,278.041376 L196.377275,279.396556 L198.034209,278.88447 L198.522847,280.465602 L195.058059,281.537287 L194.104002,278.449461 C193.735149,277.257409 194.125637,276.51726 195.318208,276.148769 L198.343961,275.213289 C199.536532,274.84427 200.27582,275.234405 200.644145,276.426985" id="Fill-203" fill="#E4002B"></path>
          <polygon id="Fill-205" fill="#E4002B" points="192.054416 286.572148 186.011353 287.910963 185.636696 286.217911 189.832329 285.288238 189.420734 283.427834 186.020852 284.181182 185.651471 282.513471 189.051354 281.760123 188.594377 279.694886 184.399272 280.624559 184.024087 278.93098 190.06715 277.592166"></polygon>
          <polygon id="Fill-207" fill="#E4002B" points="181.846537 288.661723 179.893042 288.920934 175.663637 283.506548 176.441974 289.379699 174.618818 289.621488 173.410944 280.506357 175.2341 280.264568 179.621284 285.870062 178.815507 279.788909 180.638663 279.546592"></polygon>
          <path d="M169.886897,282.643498 L170.124356,288.15555 C170.17818,289.402506 169.613028,290.018593 168.366106,290.072441 L165.320828,290.204422 C164.073906,290.258798 163.458096,289.69392 163.404272,288.446964 L163.339894,286.950828 L165.230066,286.869 L165.287584,288.207286 C165.296027,288.404202 165.364626,288.467025 165.561453,288.458578 L167.976673,288.354049 C168.1735,288.345074 168.236295,288.276972 168.227852,288.080057 L168.003585,282.882648 C167.995142,282.68626 167.926543,282.622909 167.729716,282.631884 L165.315024,282.736413 C165.118197,282.74486 165.055402,282.81349 165.063845,283.010405 L165.121363,284.348692 L163.231191,284.431048 L163.166813,282.934912 C163.112989,281.687956 163.678669,281.071869 164.925064,281.018021 L167.970341,280.88604 C169.217264,280.831664 169.833073,281.396542 169.886897,282.643498" id="Fill-209" fill="#E4002B"></path>
          <polygon id="Fill-211" fill="#E4002B" points="157.458145 284.141482 160.20739 290.313438 158.15944 290.23161 156.420714 286.059429 154.352184 290.07904 152.33009 289.998268 155.567445 284.065989 155.69409 280.92801 157.58479 281.004031"></polygon>
          <path d="M139.665251,284.073538 C139.471062,284.040807 139.395076,284.095183 139.362359,284.289459 L139.025695,286.297681 C138.992979,286.492484 139.046803,286.567978 139.240991,286.600709 L141.84565,287.036774 L142.26991,284.510131 L139.665251,284.073538 Z M138.070583,278.810138 L140.079485,279.146954 L141.04515,282.599575 L142.548529,282.851395 L143.085713,279.650593 L144.951612,279.963124 L143.429237,289.034437 L138.647344,288.233049 C137.416252,288.026631 136.930781,287.346137 137.137634,286.114491 L137.504903,283.924663 C137.676929,282.901019 138.176648,282.385238 139.057884,282.373096 L138.070583,278.810138 Z" id="Fill-213" fill="#E4002B"></path>
          <polygon id="Fill-215" fill="#E4002B" points="132.523598 286.994012 126.528555 285.464617 126.957564 283.784236 131.119953 284.84589 131.591704 283.000269 128.218206 282.139753 128.640883 280.484712 132.014381 281.345756 132.537846 279.296356 128.375456 278.234174 128.804465 276.553792 134.800036 278.083715"></polygon>
          <path d="M119.630218,278.61771 C119.443945,278.553304 119.36057,278.593954 119.296193,278.780311 L118.601757,280.792228 C118.53738,280.978585 118.578012,281.061997 118.764285,281.126404 L121.272905,281.991671 L122.138838,279.482449 L119.630218,278.61771 Z M122.495554,284.247489 L117.900462,282.66319 C116.720556,282.256161 116.354869,281.504397 116.762243,280.325016 L117.559049,278.014821 C117.966423,276.834912 118.718376,276.468533 119.897755,276.875562 L122.704518,277.843246 L123.70765,274.937026 L125.495978,275.554169 L122.495554,284.247489 Z" id="Fill-217" fill="#E4002B"></path>
          <path d="M111.091199,274.018492 L110.539767,277.993757 L113.089019,274.893261 L111.091199,274.018492 Z M111.34185,272.235165 L114.229877,273.499543 L115.549093,271.896766 L117.378053,272.697626 L111.123916,279.999339 L108.596826,278.892811 L109.725019,269.346895 L111.626273,270.17943 L111.34185,272.235165 Z" id="Fill-219" fill="#E4002B"></path>
          <polygon id="Fill-221" fill="#E4002B" points="102.720882 276.059497 101.043895 275.1842 105.30074 267.031474 106.977727 267.906771"></polygon>
          <path d="M95.3982324,266.999429 C95.2299005,266.897012 95.1396661,266.918657 95.0367673,267.086536 L93.9750626,268.824461 C93.8721638,268.992341 93.8943266,269.082616 94.0621308,269.185561 L96.3148234,270.561858 L97.650925,268.375726 L95.3982324,266.999429 Z M95.8831761,261.52222 L97.6203192,262.583347 L97.2282483,266.146832 L98.5279395,266.940829 L100.220757,264.172397 L101.834422,265.158559 L97.0382812,273.005089 L92.9022765,270.477918 C91.8374056,269.827516 91.641634,269.015042 92.2927989,267.95022 L93.4505425,266.055501 C93.9919486,265.170173 94.6473349,264.878231 95.46947,265.195514 L95.8831761,261.52222 Z" id="Fill-223" fill="#E4002B"></path>
          <polygon id="Fill-225" fill="#E4002B" points="86.0617742 260.864427 82.5500222 258.105498 83.5890364 256.783049 87.1007884 259.541978"></polygon>
          <polygon id="Fill-227" fill="#E4002B" points="73.3193651 255.546388 71.9426317 254.136831 75.7736338 248.394077 69.7585383 251.900546 68.6387881 250.754424 72.2861554 244.823201 66.454167 248.517611 65.132313 247.164543 73.327808 242.392112 74.7230105 243.820674 71.4919876 249.087241 76.8337554 245.981994 78.2933356 247.47549"></polygon>
          <path d="M64.7455718,238.008445 L62.4232246,241.2821 L66.1143899,239.70572 L64.7455718,238.008445 Z M65.7903905,236.541345 L67.7692139,238.995134 L69.6783828,238.181076 L70.9316376,239.735283 L62.0163785,243.330972 L60.2845123,241.183906 L65.6880194,233.232847 L66.990349,234.848293 L65.7903905,236.541345 Z" id="Fill-229" fill="#E4002B"></path>
          <polygon id="Fill-231" fill="#E4002B" points="57.3412895 234.352995 58.7570717 236.407675 57.3502601 237.376415 53.446965 231.709681 54.8532488 230.740941 56.2685033 232.79562 62.4345171 228.547946 63.5073032 230.104793"></polygon>
          <polygon id="Fill-233" fill="#E4002B" points="51.3787515 228.397171 48.2886209 223.03769 49.7909436 222.171367 51.9359882 225.892173 53.5865908 224.940327 51.8478646 221.925354 53.3274968 221.071702 55.066223 224.087202 56.8983496 223.030299 54.7527774 219.309492 56.2551001 218.443169 59.3452307 223.802123"></polygon>
          <path d="M48.2714183,213.37262 C48.1880439,213.194182 48.100448,213.163035 47.92209,213.246447 L46.0783543,214.112769 C45.8999963,214.196709 45.8683352,214.283817 45.9522373,214.462255 L47.0746259,216.852166 L49.393807,215.762531 L48.2714183,213.37262 Z M51.6929359,209.065291 L52.5583414,210.9088 L50.2687107,213.668258 L50.9161818,215.047194 L53.8538111,213.667202 L54.6580049,215.379786 L46.3326991,219.291173 L44.2720843,214.903071 C43.7417596,213.773842 44.0256548,212.987236 45.155431,212.456145 L47.165388,211.512217 C48.1051971,211.070345 48.8133521,211.187544 49.3246801,211.90552 L51.6929359,209.065291 Z" id="Fill-235" fill="#E4002B"></path>
          <polygon id="Fill-237" fill="#E4002B" points="43.85822 203.108252 42.4477146 198.870609 44.0434378 198.339517 45.4539432 202.577161"></polygon>
          <polygon id="Fill-239" fill="#E4002B" points="36.0436616 190.769883 34.768244 184.71671 36.4652829 184.358777 37.3507404 188.561578 39.2140006 188.168275 38.4963473 184.762639 40.1675296 184.409986 40.8851829 187.81615 42.9542407 187.379029 42.0693108 183.176756 43.7658221 182.818824 45.0412397 188.871997"></polygon>
          <polygon id="Fill-241" fill="#E4002B" points="34.0557092 180.539724 33.8166674 178.583767 39.2761092 174.408418 33.3945184 175.127978 33.1718348 173.302418 42.3002791 172.184803 42.5234904 174.010364 36.8709153 178.341978 42.96147 177.59655 43.1841536 179.42211"></polygon>
          <polygon id="Fill-243" fill="#E4002B" points="32.8425058 168.66408 32.631959 162.478398 34.3654083 162.41927 34.5115774 166.713402 36.415997 166.647939 36.2972676 163.167866 38.0048603 163.109267 38.123062 166.58934 40.2380285 166.517014 40.0918594 162.222355 41.8253087 162.162699 42.0358555 168.348382"></polygon>
          <path d="M37.1596125,153.943085 C37.1691108,153.74617 37.1073715,153.67754 36.9100169,153.667509 L34.8763141,153.566676 C34.6789595,153.556645 34.6103602,153.61894 34.6003342,153.815856 L34.4684126,156.453363 L37.0276909,156.580592 L37.1596125,153.943085 Z M42.2027099,151.747451 L42.1008665,153.781013 L38.7833031,155.142 L38.7073162,156.664532 L41.9483651,156.825549 L41.8539093,158.715516 L32.6679472,158.257806 L32.9101552,153.41569 C32.9729498,152.169262 33.5929812,151.608079 34.8393761,151.670374 L37.0572413,151.78071 C38.0941448,151.831919 38.664046,152.268511 38.7785539,153.142225 L42.2027099,151.747451 Z" id="Fill-245" fill="#E4002B"></path>
          <path d="M40.6841344,148.39788 L35.217305,147.648757 C33.9809361,147.479821 33.4754127,146.813581 33.6453276,145.577184 L34.0759196,142.440261 C34.2458346,141.203336 34.9117746,140.698113 36.1481435,140.867576 L37.3459913,141.031761 L37.0884804,142.90589 L36.0468277,142.76335 C35.8521115,142.736426 35.7777077,142.792914 35.7507957,142.987718 L35.4062166,145.500107 C35.3793046,145.695439 35.4352394,145.769348 35.6304833,145.795744 L40.7854502,146.502106 C40.9801664,146.52903 41.0545702,146.472542 41.0814822,146.277211 L41.4260613,143.76535 C41.4529733,143.570018 41.3970386,143.496109 41.2017946,143.469184 L39.7955108,143.276492 L39.5601627,144.994884 L37.9201139,144.769988 L38.4129728,141.177995 L41.614973,141.6167 C42.8518695,141.785636 43.3568653,142.451875 43.187478,143.688273 L42.7563583,146.825196 C42.586971,148.061593 41.9205033,148.567344 40.6841344,148.39788" id="Fill-247" fill="#E4002B"></path>
          <polygon id="Fill-249" fill="#E4002B" points="41.435929 135.842218 34.8736229 137.452385 35.3184624 135.451554 39.7336132 134.48123 36.1464021 131.732859 36.5859648 129.757897 41.8469966 133.99554 44.9117983 134.676562 44.5007307 136.523239"></polygon>
          <polygon id="Fill-251" fill="#E4002B" points="42.8177282 122.89077 44.2794191 118.668964 45.8688101 119.218533 44.4071192 123.440339"></polygon>
          <path d="M93.4816232,144.641069 L90.7323779,143.595253 L92.5988041,138.694009 L94.7201028,139.501732 C95.138558,139.660637 95.3448833,139.56825 95.5042446,139.149607 L97.3020716,134.428385 C97.4614328,134.009742 97.3690878,133.803323 96.9506326,133.644418 L94.7691776,132.814522 C94.2910939,132.632389 94.0620781,132.784959 93.673701,133.355644 L90.2126069,138.402067 C88.4670208,140.919735 87.1098118,142.148214 84.2708598,141.068082 L80.834567,139.760415 C78.0256931,138.691897 77.2230824,136.846804 78.2810933,134.067813 L80.9670163,127.01528 C82.0250272,124.235762 83.8518769,123.391612 86.6607508,124.460657 L89.1709543,125.415143 L87.304528,130.316387 L85.4222712,129.599995 C84.9737379,129.429475 84.7974907,129.533476 84.6381294,129.951592 L82.9996637,134.254698 C82.8403024,134.673342 82.9030971,134.868146 83.3511027,135.038665 L85.2935158,135.777758 C85.7715995,135.959892 85.9890062,135.837413 86.3889924,135.236636 L89.8500865,130.190213 C91.5956726,127.672545 92.9528816,126.444067 95.7918336,127.524199 L99.4671683,128.922669 C102.245964,129.9801 103.078653,131.83628 102.020642,134.61527 L99.1758854,142.086447 C98.1173468,144.865437 96.260419,145.698501 93.4816232,144.641069" id="Fill-253" fill="#E4002B"></path>
          <path d="M101.102468,125.953573 L86.8274997,115.043501 L90.0516626,110.826446 L103.61531,121.192757 C103.945641,121.445104 104.214234,121.409205 104.466995,121.078725 L107.632585,116.938219 C107.904344,116.582399 107.848937,116.339026 107.519133,116.086678 L93.9549578,105.720368 L97.1791207,101.503313 L111.454089,112.412857 C113.765355,114.17929 114.066136,116.260365 112.27939,118.597484 L107.288006,125.126844 C105.520785,127.438622 103.413734,127.720006 101.102468,125.953573" id="Fill-255" fill="#E4002B"></path>
          <path d="M118.972563,97.2545306 C119.335611,96.9921525 119.389962,96.794709 119.109233,96.4061571 L116.299832,92.5195827 C116.019103,92.1310308 115.81436,92.1210003 115.451312,92.3833784 L110.864136,95.6997952 L114.385386,100.570947 L118.972563,97.2545306 Z M103.883374,95.1042972 L113.991204,87.7978329 C116.401675,86.0551567 118.392108,86.3523778 120.152469,88.7876899 L123.861048,93.9180526 C125.621409,96.3533648 125.279469,98.3367742 122.868998,100.078922 L117.063394,104.275916 L121.296493,110.131646 L116.994267,113.241645 L103.883374,95.1042972 Z" id="Fill-257" fill="#E4002B"></path>
          <polygon id="Fill-259" fill="#E4002B" points="124.544718 81.7894274 139.021263 76.4964642 140.601155 80.8212153 131.110718 84.29073 132.50381 88.104451 140.102492 85.3265164 141.660749 89.5905563 134.062067 92.3690188 135.630878 96.6631504 145.121843 93.1931078 146.702264 97.517331 132.225191 102.810294"></polygon>
          <path d="M158.921577,84.1876793 C159.368,84.1560039 159.51839,84.01716 159.485146,83.5388611 L159.167479,79.0103314 C159.134235,78.5320325 158.965375,78.4158893 158.518953,78.4470368 L152.873765,78.8445633 L153.27639,84.5852059 L158.921577,84.1876793 Z M166.466963,95.8025291 L160.948948,96.191081 L156.678383,88.7684735 L153.585086,88.985978 L154.123854,96.6714916 L148.829578,97.0442057 L147.26446,74.7209511 L159.702553,73.8451257 C162.669205,73.6360679 164.202661,74.9384557 164.41268,77.9360066 L164.803696,83.5172162 C164.980471,86.0364682 164.088153,87.477172 162.041786,88.0061516 L166.466963,95.8025291 Z" id="Fill-261" fill="#E4002B"></path>
          <polygon id="Fill-263" fill="#E4002B" points="172.188559 74.5371281 177.434288 75.3459072 174.01752 97.4659112 168.771791 96.65766"></polygon>
          <path d="M189.679617,97.6032242 C190.125512,97.7795507 190.303342,97.6776614 190.46798,97.2616575 L194.86519,86.1420002 C195.041964,85.6959046 194.969671,85.5301366 194.523777,85.35381 L189.321318,83.2975471 C188.904973,83.1333629 188.709202,83.1935462 188.532955,83.6391138 L184.135218,94.7587712 C183.970579,95.175303 184.060814,95.382777 184.476631,95.5469613 L189.679617,97.6032242 Z M178.906375,93.5519375 L183.891954,80.9456469 C184.996929,78.1513467 186.852274,77.3716033 189.616822,78.4644055 L197.614435,81.6245569 C200.409061,82.7289733 201.200063,84.5540056 200.09456,87.3488338 L195.108981,99.9551244 C194.015615,102.719861 192.178211,103.54131 189.383585,102.436894 L181.3865,99.2762145 C178.621424,98.1839403 177.812481,96.317202 178.906375,93.5519375 L178.906375,93.5519375 Z" id="Fill-265" fill="#E4002B"></path>
          <path d="M211.722813,102.685018 C212.073724,102.963234 212.277939,102.962706 212.576609,102.586824 L215.399203,99.0296741 C215.697345,98.6537924 215.651437,98.4542372 215.301053,98.1760214 L210.867961,94.6595215 L207.28972,99.168518 L211.722813,102.685018 Z M209.449013,116.351379 L205.116181,112.914068 L206.976275,104.552284 L204.546807,102.625363 L199.756472,108.66217 L195.598832,105.363703 L209.512863,87.8292444 L219.280335,95.5781088 C221.609542,97.4258418 221.862304,99.4219214 219.993767,101.776461 L216.515259,106.16034 C214.944865,108.139526 213.313787,108.600403 211.44736,107.60949 L209.449013,116.351379 Z" id="Fill-267" fill="#E4002B"></path>
          <path d="M101.208691,215.659744 L107.536705,209.134079 C108.939822,207.687568 110.304419,207.697071 111.735504,209.084454 L115.581809,212.814235 C117.012894,214.201619 117.033474,215.535682 115.630356,216.982193 L113.809311,218.860018 L111.25531,216.383 L112.703281,214.890032 C112.92702,214.659329 112.909606,214.523125 112.69431,214.314067 L110.293865,211.986979 C110.078569,211.777921 109.941898,211.764723 109.71816,211.995954 L104.136294,217.751906 C103.926803,217.967299 103.929441,218.118813 104.144737,218.327871 L106.545182,220.654959 C106.760478,220.864016 106.911924,220.861377 107.120888,220.645984 L108.583634,219.137706 L111.137636,221.614724 L109.301815,223.50733 C107.914,224.93906 106.549931,224.960177 105.118846,223.572265 L101.272541,219.842484 C99.8414561,218.4551 99.8203487,217.090946 101.208691,215.659744" id="Fill-269" fill="#E4002B"></path>
          <path d="M119.029605,230.145971 C119.299253,230.321242 119.429592,230.277952 119.593174,230.026661 L123.962944,223.30408 C124.138136,223.034311 124.113335,222.915528 123.843687,222.740257 L120.698677,220.696665 C120.446971,220.533008 120.3103,220.546734 120.135108,220.816503 L115.764811,227.538556 C115.601228,227.790376 115.632889,227.938722 115.884595,228.102379 L119.029605,230.145971 Z M112.489462,226.049811 L117.443908,218.428176 C118.542023,216.73882 119.864933,216.473275 121.536115,217.559214 L126.370776,220.700888 C128.060428,221.798441 128.336935,223.103469 127.23882,224.792825 L122.284374,232.41446 C121.197868,234.085866 119.881291,234.380975 118.19164,233.283422 L113.356978,230.141748 C111.685796,229.055809 111.402956,227.721218 112.489462,226.049811 L112.489462,226.049811 Z" id="Fill-271" fill="#E4002B"></path>
          <polygon id="Fill-273" fill="#E4002B" points="130.871835 223.387545 134.249554 224.697851 135.997251 234.827124 139.186059 226.612103 142.40389 227.860114 136.972943 241.851677 133.894949 240.657513 132.025884 229.952276 128.658718 238.626591 125.440888 237.378579"></polygon>
          <path d="M142.460194,240.25645 L142.78947,238.312107 L146.255841,238.898102 L146.001496,240.398989 C145.951366,240.694626 146.038962,240.818161 146.334994,240.868313 L149.674192,241.432664 C149.970224,241.482816 150.093703,241.395181 150.143833,241.099016 L150.405566,239.556423 C150.462556,239.218024 150.332745,239.087627 149.906374,238.906549 L146.136584,237.291102 C144.253272,236.472292 143.268609,235.74059 143.608967,233.732896 L144.020562,231.302335 C144.357226,229.315758 145.465367,228.546574 147.430998,228.879166 L152.419216,229.72226 C154.384848,230.054852 155.17796,231.145542 154.841824,233.132119 L154.541043,234.907527 L151.074672,234.321531 L151.300521,232.990108 C151.354345,232.672825 151.262528,232.570408 150.966496,232.520783 L147.92333,232.006058 C147.627298,231.955905 147.507513,232.022423 147.453689,232.339706 L147.220979,233.713363 C147.163989,234.051234 147.272692,234.178464 147.719643,234.362709 L151.489961,235.978684 C153.372745,236.796966 154.357936,237.528668 154.017578,239.536362 L153.57696,242.136386 C153.244518,244.101846 152.132155,244.892148 150.166524,244.559556 L144.882801,243.666309 C142.91717,243.333717 142.127224,242.22191 142.460194,240.25645" id="Fill-275" fill="#E4002B"></path>
          <polygon id="Fill-277" fill="#E4002B" points="160.588749 233.401677 156.687565 233.453941 156.646933 230.346054 168.028598 230.194012 168.068702 233.301899 164.146938 233.354164 164.302077 245.248813 160.743889 245.296326"></polygon>
          <path d="M178.242598,235.279026 C178.536519,235.219371 178.624643,235.114314 178.560793,234.799144 L177.958175,231.815319 C177.894325,231.500148 177.77243,231.437326 177.477981,231.496981 L173.75832,232.2498 L174.522938,236.031846 L178.242598,235.279026 Z M184.265609,242.349509 L180.629851,243.085435 L177.147649,238.518894 L175.109197,238.931731 L176.132381,243.995575 L172.644375,244.701937 L169.670863,229.992926 L177.866885,228.33419 C179.820908,227.938775 180.95385,228.671533 181.352781,230.647024 L182.096291,234.324012 C182.431899,235.983805 181.962786,237.019591 180.64832,237.548043 L184.265609,242.349509 Z" id="Fill-279" fill="#E4002B"></path>
          <path d="M187.520378,238.206469 L182.870934,227.093675 L186.154198,225.719489 L190.571987,236.278492 C190.679635,236.53559 190.847967,236.604749 191.10495,236.497052 L194.328585,235.147679 C194.605621,235.032064 194.654696,234.872103 194.547048,234.615004 L190.129258,224.055474 L193.412522,222.681288 L198.061966,233.794611 C198.814974,235.593775 198.29362,236.904081 196.474158,237.665347 L191.391484,239.79288 C189.591546,240.546227 188.273386,240.006161 187.520378,238.206469" id="Fill-281" fill="#E4002B"></path>
          <path d="M202.10114,231.590265 L197.027964,224.050986 C195.902937,222.37958 196.194748,221.046572 197.849044,219.933181 L202.295329,216.94091 C203.949625,215.827519 205.258287,216.083562 206.383314,217.754968 L207.842894,219.924207 L204.890489,221.911311 L203.730107,220.186057 C203.550694,219.919455 203.413496,219.908369 203.164428,220.075721 L200.389853,221.942987 C200.141313,222.110867 200.100154,222.241792 200.279567,222.508393 L204.754874,229.158648 C204.922151,229.407828 205.070958,229.436864 205.319498,229.268984 L208.0946,227.401718 C208.343668,227.234366 208.372691,227.085492 208.204887,226.836312 L207.032368,225.093636 L209.984772,223.107059 L211.456489,225.294247 C212.56938,226.947704 212.307647,228.286518 210.653351,229.399909 L206.207067,232.392181 C204.55277,233.505572 203.21403,233.243722 202.10114,231.590265" id="Fill-283" fill="#E4002B"></path>
          <polygon id="Fill-285" fill="#E4002B" points="210.403228 214.205948 207.610184 216.93109 205.439283 214.706948 213.588342 206.755361 215.758715 208.980031 212.950897 211.719955 221.259317 220.234309 218.711648 222.719774"></polygon>
          <polygon id="Fill-287" fill="#E4002B" points="214.714688 205.086858 216.897198 202.275136 228.750614 211.475263 226.568104 214.286456"></polygon>
          <path d="M232.811741,199.296009 C232.968991,199.015682 232.917805,198.888452 232.656073,198.74169 L225.66423,194.819216 C225.384029,194.661895 225.266883,194.694626 225.109632,194.974954 L223.273284,198.247025 C223.126587,198.508347 223.14875,198.644024 223.428951,198.801345 L230.420794,202.723818 C230.682527,202.870581 230.828168,202.829931 230.975392,202.568081 L232.811741,199.296009 Z M229.145904,206.08986 L221.219529,201.64263 C219.462334,200.656997 219.11195,199.354081 220.08817,197.6151 L222.910764,192.586099 C223.897537,190.828641 225.181397,190.467541 226.93912,191.453175 L234.865495,195.900404 C236.603694,196.875479 236.983628,198.169948 235.996855,199.927406 L233.174261,204.956936 C232.198041,206.695388 230.88463,207.064935 229.145904,206.08986 L229.145904,206.08986 Z" id="Fill-289" fill="#E4002B"></path>
          <polygon id="Fill-291" fill="#E4002B" points="225.297014 187.928597 226.385103 184.472809 236.378952 182.064421 227.974494 179.421635 229.010869 176.128974 243.324886 180.630052 242.333892 183.779117 231.772779 186.34641 240.647406 189.137015 239.611558 192.429675"></polygon>
          <path d="M157.013886,163.637718 C157.002277,163.394346 156.931039,163.325188 156.700968,163.386427 L154.104224,164.078007 C153.891039,164.135023 153.813997,164.243247 153.842492,164.482396 L153.990244,166.360221 C154.018739,166.59937 154.106335,166.664305 154.31952,166.607289 L156.916264,165.915709 C157.146335,165.85447 157.206491,165.750469 157.177996,165.51132 L157.013886,163.637718 Z" id="Fill-293" fill="#E4002B"></path>
          <path d="M154.027076,161.670675 L156.360505,161.049308 C156.590576,160.988069 156.67184,160.89621 156.639123,160.641223 L156.507729,159.022081 C156.495593,158.778708 156.407997,158.714302 156.161567,158.779764 L153.844497,159.396907 C153.614426,159.458146 153.554269,159.562147 153.565879,159.80552 L153.714158,161.419911 C153.730517,161.679121 153.813363,161.72769 154.027076,161.670675" id="Fill-295" fill="#E4002B"></path>
          <path d="M136.225317,164.141146 L133.990566,164.736116 C133.760495,164.797356 133.695589,164.884991 133.728306,165.140506 L133.909302,167.273846 C133.920911,167.517219 134.024865,167.577402 134.53461,167.441726 C135.586289,167.161926 136.051708,166.861537 136.711316,166.298771 L136.555121,164.387687 C136.522404,164.1327 136.455388,164.079907 136.225317,164.141146" id="Fill-297" fill="#E4002B"></path>
          <path d="M232.270123,154.80434 L224.79492,156.794613 C221.150719,157.764936 218.863727,156.34007 218.193037,152.683143 C218.122855,152.301982 217.997266,151.494259 217.993044,151.400288 L224.179638,149.755278 L224.220797,149.978062 C224.39124,150.899816 224.761148,151.134742 225.694097,150.88609 L229.365211,149.908376 C230.298688,149.660252 230.550394,149.259557 230.378896,148.338331 L230.260166,147.70271 C230.112414,146.908185 229.772057,146.832164 228.076601,147.016937 L222.967543,147.610324 C219.007785,148.064338 217.253756,147.030663 216.66433,143.819303 L216.052214,140.480714 C215.380997,136.824314 216.946115,134.373164 220.571847,133.40812 L227.822784,131.477503 C231.448516,130.51193 233.733397,131.937852 234.418862,135.590028 C234.484295,135.939514 234.594581,136.732455 234.624132,136.870771 L228.45073,138.513142 L228.409043,138.290886 C228.237545,137.369659 227.868165,137.134733 226.937326,137.382329 L223.524779,138.290886 C222.562807,138.546929 222.2863,138.987746 222.450938,139.877297 L222.55067,140.417891 C222.703699,141.244092 222.944324,141.31325 224.761148,141.096801 L229.864402,140.50447 C233.852654,140.043065 235.549693,141.092049 236.16392,144.363065 L236.796088,147.729634 C237.481553,151.382339 235.914325,153.834016 232.270123,154.80434 L232.270123,154.80434 Z M157.947627,168.139693 L153.724554,169.264171 C152.229091,169.662226 151.440728,169.080454 151.313555,167.478205 L151.163692,165.723387 C151.082956,164.759398 151.271868,163.882517 152.275,163.351425 C151.304057,163.275404 151.039686,162.677267 150.937315,161.63145 L150.808032,160.152735 C150.67611,158.534121 151.321998,157.587554 152.817461,157.1895 L156.777746,156.134708 C158.272682,155.736654 159.056823,156.30206 159.204575,157.916979 L159.334386,159.395165 C159.419871,160.445733 159.240986,161.162126 158.338115,161.737035 C159.373435,161.72542 159.710099,162.462402 159.790835,163.42639 L159.940698,165.180681 C160.084228,166.778706 159.426204,167.745862 157.947627,168.139693 L157.947627,168.139693 Z M147.874624,170.822074 L143.897453,171.880561 C142.385632,172.283367 141.614154,171.696844 141.470624,170.099346 L141.341868,168.690318 L144.070006,167.963895 L144.163407,168.976981 C144.175544,169.220353 144.263139,169.285288 144.493211,169.224049 L146.859356,168.593708 C147.089427,168.532469 147.133225,168.432691 147.121088,168.189318 L146.973336,166.311494 C146.961727,166.068121 146.873603,166.003186 146.64406,166.064425 L144.113277,166.738584 L143.904313,164.366095 L146.303702,163.727307 C146.533773,163.666068 146.598151,163.578433 146.58232,163.318694 L146.434041,161.704303 C146.422432,161.46093 146.334836,161.396524 146.121123,161.45354 L144.001407,162.01789 C143.787694,162.074378 143.710652,162.18313 143.739147,162.421752 L143.816189,163.439589 L141.088579,164.165484 L140.980931,162.769653 C140.833179,161.154735 141.478539,160.208695 142.99036,159.80589 L146.704216,158.817088 C148.216037,158.414811 148.983821,158.98444 149.131573,160.599359 L149.260856,162.077545 C149.363227,163.12389 149.2007,163.835531 148.297828,164.41044 C149.316791,164.403049 149.653454,165.140031 149.750549,166.099796 L149.900412,167.854615 C150.027584,169.456335 149.386445,170.419268 147.874624,170.822074 L147.874624,170.822074 Z M137.850169,173.490728 L134.120482,174.484281 C132.625019,174.882335 131.836656,174.300563 131.709484,172.698315 L131.60078,171.495705 L134.328391,170.769282 L134.393824,171.543218 C134.41757,171.765474 134.493029,171.850997 134.7231,171.789758 L136.843343,171.225408 C137.04017,171.173143 137.128821,171.043802 137.105076,170.821546 L136.850731,167.880483 C136.470269,168.632774 135.909866,169.503848 134.233935,169.949944 C132.113691,170.514294 131.342214,169.927771 131.198156,168.330274 L130.957003,165.438308 C130.809251,163.823917 131.454611,162.877878 132.96696,162.475072 L136.811682,161.451428 C138.323503,161.048622 139.107645,161.614556 139.239039,163.23317 L139.876484,170.523797 C140.003656,172.125518 139.36199,173.08845 137.850169,173.490728 L137.850169,173.490728 Z M126.807806,176.431263 L126.022609,167.262284 L123.874926,168.714075 L123.682848,166.337362 L126.393572,164.225667 L128.49693,163.66554 L129.535416,175.70484 L126.807806,176.431263 Z M116.734803,179.113644 L116.507371,176.340989 L119.136831,175.640962 L119.363736,178.413617 L116.734803,179.113644 Z M113.990307,179.84429 L111.262169,180.570713 L110.446894,171.022685 L107.538288,171.797149 L107.315604,169.305349 L115.876786,167.025774 L116.099469,169.517574 L113.174504,170.29679 L113.990307,179.84429 Z M105.16581,182.194079 L101.090489,183.278962 C99.5950266,183.677545 98.8071911,183.095245 98.6800187,181.492996 L98.5407095,179.911337 L101.235603,179.193888 L101.33217,180.417088 C101.360665,180.656237 101.431902,180.725395 101.678332,180.659405 L104.126796,180.007419 C104.373226,179.941956 104.433382,179.837955 104.421773,179.594582 L104.299877,178.342875 C104.278242,177.996557 104.162151,177.957491 103.828126,177.958019 L100.767545,177.963826 C99.2208971,177.971217 98.3971789,177.785388 98.2494267,176.170997 L98.0752903,174.193923 C97.9438964,172.575309 98.5897843,171.628741 100.084719,171.230687 L103.929969,170.207043 C105.425432,169.80846 106.209574,170.374395 106.357326,171.988785 L106.478166,173.434241 L103.783272,174.152217 L103.688817,173.068917 C103.672458,172.809179 103.589084,172.761138 103.359013,172.822377 L101.107903,173.422098 C100.89419,173.478586 100.812926,173.570445 100.845643,173.82596 L100.932711,174.946214 C100.970705,175.287781 101.058301,175.352715 101.408684,175.347436 L104.481401,175.32104 C106.0233,175.297283 106.85124,175.49895 106.99952,177.113341 L107.175767,179.230843 C107.319298,180.828868 106.661273,181.796024 105.16581,182.194079 L105.16581,182.194079 Z M89.7520951,186.298158 L88.7136086,174.258857 L96.5027852,172.184645 L96.7212474,174.660079 L91.6596809,176.007869 L91.8533418,178.190833 L95.8959461,177.114397 L96.1059652,179.5571 L92.0633609,180.633008 L92.2776015,183.092077 L97.322282,181.749039 L97.5412718,184.224473 L89.7520951,186.298158 Z M235.772377,125.422745 L78.8748986,167.200517 L84.8171734,197.34021 L241.715179,155.561911 L235.772377,125.422745 Z" id="Fill-299" fill="#E4002B"></path>
          <path d="M241.155727,124.060069 L242.064402,123.845732 L243.155657,125.689241 L243.780438,123.440814 L244.669062,123.231229 L245.143451,126.977903 L244.351922,127.164788 L244.072248,124.93695 L243.57253,126.78046 L243.045371,126.90505 L242.129835,125.395188 L242.403177,127.624082 L241.61112,127.810967 L241.155727,124.060069 Z M238.980604,125.408914 L238.090925,125.6185 L237.995941,124.805497 L240.630679,124.183603 L240.728828,124.996605 L239.829123,125.208831 L240.180035,128.148838 L239.328349,128.349449 L238.980604,125.408914 Z" id="Fill-301" fill="#E4002B"></path>
        </g>
      </g>
    </g>
  </g>
</svg>
